%FSTAX23Y23*%
%MOIN*%
%SFA1B1*%

%IPPOS*%
%ADD52C,0.002000*%
%ADD53C,0.002670*%
%ADD54C,0.001330*%
%LNclicguard-1*%
%LPD*%
G54D52*
X04772Y04182D02*
Y04198D01*
X04788*
Y04182*
X04772*
X02648Y01335D02*
X0264Y01351D01*
X02656*
X02648Y01335*
X04205Y01714D02*
X04209Y01718D01*
X04213*
X04209Y01722*
X04213Y01726*
X04209*
X04205Y0173*
X04201Y01726*
X04197*
X04201Y01722*
X04197Y01718*
X04201*
X04205Y01714*
X03141Y01335D02*
X03133Y01351D01*
X03149*
X03141Y01335*
X03622Y02157D02*
X03626Y02165D01*
X03622Y02173*
X0363Y02169*
X03638Y02173*
X03634Y02165*
X03638Y02157*
X0363Y02161*
X03622Y02157*
X04695Y02099D02*
X04699Y02103D01*
X04703*
X04699Y02107*
X04703Y02111*
X04699*
X04695Y02115*
X04691Y02111*
X04687*
X04691Y02107*
X04687Y02103*
X04691*
X04695Y02099*
X04806Y01335D02*
X04798Y01351D01*
X04814*
X04806Y01335*
X03622Y02857D02*
X03626Y02865D01*
X03622Y02873*
X0363Y02869*
X03638Y02873*
X03634Y02865*
X03638Y02857*
X0363Y02861*
X03622Y02857*
X04406Y0258D02*
Y02576D01*
X04414*
Y0258*
X04418*
Y02588*
X04414*
Y02592*
X04406*
Y02588*
X04402*
Y0258*
X04406*
X03922Y02657D02*
X03926Y02665D01*
X03922Y02673*
X0393Y02669*
X03938Y02673*
X03934Y02665*
X03938Y02657*
X0393Y02661*
X03922Y02657*
X03322Y02228D02*
X03326D01*
X0333Y02232*
X03334Y02228*
X03338*
Y02232*
X03334Y02236*
X03338Y0224*
Y02244*
X03334*
X0333Y0224*
X03326Y02244*
X03322*
Y0224*
X03326Y02236*
X03322Y02232*
Y02228*
X02497Y01743D02*
X02501D01*
X02505Y01747*
X02509Y01743*
X02513*
Y01747*
X02509Y01751*
X02513Y01755*
Y01759*
X02509*
X02505Y01755*
X02501Y01759*
X02497*
Y01755*
X02501Y01751*
X02497Y01747*
Y01743*
X03622Y02357D02*
X03626Y02365D01*
X03622Y02373*
X0363Y02369*
X03638Y02373*
X03634Y02365*
X03638Y02357*
X0363Y02361*
X03622Y02357*
X02872Y01763D02*
X02876D01*
X0288Y01767*
X02884Y01763*
X02888*
Y01767*
X02884Y01771*
X02888Y01775*
Y01779*
X02884*
X0288Y01775*
X02876Y01779*
X02872*
Y01775*
X02876Y01771*
X02872Y01767*
Y01763*
X03322Y02035D02*
X03326D01*
X0333Y02039*
X03334Y02035*
X03338*
Y02039*
X03334Y02043*
X03338Y02047*
Y02051*
X03334*
X0333Y02047*
X03326Y02051*
X03322*
Y02047*
X03326Y02043*
X03322Y02039*
Y02035*
X03622Y02257D02*
X03626Y02265D01*
X03622Y02273*
X0363Y02269*
X03638Y02273*
X03634Y02265*
X03638Y02257*
X0363Y02261*
X03622Y02257*
X03667Y0396D02*
X03675Y03968D01*
X03683Y0396*
X03675Y03952*
X03667Y0396*
X03922Y02757D02*
X03926Y02765D01*
X03922Y02773*
X0393Y02769*
X03938Y02773*
X03934Y02765*
X03938Y02757*
X0393Y02761*
X03922Y02757*
X03622Y02957D02*
X03626Y02965D01*
X03622Y02973*
X0363Y02969*
X03638Y02973*
X03634Y02965*
X03638Y02957*
X0363Y02961*
X03622Y02957*
Y03057D02*
X03626Y03065D01*
X03622Y03073*
X0363Y03069*
X03638Y03073*
X03634Y03065*
X03638Y03057*
X0363Y03061*
X03622Y03057*
X04967Y02857D02*
Y02873D01*
X04983*
Y02857*
X04967*
X04971Y02861D02*
Y02869D01*
X04979*
Y02861*
X04971*
X03622Y02757D02*
X03626Y02765D01*
X03622Y02773*
X0363Y02769*
X03638Y02773*
X03634Y02765*
X03638Y02757*
X0363Y02761*
X03622Y02757*
X04967Y02957D02*
Y02973D01*
X04983*
Y02957*
X04967*
X04971Y02961D02*
Y02969D01*
X04979*
Y02961*
X04971*
X03622Y02657D02*
X03626Y02665D01*
X03622Y02673*
X0363Y02669*
X03638Y02673*
X03634Y02665*
X03638Y02657*
X0363Y02661*
X03622Y02657*
X04962Y03647D02*
Y03663D01*
X04978*
Y03647*
X04962*
X04966Y03651D02*
Y03659D01*
X04974*
Y03651*
X04966*
X03922Y03057D02*
X03926Y03065D01*
X03922Y03073*
X0393Y03069*
X03938Y03073*
X03934Y03065*
X03938Y03057*
X0393Y03061*
X03922Y03057*
X04962Y03747D02*
Y03763D01*
X04978*
Y03747*
X04962*
X04966Y03751D02*
Y03759D01*
X04974*
Y03751*
X04966*
X03922Y03157D02*
X03926Y03165D01*
X03922Y03173*
X0393Y03169*
X03938Y03173*
X03934Y03165*
X03938Y03157*
X0393Y03161*
X03922Y03157*
X0339Y03009D02*
X03394Y03013D01*
X03398*
X03394Y03017*
X03398Y03021*
X03394*
X0339Y03025*
X03386Y03021*
X03382*
X03386Y03017*
X03382Y03013*
X03386*
X0339Y03009*
X03622Y03157D02*
X03626Y03165D01*
X03622Y03173*
X0363Y03169*
X03638Y03173*
X03634Y03165*
X03638Y03157*
X0363Y03161*
X03622Y03157*
X03637Y03562D02*
X03641Y03566D01*
X03645*
X03641Y0357*
X03645Y03574*
X03641*
X03637Y03578*
X03633Y03574*
X03629*
X03633Y0357*
X03629Y03566*
X03633*
X03637Y03562*
X03922Y01857D02*
X03926Y01865D01*
X03922Y01873*
X0393Y01869*
X03938Y01873*
X03934Y01865*
X03938Y01857*
X0393Y01861*
X03922Y01857*
X0445Y01714D02*
X04454Y01718D01*
X04458*
X04454Y01722*
X04458Y01726*
X04454*
X0445Y0173*
X04446Y01726*
X04442*
X04446Y01722*
X04442Y01718*
X04446*
X0445Y01714*
X03622Y02057D02*
X03626Y02065D01*
X03622Y02073*
X0363Y02069*
X03638Y02073*
X03634Y02065*
X03638Y02057*
X0363Y02061*
X03622Y02057*
X03971Y01335D02*
X03963Y01351D01*
X03979*
X03971Y01335*
X0319Y03519D02*
X03194Y03523D01*
X03198*
X03194Y03527*
X03198Y03531*
X03194*
X0319Y03535*
X03186Y03531*
X03182*
X03186Y03527*
X03182Y03523*
X03186*
X0319Y03519*
X04445Y03219D02*
X04449Y03223D01*
X04453*
X04449Y03227*
X04453Y03231*
X04449*
X04445Y03235*
X04441Y03231*
X04437*
X04441Y03227*
X04437Y03223*
X04441*
X04445Y03219*
X03922Y02957D02*
X03926Y02965D01*
X03922Y02973*
X0393Y02969*
X03938Y02973*
X03934Y02965*
X03938Y02957*
X0393Y02961*
X03922Y02957*
X0339Y02624D02*
X03394Y02628D01*
X03398*
X03394Y02632*
X03398Y02636*
X03394*
X0339Y0264*
X03386Y02636*
X03382*
X03386Y02632*
X03382Y02628*
X03386*
X0339Y02624*
X04962Y03447D02*
Y03463D01*
X04978*
Y03447*
X04962*
X04966Y03451D02*
Y03459D01*
X04974*
Y03451*
X04966*
X04967Y02657D02*
Y02673D01*
X04983*
Y02657*
X04967*
X04971Y02661D02*
Y02669D01*
X04979*
Y02661*
X04971*
X04806Y01138D02*
X04798Y01154D01*
X04814*
X04806Y01138*
X03971D02*
X03963Y01154D01*
X03979*
X03971Y01138*
X034Y03519D02*
X03404Y03523D01*
X03408*
X03404Y03527*
X03408Y03531*
X03404*
X034Y03535*
X03396Y03531*
X03392*
X03396Y03527*
X03392Y03523*
X03396*
X034Y03519*
X0319Y03134D02*
X03194Y03138D01*
X03198*
X03194Y03142*
X03198Y03146*
X03194*
X0319Y0315*
X03186Y03146*
X03182*
X03186Y03142*
X03182Y03138*
X03186*
X0319Y03134*
X02522Y03307D02*
Y03323D01*
X02538*
Y03307*
X02522*
X02526Y03311D02*
Y03319D01*
X02534*
Y03311*
X02526*
X02972Y02762D02*
X02976D01*
X0298Y02766*
X02984Y02762*
X02988*
Y02766*
X02984Y0277*
X02988Y02774*
Y02778*
X02984*
X0298Y02774*
X02976Y02778*
X02972*
Y02774*
X02976Y0277*
X02972Y02766*
Y02762*
X03922Y02457D02*
X03926Y02465D01*
X03922Y02473*
X0393Y02469*
X03938Y02473*
X03934Y02465*
X03938Y02457*
X0393Y02461*
X03922Y02457*
X03622Y02557D02*
X03626Y02565D01*
X03622Y02573*
X0363Y02569*
X03638Y02573*
X03634Y02565*
X03638Y02557*
X0363Y02561*
X03622Y02557*
X03922Y02357D02*
X03926Y02365D01*
X03922Y02373*
X0393Y02369*
X03938Y02373*
X03934Y02365*
X03938Y02357*
X0393Y02361*
X03922Y02357*
X02742Y02313D02*
X02734Y02329D01*
X0275*
X02742Y02313*
Y02317D02*
X02738Y02325D01*
X02746*
X02742Y02317*
X03141Y01138D02*
X03133Y01154D01*
X03149*
X03141Y01138*
X02487Y02313D02*
X02479Y02329D01*
X02495*
X02487Y02313*
Y02317D02*
X02483Y02325D01*
X02491*
X02487Y02317*
X04205Y02099D02*
X04209Y02103D01*
X04213*
X04209Y02107*
X04213Y02111*
X04209*
X04205Y02115*
X04201Y02111*
X04197*
X04201Y02107*
X04197Y02103*
X04201*
X04205Y02099*
X02648Y01138D02*
X0264Y01154D01*
X02656*
X02648Y01138*
X03478Y01335D02*
X0347Y01351D01*
X03486*
X03478Y01335*
Y01138D02*
X0347Y01154D01*
X03486*
X03478Y01138*
X03922Y01957D02*
X03926Y01965D01*
X03922Y01973*
X0393Y01969*
X03938Y01973*
X03934Y01965*
X03938Y01957*
X0393Y01961*
X03922Y01957*
Y02057D02*
X03926Y02065D01*
X03922Y02073*
X0393Y02069*
X03938Y02073*
X03934Y02065*
X03938Y02057*
X0393Y02061*
X03922Y02057*
Y02157D02*
X03926Y02165D01*
X03922Y02173*
X0393Y02169*
X03938Y02173*
X03934Y02165*
X03938Y02157*
X0393Y02161*
X03922Y02157*
Y02257D02*
X03926Y02265D01*
X03922Y02273*
X0393Y02269*
X03938Y02273*
X03934Y02265*
X03938Y02257*
X0393Y02261*
X03922Y02257*
Y02557D02*
X03926Y02565D01*
X03922Y02573*
X0393Y02569*
X03938Y02573*
X03934Y02565*
X03938Y02557*
X0393Y02561*
X03922Y02557*
Y02857D02*
X03926Y02865D01*
X03922Y02873*
X0393Y02869*
X03938Y02873*
X03934Y02865*
X03938Y02857*
X0393Y02861*
X03922Y02857*
X03622Y01857D02*
X03626Y01865D01*
X03622Y01873*
X0363Y01869*
X03638Y01873*
X03634Y01865*
X03638Y01857*
X0363Y01861*
X03622Y01857*
Y01957D02*
X03626Y01965D01*
X03622Y01973*
X0363Y01969*
X03638Y01973*
X03634Y01965*
X03638Y01957*
X0363Y01961*
X03622Y01957*
Y02457D02*
X03626Y02465D01*
X03622Y02473*
X0363Y02469*
X03638Y02473*
X03634Y02465*
X03638Y02457*
X0363Y02461*
X03622Y02457*
X04406Y02281D02*
Y02277D01*
X04414*
Y02281*
X04418*
Y02289*
X04414*
Y02293*
X04406*
Y02289*
X04402*
Y02281*
X04406*
X04445Y03604D02*
X04449Y03608D01*
X04453*
X04449Y03612*
X04453Y03616*
X04449*
X04445Y0362*
X04441Y03616*
X04437*
X04441Y03612*
X04437Y03608*
X04441*
X04445Y03604*
X04022Y03562D02*
X04026Y03566D01*
X0403*
X04026Y0357*
X0403Y03574*
X04026*
X04022Y03578*
X04018Y03574*
X04014*
X04018Y0357*
X04014Y03566*
X04018*
X04022Y03562*
X0445Y02099D02*
X04454Y02103D01*
X04458*
X04454Y02107*
X04458Y02111*
X04454*
X0445Y02115*
X04446Y02111*
X04442*
X04446Y02107*
X04442Y02103*
X04446*
X0445Y02099*
X04962Y03547D02*
Y03563D01*
X04978*
Y03547*
X04962*
X04966Y03551D02*
Y03559D01*
X04974*
Y03551*
X04966*
X04967Y02757D02*
Y02773D01*
X04983*
Y02757*
X04967*
X04971Y02761D02*
Y02769D01*
X04979*
Y02761*
X04971*
X02468Y03738D02*
X0246Y03754D01*
X02476*
X02468Y03738*
Y03875D02*
X0246Y03891D01*
X02476*
X02468Y03875*
X02892Y03592D02*
X02896D01*
X029Y03596*
X02904Y03592*
X02908*
Y03596*
X02904Y036*
X02908Y03604*
Y03608*
X02904*
X029Y03604*
X02896Y03608*
X02892*
Y03604*
X02896Y036*
X02892Y03596*
Y03592*
Y03493D02*
X02896D01*
X029Y03497*
X02904Y03493*
X02908*
Y03497*
X02904Y03501*
X02908Y03505*
Y03509*
X02904*
X029Y03505*
X02896Y03509*
X02892*
Y03505*
X02896Y03501*
X02892Y03497*
Y03493*
X02522Y03207D02*
Y03223D01*
X02538*
Y03207*
X02522*
X02526Y03211D02*
Y03219D01*
X02534*
Y03211*
X02526*
X02522Y03107D02*
Y03123D01*
X02538*
Y03107*
X02522*
X02526Y03111D02*
Y03119D01*
X02534*
Y03111*
X02526*
X04313Y01138D02*
X04305Y01154D01*
X04321*
X04313Y01138*
Y01335D02*
X04305Y01351D01*
X04321*
X04313Y01335*
X02487Y0249D02*
X02479Y02506D01*
X02495*
X02487Y0249*
Y02494D02*
X02483Y02502D01*
X02491*
X02487Y02494*
X02742Y0249D02*
X02734Y02506D01*
X0275*
X02742Y0249*
Y02494D02*
X02738Y02502D01*
X02746*
X02742Y02494*
X04417Y0396D02*
X04425Y03968D01*
X04433Y0396*
X04425Y03952*
X04417Y0396*
X04317D02*
X04325Y03968D01*
X04333Y0396*
X04325Y03952*
X04317Y0396*
X03117D02*
X03125Y03968D01*
X03133Y0396*
X03125Y03952*
X03117Y0396*
X03017D02*
X03025Y03968D01*
X03033Y0396*
X03025Y03952*
X03017Y0396*
X034Y03904D02*
X03404Y03908D01*
X03408*
X03404Y03912*
X03408Y03916*
X03404*
X034Y0392*
X03396Y03916*
X03392*
X03396Y03912*
X03392Y03908*
X03396*
X034Y03904*
X02972Y02861D02*
X02976D01*
X0298Y02865*
X02984Y02861*
X02988*
Y02865*
X02984Y02869*
X02988Y02873*
Y02877*
X02984*
X0298Y02873*
X02976Y02877*
X02972*
Y02873*
X02976Y02869*
X02972Y02865*
Y02861*
X03767Y0396D02*
X03775Y03968D01*
X03783Y0396*
X03775Y03952*
X03767Y0396*
X04695Y01714D02*
X04699Y01718D01*
X04703*
X04699Y01722*
X04703Y01726*
X04699*
X04695Y0173*
X04691Y01726*
X04687*
X04691Y01722*
X04687Y01718*
X04691*
X04695Y01714*
X02497Y0194D02*
X02501D01*
X02505Y01944*
X02509Y0194*
X02513*
Y01944*
X02509Y01948*
X02513Y01952*
Y01956*
X02509*
X02505Y01952*
X02501Y01956*
X02497*
Y01952*
X02501Y01948*
X02497Y01944*
Y0194*
X02872Y0196D02*
X02876D01*
X0288Y01964*
X02884Y0196*
X02888*
Y01964*
X02884Y01968*
X02888Y01972*
Y01976*
X02884*
X0288Y01972*
X02876Y01976*
X02872*
Y01972*
X02876Y01968*
X02872Y01964*
Y0196*
X05055Y04117D02*
X05059Y04121D01*
X05063*
X05059Y04125*
X05063Y04129*
X05059*
X05055Y04133*
X05051Y04129*
X05047*
X05051Y04125*
X05047Y04121*
X05051*
X05055Y04117*
Y04121D02*
X05057Y04123D01*
X05059*
X05057Y04125*
X05059Y04127*
X05057*
X05055Y04129*
X05053Y04127*
X05051*
X05053Y04125*
X05051Y04123*
X05053*
X05055Y04121*
X0243Y01102D02*
X02434Y01106D01*
X02438*
X02434Y0111*
X02438Y01114*
X02434*
X0243Y01118*
X02426Y01114*
X02422*
X02426Y0111*
X02422Y01106*
X02426*
X0243Y01102*
Y01106D02*
X02432Y01108D01*
X02434*
X02432Y0111*
X02434Y01112*
X02432*
X0243Y01114*
X02428Y01112*
X02426*
X02428Y0111*
X02426Y01108*
X02428*
X0243Y01106*
X05055Y01102D02*
X05059Y01106D01*
X05063*
X05059Y0111*
X05063Y01114*
X05059*
X05055Y01118*
X05051Y01114*
X05047*
X05051Y0111*
X05047Y01106*
X05051*
X05055Y01102*
Y01106D02*
X05057Y01108D01*
X05059*
X05057Y0111*
X05059Y01112*
X05057*
X05055Y01114*
X05053Y01112*
X05051*
X05053Y0111*
X05051Y01108*
X05053*
X05055Y01106*
X02425Y04137D02*
X02429Y04141D01*
X02433*
X02429Y04145*
X02433Y04149*
X02429*
X02425Y04153*
X02421Y04149*
X02417*
X02421Y04145*
X02417Y04141*
X02421*
X02425Y04137*
Y04141D02*
X02427Y04143D01*
X02429*
X02427Y04145*
X02429Y04147*
X02427*
X02425Y04149*
X02423Y04147*
X02421*
X02423Y04145*
X02421Y04143*
X02423*
X02425Y04141*
G54D53*
X04888Y04105D02*
X04882Y04112D01*
X04873Y04109*
Y041*
X04882Y04097*
X04888Y04105*
X04788D02*
X04782Y04112D01*
X04773Y04109*
Y041*
X04782Y04097*
X04788Y04105*
X04688D02*
X04682Y04112D01*
X04673Y04109*
Y041*
X04682Y04097*
X04688Y04105*
X04588D02*
X04582Y04112D01*
X04573Y04109*
Y041*
X04582Y04097*
X04588Y04105*
X04233Y0297D02*
X04228Y02977D01*
X04219Y02974*
Y02965*
X04228Y02962*
X04233Y0297*
X04662D02*
X04656Y02977D01*
X04647Y02974*
Y02965*
X04656Y02962*
X04662Y0297*
G54D54*
X04229Y0297D02*
X04223Y02973D01*
Y02966*
X04229Y0297*
X04658D02*
X04652Y02973D01*
Y02966*
X04658Y0297*
M02*