%FSTAX23Y23*%
%MOIN*%
%SFA1B1*%

%IPPOS*%
%ADD9500C,0.027600*%
%ADD9501C,0.029500*%
%ADD9502C,0.033500*%
%ADD9503C,0.035400*%
%ADD9504C,0.039000*%
%ADD9505C,0.039400*%
%ADD9506C,0.040200*%
%ADD9507C,0.041300*%
%ADD9508C,0.043300*%
%ADD9509C,0.047200*%
%ADD9510C,0.126000*%
%ADD9511C,0.049200*%
%LNclicguard-1*%
%LPD*%
G54D9500*
X0333Y02043D03*
Y02236D03*
X0288Y01968D03*
Y01771D03*
X02505Y01751D03*
Y01948D03*
X0298Y0277D03*
Y02869D03*
X029Y03501D03*
Y036D03*
G54D9501*
X0441Y02285D03*
Y02584D03*
G54D9502*
X04695Y01722D03*
Y02107D03*
X0445D03*
X04205D03*
Y01722D03*
X0445D03*
X0339Y02632D03*
Y03017D03*
X0319Y03142D03*
Y03527D03*
X034Y03527D03*
X03637Y0357D03*
X04022D03*
X04445Y03612D03*
Y03227D03*
X034Y03912D03*
G54D9503*
X0363Y01865D03*
Y01965D03*
Y02065D03*
Y02165D03*
Y02265D03*
Y02365D03*
Y02465D03*
Y02565D03*
Y02665D03*
Y02765D03*
Y02865D03*
Y02965D03*
Y03065D03*
X0393D03*
Y02965D03*
Y02865D03*
Y02765D03*
Y02665D03*
Y02565D03*
Y02465D03*
Y02365D03*
Y02265D03*
Y02165D03*
Y02065D03*
Y01965D03*
Y01865D03*
Y03165D03*
X0363D03*
G54D9504*
X02487Y02321D03*
Y02498D03*
X02743D03*
Y02321D03*
G54D9505*
X03025Y0396D03*
X03125D03*
X03675D03*
X03775D03*
X04325D03*
X04425D03*
G54D9506*
X0458Y04105D03*
X0468D03*
X0478D03*
X0488D03*
G54D9507*
X04225Y0297D03*
X04654D03*
G54D9508*
X04975Y02665D03*
Y02765D03*
Y02865D03*
Y02965D03*
X0253Y03115D03*
Y03215D03*
Y03315D03*
X0497Y03455D03*
Y03555D03*
Y03655D03*
Y03755D03*
G54D9509*
X02648Y01146D03*
Y01343D03*
X03141D03*
Y01146D03*
X03478D03*
Y01343D03*
X03971D03*
Y01146D03*
X04313D03*
Y01343D03*
X04806D03*
Y01146D03*
X02468Y03746D03*
Y03883D03*
G54D9510*
X0243Y0111D03*
X05055D03*
X02425Y04145D03*
X05055Y04125D03*
G54D9511*
X0478Y0419D03*
M02*