%FSTAX23Y23*%
%MOIN*%
%SFA1B1*%

%IPPOS*%
%ADD10C,0.009840*%
%ADD11C,0.023620*%
%ADD12C,0.007870*%
%ADD13C,0.005910*%
%ADD14C,0.010000*%
%ADD15C,0.006000*%
%LNclicguard-1*%
%LPD*%
G54D10*
X04507Y04104D02*
X045Y04109D01*
Y041*
X04507Y04104*
X02587Y01343D02*
X0258Y01347D01*
Y01339*
X02587Y01343*
X03417D02*
X0341Y01347D01*
Y01339*
X03417Y01343*
X03634Y03216D02*
X03627Y0322D01*
Y03211*
X03634Y03216*
X02578Y03035D02*
X0257Y0304D01*
Y03031*
X02578Y03035*
X04252Y01343D02*
X04245Y01347D01*
Y01339*
X04252Y01343*
X02437Y02498D02*
X02429Y02502D01*
Y02494*
X02437Y02498*
X03334Y02389D02*
X03327Y02393D01*
Y02384*
X03334Y02389*
G54D11*
X03726Y03172D02*
X03722Y03181D01*
X03712Y03184*
X03704Y03177*
Y03167*
X03712Y0316*
X03722Y03163*
X03726Y03172*
G54D12*
X03755Y03211D02*
X03756Y03202D01*
X03762Y03194*
X0377Y03188*
X0378Y03186*
X03789Y03188*
X03797Y03194*
X03803Y03202*
X03805Y03211*
X04462Y04033D02*
X04456Y0404D01*
X04448Y04047*
X04441Y04053*
X04432Y04058*
X04424Y04063*
X04415Y04066*
X04405Y04069*
X04396Y04072*
X04386Y04073*
X04376Y04074*
X04366Y04073*
X04357Y04072*
X04347Y0407*
X04338Y04068*
X04328Y04064*
X0432Y0406*
X04311Y04054*
X04303Y04049*
X04296Y04042*
X04289Y04035*
X04283Y04027*
X04277Y04019*
X04281Y04025D02*
X04276Y04017D01*
X04271Y04008*
X04267Y03999*
X04264Y03989*
X04262Y0398*
X04261Y0397*
X0426Y0396*
X04261Y0395*
X04262Y0394*
X04264Y0393*
X04267Y0392*
X04271Y03911*
X04276Y03902*
X04281Y03894*
X04287Y03886*
X04294Y03879*
X04301Y03872*
X04309Y03866*
X04318Y0386*
X04327Y03856*
X04336Y03852*
X04345Y03849*
X04355Y03847*
X04365Y03846*
X04375Y03845*
X04385Y03846*
X04395Y03847*
X04405Y03849*
X04414Y03852*
X04424Y03856*
X04432Y03861*
X04441Y03867*
X04449Y03873*
X04456Y03879*
X04463Y03887*
X03162Y04033D02*
X03156Y0404D01*
X03148Y04047*
X03141Y04053*
X03132Y04058*
X03124Y04063*
X03115Y04066*
X03105Y04069*
X03096Y04072*
X03086Y04073*
X03076Y04074*
X03066Y04073*
X03057Y04072*
X03047Y0407*
X03038Y04068*
X03028Y04064*
X0302Y0406*
X03011Y04054*
X03003Y04049*
X02996Y04042*
X02989Y04035*
X02983Y04027*
X02977Y04019*
X02981Y04025D02*
X02976Y04017D01*
X02971Y04008*
X02967Y03999*
X02964Y03989*
X02962Y0398*
X02961Y0397*
X0296Y0396*
X02961Y0395*
X02962Y0394*
X02964Y0393*
X02967Y0392*
X02971Y03911*
X02976Y03902*
X02981Y03894*
X02987Y03886*
X02994Y03879*
X03001Y03872*
X03009Y03866*
X03018Y0386*
X03027Y03856*
X03036Y03852*
X03045Y03849*
X03055Y03847*
X03065Y03846*
X03075Y03845*
X03085Y03846*
X03095Y03847*
X03105Y03849*
X03114Y03852*
X03124Y03856*
X03132Y03861*
X03141Y03867*
X03149Y03873*
X03156Y03879*
X03163Y03887*
X03812Y04033D02*
X03806Y0404D01*
X03798Y04047*
X03791Y04053*
X03782Y04058*
X03774Y04063*
X03765Y04066*
X03755Y04069*
X03746Y04072*
X03736Y04073*
X03726Y04074*
X03716Y04073*
X03707Y04072*
X03697Y0407*
X03688Y04068*
X03678Y04064*
X0367Y0406*
X03661Y04054*
X03653Y04049*
X03646Y04042*
X03639Y04035*
X03633Y04027*
X03627Y04019*
X03631Y04025D02*
X03626Y04017D01*
X03621Y04008*
X03617Y03999*
X03614Y03989*
X03612Y0398*
X03611Y0397*
X0361Y0396*
X03611Y0395*
X03612Y0394*
X03614Y0393*
X03617Y0392*
X03621Y03911*
X03626Y03902*
X03631Y03894*
X03637Y03886*
X03644Y03879*
X03651Y03872*
X03659Y03866*
X03668Y0386*
X03677Y03856*
X03686Y03852*
X03695Y03849*
X03705Y03847*
X03715Y03846*
X03725Y03845*
X03735Y03846*
X03745Y03847*
X03755Y03849*
X03764Y03852*
X03774Y03856*
X03782Y03861*
X03791Y03867*
X03799Y03873*
X03806Y03879*
X03813Y03887*
X03389Y01916D02*
X03399Y01918D01*
X03408Y01922*
X03415Y01929*
X03419Y01939*
X03421Y01949*
X03238D02*
X0324Y01939D01*
X03244Y01929*
X03251Y01922*
X0326Y01918*
X0327Y01916*
Y02363D02*
X0326Y02361D01*
X03251Y02357*
X03244Y0235*
X0324Y0234*
X03238Y0233*
X03421D02*
X03419Y0234D01*
X03415Y0235*
X03408Y02357*
X03399Y02361*
X03389Y02363*
X04934Y03971D02*
Y04208D01*
X04525D02*
X04934D01*
X04525Y03971D02*
Y04208D01*
Y03971D02*
X04934D01*
X02654Y01485D02*
X03135D01*
Y01004D02*
Y01095D01*
Y01197D02*
Y01292D01*
Y01394D02*
Y01485D01*
X02654Y01004D02*
X03135D01*
X02654D02*
Y01095D01*
Y01197D02*
Y01292D01*
Y01394D02*
Y01485D01*
X03484D02*
X03965D01*
Y01004D02*
Y01095D01*
Y01197D02*
Y01292D01*
Y01394D02*
Y01485D01*
X03484Y01004D02*
X03965D01*
X03484D02*
Y01095D01*
Y01197D02*
Y01292D01*
Y01394D02*
Y01485D01*
X03675Y01818D02*
X03884D01*
X03805Y03211D02*
X03884D01*
X03675D02*
X03755D01*
X03884Y01818D02*
Y03211D01*
X03675Y01818D02*
Y03211D01*
X0441Y02685D02*
Y02724D01*
X0439Y02704D02*
X04429D01*
X04337Y02916D02*
X04542D01*
X04337D02*
Y03023D01*
X04542*
Y02916D02*
Y03023D01*
Y0297D02*
X04606D01*
X04273D02*
X04337D01*
X04491Y02919D02*
Y0302D01*
X04395Y03282D02*
Y03557D01*
X04494*
Y03282D02*
Y03557D01*
X04395Y03282D02*
X04494D01*
X03692Y03619D02*
X03967D01*
Y0352D02*
Y03619D01*
X03692Y0352D02*
X03967D01*
X03692D02*
Y03619D01*
X0314Y03197D02*
Y03472D01*
X03239*
Y03197D02*
Y03472D01*
X0314Y03197D02*
X03239D01*
X04155Y02052D02*
X04254D01*
X04155Y01777D02*
Y02052D01*
Y01777D02*
X04254D01*
Y02052*
X044Y01777D02*
X04499D01*
Y02052*
X044D02*
X04499D01*
X044Y01777D02*
Y02052D01*
X04917Y0381D02*
X05022D01*
X04917Y03399D02*
Y0381D01*
Y03399D02*
X05022D01*
Y0381*
X04922Y0302D02*
X05027D01*
X04922Y02609D02*
Y0302D01*
Y02609D02*
X05027D01*
Y0302*
X02557Y03657D02*
X02559Y03677D01*
X02577D02*
X02579Y03657D01*
X02557D02*
X02579D01*
X02602Y03677D02*
Y03952D01*
X02327D02*
X02378D01*
X02327Y03677D02*
Y03952D01*
X02577Y03677D02*
X02602D01*
X02327D02*
X02559D01*
X02375Y03972D02*
X02406D01*
X02375D02*
X02378Y03952D01*
X02403D02*
X02602D01*
X02403Y03952D02*
X02406Y03972D01*
X02809Y03457D02*
X0299D01*
X02437Y0301D02*
Y03419D01*
X02417Y0301D02*
X02598D01*
Y03419D01*
X02417D02*
X02598D01*
X02417Y0301D02*
Y03419D01*
X04319Y01394D02*
Y01485D01*
Y01197D02*
Y01292D01*
Y01004D02*
Y01095D01*
Y01004D02*
X048D01*
Y01394D02*
Y01485D01*
Y01197D02*
Y01292D01*
Y01004D02*
Y01095D01*
X04319Y01485D02*
X048D01*
X02738Y02366D02*
Y02453D01*
X02532Y02533D02*
X02697D01*
X02491Y02366D02*
Y02453D01*
X02532Y02286D02*
X02697D01*
X04465Y0389D02*
Y0403D01*
X0334Y02687D02*
X03439D01*
Y02962*
X0334D02*
X03439D01*
X0334Y02687D02*
Y02962D01*
X03165Y0389D02*
Y0403D01*
X0335Y03582D02*
X03449D01*
Y03857*
X0335D02*
X03449D01*
X0335Y03582D02*
Y03857D01*
X02889Y02913D02*
X0307D01*
X03815Y0389D02*
Y0403D01*
X04645Y02052D02*
X04744D01*
X04645Y01777D02*
Y02052D01*
Y01777D02*
X04744D01*
Y02052*
X02455Y01771D02*
X02466D01*
X02543D02*
X02554D01*
Y01928*
X02455D02*
X02466D01*
X02543D02*
X02554D01*
X02455Y01771D02*
Y01928D01*
X0327Y02363D02*
D01*
X03389*
X0327Y01916D02*
X03389D01*
X03421Y01949D02*
Y0233D01*
X03238Y01949D02*
Y0233D01*
X0283Y01791D02*
X02841D01*
X02918D02*
X02929D01*
Y01948*
X0283D02*
X02841D01*
X02918D02*
X02929D01*
X0283Y01791D02*
Y01948D01*
G54D13*
X04646Y02435D02*
X04646Y02445D01*
X04645Y02455*
X04644Y02465*
X04642Y02474*
X0464Y02484*
X04638Y02494*
X04635Y02504*
X04632Y02513*
X04629Y02523*
X04625Y02532*
X0462Y02541*
X04616Y0255*
X04611Y02558*
X04605Y02567*
X04599Y02575*
X04593Y02583*
X04587Y02591*
X0458Y02598*
X04573Y02605*
X04566Y02612*
X04558Y02618*
X0455Y02624*
X04542Y0263*
X04533Y02636*
X04525Y02641*
X04516Y02645*
X04507Y0265*
X04498Y02654*
X04488Y02657*
X04479Y0266*
X04469Y02663*
X04459Y02665*
X04449Y02667*
X0444Y02669*
X0443Y0267*
X0442Y02671*
X0441Y02671*
X04399Y02671*
X04389Y0267*
X0438Y02669*
X0437Y02667*
X0436Y02665*
X0435Y02663*
X0434Y0266*
X04331Y02657*
X04321Y02654*
X04312Y0265*
X04303Y02645*
X04294Y02641*
X04286Y02636*
X04277Y0263*
X04269Y02624*
X04261Y02618*
X04253Y02612*
X04246Y02605*
X04239Y02598*
X04232Y02591*
X04226Y02583*
X0422Y02575*
X04214Y02567*
X04208Y02558*
X04203Y0255*
X04199Y02541*
X04194Y02532*
X0419Y02523*
X04187Y02513*
X04184Y02504*
X04181Y02494*
X04179Y02484*
X04177Y02474*
X04175Y02465*
X04174Y02455*
X04173Y02445*
X04173Y02435*
X04173Y02424*
X04174Y02414*
X04175Y02404*
X04177Y02395*
X04179Y02385*
X04181Y02375*
X04184Y02365*
X04187Y02356*
X0419Y02346*
X04194Y02337*
X04199Y02328*
X04203Y02319*
X04208Y02311*
X04214Y02302*
X0422Y02294*
X04226Y02286*
X04232Y02278*
X04239Y02271*
X04246Y02264*
X04253Y02257*
X04261Y02251*
X04269Y02245*
X04277Y02239*
X04286Y02233*
X04294Y02228*
X04303Y02224*
X04312Y02219*
X04321Y02215*
X04331Y02212*
X0434Y02209*
X0435Y02206*
X0436Y02204*
X0437Y02202*
X0438Y022*
X04389Y02199*
X04399Y02198*
X0441Y02198*
X0442Y02198*
X0443Y02199*
X0444Y022*
X04449Y02202*
X04459Y02204*
X04469Y02206*
X04479Y02209*
X04488Y02212*
X04498Y02215*
X04507Y02219*
X04516Y02224*
X04525Y02228*
X04533Y02233*
X04542Y02239*
X0455Y02245*
X04558Y02251*
X04566Y02257*
X04573Y02264*
X0458Y02271*
X04587Y02278*
X04593Y02286*
X04599Y02294*
X04605Y02302*
X04611Y02311*
X04616Y02319*
X0462Y02328*
X04625Y02337*
X04629Y02346*
X04632Y02356*
X04635Y02365*
X04638Y02375*
X0464Y02385*
X04642Y02395*
X04644Y02405*
X04645Y02414*
X04646Y02424*
X04646Y02435*
X03033Y0355D02*
X03033Y0356D01*
X03032Y0357*
X0303Y0358*
X03027Y0359*
X03024Y03599*
X0302Y03608*
X03015Y03617*
X0301Y03626*
X03004Y03634*
X02998Y03641*
X02991Y03648*
X02983Y03655*
X02975Y03661*
X02966Y03666*
X02958Y03671*
X02948Y03675*
X02939Y03678*
X02929Y03681*
X02919Y03683*
X0291Y03684*
X029Y03684*
X0289Y03684*
X0288Y03683*
X0287Y03681*
X0286Y03678*
X02851Y03675*
X02841Y03671*
X02833Y03666*
X02824Y03661*
X02816Y03655*
X02808Y03648*
X02801Y03641*
X02795Y03634*
X02789Y03626*
X02784Y03617*
X02779Y03608*
X02775Y03599*
X02772Y0359*
X02769Y0358*
X02767Y0357*
X02766Y0356*
X02766Y0355*
X02766Y0354*
X02767Y0353*
X02769Y03521*
X02772Y03511*
X02775Y03501*
X02779Y03492*
X02784Y03483*
X02789Y03475*
X02795Y03467*
X02801Y03459*
X02808Y03452*
X02816Y03446*
X02824Y0344*
X02833Y03434*
X02841Y0343*
X02851Y03426*
X0286Y03422*
X0287Y0342*
X0288Y03418*
X0289Y03417*
X029Y03416*
X0291Y03417*
X02919Y03418*
X02929Y0342*
X02939Y03422*
X02948Y03426*
X02958Y0343*
X02966Y03434*
X02975Y0344*
X02983Y03446*
X02991Y03452*
X02998Y03459*
X03004Y03467*
X0301Y03475*
X03015Y03483*
X0302Y03492*
X03024Y03501*
X03027Y03511*
X0303Y03521*
X03032Y0353*
X03033Y0354*
X03033Y0355*
X03113Y0282D02*
X03113Y0283D01*
X03112Y02839*
X0311Y02849*
X03107Y02859*
X03104Y02868*
X031Y02878*
X03095Y02886*
X0309Y02895*
X03084Y02903*
X03078Y02911*
X03071Y02918*
X03063Y02924*
X03055Y0293*
X03046Y02935*
X03038Y0294*
X03028Y02944*
X03019Y02947*
X03009Y0295*
X02999Y02952*
X0299Y02953*
X0298Y02953*
X0297Y02953*
X0296Y02952*
X0295Y0295*
X0294Y02947*
X02931Y02944*
X02921Y0294*
X02913Y02935*
X02904Y0293*
X02896Y02924*
X02888Y02918*
X02881Y02911*
X02875Y02903*
X02869Y02895*
X02864Y02886*
X02859Y02878*
X02855Y02868*
X02852Y02859*
X02849Y02849*
X02847Y02839*
X02846Y0283*
X02846Y0282*
X02846Y0281*
X02847Y028*
X02849Y0279*
X02852Y0278*
X02855Y02771*
X02859Y02761*
X02864Y02753*
X02869Y02744*
X02875Y02736*
X02881Y02728*
X02888Y02721*
X02896Y02715*
X02904Y02709*
X02913Y02704*
X02921Y02699*
X02931Y02695*
X0294Y02692*
X0295Y02689*
X0296Y02687*
X0297Y02686*
X0298Y02686*
X0299Y02686*
X02999Y02687*
X03009Y02689*
X03019Y02692*
X03028Y02695*
X03038Y02699*
X03046Y02704*
X03055Y02709*
X03063Y02715*
X03071Y02721*
X03078Y02728*
X03084Y02736*
X0309Y02744*
X03095Y02753*
X031Y02761*
X03104Y02771*
X03107Y0278*
X0311Y0279*
X03112Y028*
X03113Y0281*
X03113Y0282*
G54D14*
X05062Y02227D02*
X05045Y02222D01*
X05079Y02222*
X05062Y02227*
X05073Y02239*
X05079Y02256*
X05078Y02267*
X05072Y02284*
X05061Y02295*
X0505Y023*
X05033Y02306*
X05005Y02305*
X04988Y02299*
X04977Y02294*
X04966Y02282*
X0496Y02265*
X0496Y02254*
X04966Y02237*
X04978Y02226*
X04989Y02221*
X05078Y02267D02*
X05073Y02278D01*
X05061Y02289*
X0505Y02295*
X05033Y023*
X05005Y023*
X04988Y02294*
X04977Y02288*
X04966Y02277*
X0496Y02265*
X0508Y02188D02*
X04961Y02187D01*
X0508Y02183D02*
X04962Y02181D01*
X05079Y02205D02*
X0508Y02183D01*
X04961Y02203D02*
X04962Y02164D01*
X0508Y02128D02*
X05075Y02133D01*
X05069Y02127*
X05075Y02122*
X0508Y02128*
X05041Y02127D02*
X04962Y02126D01*
X05041Y02121D02*
X04962Y0212D01*
X05041Y02144D02*
X05041Y02121D01*
X04962Y02143D02*
X04963Y02103D01*
X05026Y02015D02*
X0502Y02021D01*
X05015Y02015*
X0502Y0201*
X05026Y0201*
X05037Y02021*
X05043Y02033*
X05042Y02049*
X05036Y02066*
X05025Y02077*
X05008Y02083*
X04997Y02083*
X0498Y02077*
X04969Y02065*
X04964Y02048*
X04964Y02037*
X0497Y0202*
X04981Y02009*
X05042Y02049D02*
X05036Y02061D01*
X05025Y02072*
X05008Y02077*
X04997Y02077*
X0498Y02071*
X04969Y0206*
X04964Y02048*
X05067Y01914D02*
X0505Y01908D01*
X05084Y01908*
X05067Y01914*
X05078Y01925*
X05083Y01942*
X05083Y01953*
X05077Y0197*
X05066Y01981*
X05054Y01987*
X05038Y01992*
X05009Y01992*
X04993Y01986*
X04981Y0198*
X0497Y01969*
X04965Y01952*
X04965Y0194*
X04971Y01924*
X04983Y01912*
X05083Y01953D02*
X05077Y01965D01*
X05066Y01976*
X05055Y01981*
X05038Y01986*
X0501Y01986*
X04993Y0198*
X04982Y01974*
X0497Y01963*
X04965Y01952*
X05011Y01913D02*
X04966Y01912D01*
X05011Y01907D02*
X04966Y01907D01*
X0501Y0193D02*
X05011Y0189D01*
X05045Y01859D02*
X04983Y01858D01*
X04972Y01852*
X04967Y01835*
X04967Y01824*
X04973Y01807*
X04984Y01796*
X05045Y01853D02*
X04983Y01852D01*
X04972Y01847*
X04967Y01835*
X05046Y01797D02*
X04967Y01796D01*
X05046Y01791D02*
X04968Y0179D01*
X05045Y01876D02*
X05045Y01853D01*
X05046Y01814D02*
X05046Y01791D01*
X04967Y01796D02*
X04968Y01773D01*
X05036Y01748D02*
X0503Y01748D01*
X0503Y01753*
X05036Y01754*
X05041Y01748*
X05047Y01737*
X05047Y01714*
X05042Y01703*
X05036Y01697*
X05025Y01692*
X04986Y01691*
X04975Y01685*
X04969Y01679*
X05036Y01697D02*
X04986Y01697D01*
X04975Y01691*
X04969Y01679*
X04969Y01674*
X05025Y01697D02*
X05019Y01703D01*
X05013Y01736*
X05007Y01753*
X04996Y01759*
X04985Y01758*
X04974Y01753*
X04968Y01736*
X04969Y01719*
X04974Y01708*
X04986Y01697*
X05013Y01736D02*
X05008Y01748D01*
X04996Y01753*
X04985Y01753*
X04974Y01747*
X04968Y01736*
X05049Y01641D02*
X0497Y0164D01*
X05049Y01636D02*
X0497Y01634D01*
X05015Y01635D02*
X05032Y0163D01*
X05043Y01619*
X05049Y01608*
X05049Y01591*
X05044Y01585*
X05038Y01585*
X05032Y0159*
X05038Y01596*
X05044Y01591*
X05048Y01658D02*
X05049Y01636D01*
X0497Y01657D02*
X0497Y01618D01*
X0509Y015D02*
X04972Y01498D01*
X0509Y01495D02*
X04972Y01493D01*
X05034Y01499D02*
X05045Y01511D01*
X0505Y01522*
X0505Y01533*
X05044Y0155*
X05033Y01561*
X05016Y01567*
X05005Y01566*
X04988Y01561*
X04977Y01549*
X04971Y01532*
X04972Y01521*
X04977Y0151*
X04989Y01499*
X0505Y01533D02*
X05044Y01544D01*
X05033Y01556*
X05016Y01561*
X05005Y01561*
X04988Y01555*
X04977Y01543*
X04971Y01532*
X0509Y01517D02*
X0509Y01495D01*
X04972Y01498D02*
X04972Y01476D01*
X02416Y01633D02*
X02425Y0163D01*
X02408Y0163*
X02416Y01633*
X02422Y01639*
X02425Y01647*
X02425Y01656*
X02422Y01664*
X02416Y0167*
X0241Y0167*
X02405Y01667*
X02402Y01664*
X02399Y01659*
X02393Y01641*
X02391Y01636*
X02385Y0163*
X0241Y0167D02*
X02405Y01664D01*
X02402Y01659*
X02396Y01641*
X02394Y01636*
X02391Y01633*
X02385Y0163*
X02374Y0163*
X02368Y01635*
X02365Y01644*
X02365Y01652*
X02368Y01661*
X02373Y01667*
X02382Y0167*
X02365Y0167*
X02373Y01667*
X02399Y01615D02*
X02397Y01615D01*
X02397Y01618*
X02399Y01618*
X02402Y01615*
X02405Y0161*
X02405Y01598*
X02403Y01593*
X024Y0159*
X02394Y01587*
X02374Y01587*
X02368Y01584*
X02366Y01581*
X024Y0159D02*
X02374Y01589D01*
X02368Y01587*
X02366Y01581*
X02366Y01578*
X02394Y0159D02*
X02391Y01592D01*
X02388Y0161*
X02385Y01618*
X02379Y01621*
X02374Y01621*
X02368Y01618*
X02365Y01609*
X02365Y01601*
X02368Y01595*
X02374Y01589*
X02388Y0161D02*
X02385Y01615D01*
X02379Y01618*
X02374Y01618*
X02368Y01615*
X02365Y01609*
X02426Y01561D02*
X02423Y01564D01*
X0242Y01561*
X02423Y01559*
X02426Y01561*
X02406Y01561D02*
X02366Y01561D01*
X02406Y01558D02*
X02366Y01558D01*
X02406Y0157D02*
X02406Y01558D01*
X02366Y01569D02*
X02366Y01549D01*
X02406Y0153D02*
X02366Y0153D01*
X02406Y01527D02*
X02366Y01527D01*
X02389Y01527D02*
X02398Y01525D01*
X02403Y01519*
X02406Y01513*
X02406Y01505*
X02403Y01502*
X02401Y01502*
X02398Y01505*
X02401Y01507*
X02403Y01505*
X02406Y01539D02*
X02406Y01527D01*
X02366Y01539D02*
X02366Y01519D01*
X02426Y01484D02*
X02424Y01487D01*
X02421Y01484*
X02424Y01481*
X02426Y01484*
X02406Y01484D02*
X02367Y01484D01*
X02407Y01481D02*
X02367Y01481D01*
X02406Y01493D02*
X02407Y01481D01*
X02366Y01492D02*
X02367Y01472D01*
X02401Y01433D02*
X02407Y0143D01*
X02396Y0143*
X02401Y01433*
X02404Y01436*
X02407Y01442*
X02407Y01453*
X02404Y01459*
X02401Y01462*
X02395Y01462*
X02392Y01459*
X0239Y01453*
X02384Y01439*
X02381Y01433*
X02378Y0143*
X02398Y01462D02*
X02395Y01459D01*
X02393Y01453*
X02387Y01439*
X02384Y01433*
X02381Y0143*
X02373Y0143*
X0237Y01433*
X02367Y01439*
X02367Y0145*
X0237Y01456*
X02372Y01459*
X02378Y01461*
X02367Y01461*
X02372Y01459*
X02401Y01415D02*
X02399Y01415D01*
X02399Y01418*
X02401Y01418*
X02404Y01415*
X02407Y01409*
X02407Y01398*
X02405Y01392*
X02402Y01389*
X02396Y01386*
X02376Y01386*
X0237Y01383*
X02368Y0138*
X02402Y01389D02*
X02376Y01389D01*
X0237Y01386*
X02368Y0138*
X02368Y01377*
X02396Y01389D02*
X02393Y01392D01*
X0239Y01409*
X02387Y01418*
X02381Y0142*
X02376Y0142*
X0237Y01417*
X02367Y01409*
X02367Y014*
X0237Y01395*
X02376Y01389*
X0239Y01409D02*
X02387Y01415D01*
X02381Y01418*
X02376Y01417*
X0237Y01415*
X02367Y01409*
X02408Y01361D02*
X02368Y0136D01*
X02408Y01358D02*
X02368Y01357D01*
X02399Y01358D02*
X02405Y01352D01*
X02408Y01344*
X02408Y01338*
X02405Y01329*
X024Y01326*
X02368Y01326*
X02408Y01338D02*
X02405Y01332D01*
X024Y01329*
X02368Y01329*
X02408Y01369D02*
X02408Y01358D01*
X02368Y01369D02*
X02368Y01349D01*
X02368Y01337D02*
X02368Y01317D01*
X03606Y03315D02*
Y03266D01*
X03616Y03256*
X03635*
X03645Y03266*
Y03315*
X03665Y03256D02*
X03685D01*
X03675*
Y03315*
X03665Y03305*
X0431Y02479D02*
Y0242D01*
X0434*
X0435Y0243*
Y0244*
X0434Y0245*
X0431*
X0434*
X0435Y0246*
Y02469*
X0434Y02479*
X0431*
X0437D02*
Y0243D01*
X0438Y0242*
X044*
X0441Y0243*
Y02479*
X04429D02*
X04469D01*
Y02469*
X04429Y0243*
Y0242*
X04469*
X04489D02*
X04509D01*
X04499*
Y02479*
X04489Y02469*
X03616Y03654D02*
Y03713D01*
X03645*
X03655Y03703*
Y03683*
X03645Y03673*
X03616*
X03635D02*
X03655Y03654D01*
X03715Y03713D02*
X03675D01*
Y03683*
X03695Y03693*
X03705*
X03715Y03683*
Y03664*
X03705Y03654*
X03685*
X03675Y03664*
X02471Y02621D02*
X02461Y02631D01*
X02442*
X02432Y02621*
Y02611*
X02442Y02601*
X02461*
X02471Y02591*
Y02582*
X02461Y02572*
X02442*
X02432Y02582*
X02491Y02572D02*
X02511D01*
X02501*
Y02631*
X02491Y02621*
X02956Y04179D02*
Y0412D01*
X02985*
X02995Y0413*
Y04169*
X02985Y04179*
X02956*
X03015Y0412D02*
X03035D01*
X03025*
Y04179*
X03015Y04169*
X03452Y01572D02*
X03442Y01582D01*
X03423*
X03413Y01572*
Y01562*
X03423Y01552*
X03442*
X03452Y01542*
Y01533*
X03442Y01523*
X03423*
X03413Y01533*
X03472Y01572D02*
X03482Y01582D01*
X03502*
X03512Y01572*
Y01562*
X03502Y01552*
X03492*
X03502*
X03512Y01542*
Y01533*
X03502Y01523*
X03482*
X03472Y01533*
X0252Y04049D02*
X025D01*
X0251*
Y04*
X025Y0399*
X0249*
X0248Y04*
X02569Y0399D02*
Y04049D01*
X0254Y0402*
X02579*
X04965Y03109D02*
X04945D01*
X04955*
Y0306*
X04945Y0305*
X04935*
X04925Y0306*
X05024Y0305D02*
X04985D01*
X05024Y0309*
Y03099*
X05014Y03109*
X04994*
X04985Y03099*
X0496Y03909D02*
X0494D01*
X0495*
Y0386*
X0494Y0385*
X0493*
X0492Y0386*
X0498Y03899D02*
X04989Y03909D01*
X05009*
X05019Y03899*
Y0389*
X05009Y0388*
X04999*
X05009*
X05019Y0387*
Y0386*
X05009Y0385*
X04989*
X0498Y0386*
X0252Y02964D02*
Y02915D01*
X0253Y02905*
X0255*
X0256Y02915*
Y02964*
X02619Y02905D02*
X0258D01*
X02619Y02945*
Y02954*
X02609Y02964*
X02589*
X0258Y02954*
X04197Y0312D02*
Y03061D01*
X04226*
X04236Y03071*
Y0311*
X04226Y0312*
X04197*
X04286Y03061D02*
Y0312D01*
X04256Y0309*
X04296*
X03606Y04179D02*
Y0412D01*
X03635*
X03645Y0413*
Y04169*
X03635Y04179*
X03606*
X03705Y0412D02*
X03665D01*
X03705Y04159*
Y04169*
X03695Y04179*
X03675*
X03665Y04169*
X04256Y04179D02*
Y0412D01*
X04285*
X04295Y0413*
Y04169*
X04285Y04179*
X04256*
X04315Y04169D02*
X04325Y04179D01*
X04345*
X04355Y04169*
Y04159*
X04345Y04149*
X04335*
X04345*
X04355Y04139*
Y0413*
X04345Y0412*
X04325*
X04315Y0413*
X02622Y01572D02*
X02612Y01582D01*
X02593*
X02583Y01572*
Y01562*
X02593Y01552*
X02612*
X02622Y01542*
Y01533*
X02612Y01523*
X02593*
X02583Y01533*
X02682Y01523D02*
X02642D01*
X02682Y01562*
Y01572*
X02672Y01582*
X02652*
X02642Y01572*
X04545Y01579D02*
X04535Y01589D01*
X04515*
X04505Y01579*
Y0157*
X04515Y0156*
X04535*
X04545Y0155*
Y0154*
X04535Y0153*
X04515*
X04505Y0154*
X04594Y0153D02*
Y01589D01*
X04565Y0156*
X04604*
X03356Y03974D02*
Y04033D01*
X03385*
X03395Y04023*
Y04003*
X03385Y03993*
X03356*
X03375D02*
X03395Y03974D01*
X03415Y04023D02*
X03425Y04033D01*
X03445*
X03455Y04023*
Y04013*
X03445Y04003*
X03435*
X03445*
X03455Y03993*
Y03984*
X03445Y03974*
X03425*
X03415Y03984*
X02497Y02059D02*
X02487Y02069D01*
X02468*
X02458Y02059*
Y0202*
X02468Y0201*
X02487*
X02497Y0202*
X02517Y02059D02*
X02527Y02069D01*
X02547*
X02557Y02059*
Y02049*
X02547Y02039*
X02537*
X02547*
X02557Y02029*
Y0202*
X02547Y0201*
X02527*
X02517Y0202*
X02872Y02079D02*
X02862Y02089D01*
X02843*
X02833Y02079*
Y0204*
X02843Y0203*
X02862*
X02872Y0204*
X02922Y0203D02*
Y02089D01*
X02892Y02059*
X02932*
X03244Y02488D02*
Y02478D01*
X03263Y02458*
X03283Y02478*
Y02488*
X03263Y02458D02*
Y02429D01*
X03303D02*
X03323D01*
X03313*
Y02488*
X03303Y02478*
X02905Y0377D02*
X02895Y0378D01*
X02875*
X02865Y0377*
Y0373*
X02875Y0372*
X02895*
X02905Y0373*
X02924Y0372D02*
X02944D01*
X02934*
Y0378*
X02924Y0377*
X02887Y03041D02*
X02877Y03051D01*
X02858*
X02848Y03041*
Y03002*
X02858Y02992*
X02877*
X02887Y03002*
X02947Y02992D02*
X02907D01*
X02947Y03031*
Y03041*
X02937Y03051*
X02917*
X02907Y03041*
X04651Y02169D02*
Y02228D01*
X0468*
X0469Y02218*
Y02198*
X0468Y02188*
X04651*
X0467D02*
X0469Y02169D01*
X0471Y02218D02*
X0472Y02228D01*
X0474*
X0475Y02218*
Y02208*
X0474Y02198*
X0475Y02188*
Y02179*
X0474Y02169*
X0472*
X0471Y02179*
Y02188*
X0472Y02198*
X0471Y02208*
Y02218*
X0472Y02198D02*
X0474D01*
X03995Y01705D02*
Y01764D01*
X04025*
X04035Y01754*
Y01735*
X04025Y01725*
X03995*
X04015D02*
X04035Y01705D01*
X04094Y01764D02*
X04074Y01754D01*
X04055Y01735*
Y01715*
X04064Y01705*
X04084*
X04094Y01715*
Y01725*
X04084Y01735*
X04055*
X04295Y01695D02*
Y01754D01*
X04325*
X04335Y01744*
Y01725*
X04325Y01715*
X04295*
X04315D02*
X04335Y01695D01*
X04355Y01754D02*
X04394D01*
Y01744*
X04355Y01705*
Y01695*
X04401Y03674D02*
Y03733D01*
X0443*
X0444Y03723*
Y03703*
X0443Y03693*
X04401*
X0442D02*
X0444Y03674D01*
X045D02*
X0446D01*
X045Y03713*
Y03723*
X0449Y03733*
X0447*
X0446Y03723*
X03146Y03589D02*
Y03648D01*
X03175*
X03185Y03638*
Y03618*
X03175Y03608*
X03146*
X03165D02*
X03185Y03589D01*
X03205D02*
X03225D01*
X03215*
Y03648*
X03205Y03638*
X03346Y03079D02*
Y03138D01*
X03375*
X03385Y03128*
Y03108*
X03375Y03098*
X03346*
X03365D02*
X03385Y03079D01*
X03435D02*
Y03138D01*
X03405Y03108*
X03445*
G54D15*
X04495Y03974D02*
Y03945D01*
Y03955*
X04514Y03974*
X045Y0396*
X04514Y03945*
X03195Y03974D02*
Y03945D01*
Y03955*
X03214Y03974*
X032Y0396*
X03214Y03945*
X03845Y03974D02*
Y03945D01*
Y03955*
X03864Y03974*
X0385Y0396*
X03864Y03945*
M02*