%FSTAX23Y23*%
%MOIN*%
%SFA1B1*%

%IPPOS*%
%ADD16C,0.049210*%
%ADD17C,0.061810*%
%ADD18R,0.061810X0.061810*%
%ADD19R,0.072840X0.072840*%
%ADD20C,0.061150*%
%ADD21C,0.072840*%
%ADD22C,0.067060*%
%ADD23R,0.055240X0.055240*%
%ADD24R,0.047240X0.047240*%
%ADD25C,0.055240*%
%ADD26C,0.070990*%
%ADD27R,0.067060X0.067060*%
%ADD28R,0.070990X0.070990*%
%ADD29C,0.062990*%
%ADD30C,0.074930*%
%ADD31C,0.047240*%
%ADD32C,0.060630*%
%ADD33R,0.049210X0.049210*%
%ADD34R,0.062990X0.062990*%
%ADD35C,0.078870*%
%ADD36R,0.078870X0.078870*%
%ADD37R,0.074930X0.074930*%
%ADD38R,0.060630X0.060630*%
%ADD39C,0.165480*%
%LNclicguard-1*%
%LPD*%
G54D16*
X0478Y0419D03*
X0441Y02584D03*
G54D17*
X0488Y04105D03*
X0478D03*
X0468D03*
G54D18*
X0458Y04105D03*
G54D19*
X02648Y01343D03*
X03478D03*
X04313D03*
G54D20*
X04205Y01722D03*
X04695Y02107D03*
X0339Y03017D03*
X03637Y0357D03*
X0445Y01722D03*
X0319Y03527D03*
X04445Y03227D03*
X0339Y02632D03*
X034Y03527D03*
X0319Y03142D03*
X04205Y02107D03*
X04445Y03612D03*
X04022Y0357D03*
X0445Y02107D03*
X034Y03912D03*
X04695Y01722D03*
G54D21*
X03141Y01343D03*
X04806D03*
X03971D03*
X04806Y01146D03*
X03971D03*
X03141D03*
X02648D03*
X03478D03*
X04313D03*
G54D22*
X0363Y02165D03*
Y02865D03*
X0393Y02665D03*
X0363Y02365D03*
Y02265D03*
X0393Y02765D03*
X0363Y02965D03*
Y03065D03*
Y02765D03*
Y02665D03*
X0393Y03065D03*
Y03165D03*
Y01865D03*
X0363Y02065D03*
X0393Y02965D03*
Y02465D03*
X0363Y02565D03*
X0393Y02365D03*
Y01965D03*
Y02065D03*
Y02165D03*
Y02265D03*
Y02565D03*
Y02865D03*
X0363Y01865D03*
Y01965D03*
Y02465D03*
G54D23*
X0333Y02236D03*
G54D24*
X02505Y01751D03*
X0288Y01771D03*
X029Y03501D03*
X0298Y02869D03*
G54D25*
X0333Y02043D03*
G54D26*
X03675Y0396D03*
X04975Y02865D03*
Y02965D03*
X0497Y03655D03*
Y03755D03*
Y03555D03*
X04975Y02765D03*
X04425Y0396D03*
X04325D03*
X03125D03*
X03025D03*
X03775D03*
G54D27*
X0363Y03165D03*
G54D28*
X0497Y03455D03*
X04975Y02665D03*
G54D29*
X04225Y0297D03*
G54D30*
X0253Y03315D03*
Y03215D03*
G54D31*
X0298Y0277D03*
X029Y036D03*
X02505Y01948D03*
X0288Y01968D03*
G54D32*
X02742Y02321D03*
X02487D03*
X02742Y02498D03*
G54D33*
X0441Y02285D03*
G54D34*
X04654Y0297D03*
G54D35*
X02468Y03746D03*
G54D36*
X02468Y03883D03*
G54D37*
X0253Y03115D03*
G54D38*
X02487Y02498D03*
G54D39*
X05055Y04125D03*
X0243Y0111D03*
X05055D03*
X02425Y04145D03*
M02*