%FSTAX23Y23*%
%MOIN*%
%SFA1B1*%

%IPPOS*%
%ADD16C,0.049210*%
%ADD17C,0.061810*%
%ADD18R,0.061810X0.061810*%
%ADD19R,0.072840X0.072840*%
%ADD21C,0.072840*%
%ADD24R,0.047240X0.047240*%
%ADD29C,0.062990*%
%ADD31C,0.047240*%
%ADD32C,0.060630*%
%ADD33R,0.049210X0.049210*%
%ADD34R,0.062990X0.062990*%
%ADD38R,0.060630X0.060630*%
%ADD40C,0.015750*%
%ADD41C,0.053150*%
%ADD42C,0.059060*%
%ADD43R,0.059060X0.059060*%
%ADD44R,0.062990X0.062990*%
%ADD45C,0.066930*%
%ADD46C,0.070870*%
%ADD47R,0.070870X0.070870*%
%ADD48R,0.066930X0.066930*%
%ADD49C,0.157480*%
%LNclicguard-1*%
%LPD*%
G36*
X05165Y0101D02*
X0516Y01005D01*
X02315*
Y04255*
X05165*
Y0101*
G37*
%LNclicguard-2*%
%LPC*%
G36*
X04784Y04224D02*
X04775D01*
X04766Y04222*
X04758Y04217*
X04752Y04211*
X04747Y04203*
X04745Y04194*
Y04185*
X04747Y04176*
X04752Y04168*
X04758Y04162*
X04766Y04157*
X04775Y04155*
X04784*
X04793Y04157*
X04801Y04162*
X04807Y04168*
X04812Y04176*
X04814Y04185*
Y04194*
X04812Y04203*
X04807Y04211*
X04801Y04217*
X04793Y04222*
X04784Y04224*
G37*
G36*
X04885Y04145D02*
X04874D01*
X04864Y04143*
X04854Y04137*
X04847Y0413*
X04841Y0412*
X04839Y0411*
Y04099*
X04841Y04089*
X04847Y04079*
X04854Y04072*
X04864Y04066*
X04874Y04064*
X04885*
X04895Y04066*
X04905Y04072*
X04912Y04079*
X04918Y04089*
X0492Y04099*
Y0411*
X04918Y0412*
X04912Y0413*
X04905Y04137*
X04895Y04143*
X04885Y04145*
G37*
G36*
X047Y04172D02*
D01*
X04628*
X04621Y0417*
X04615Y04166*
X04595Y04145*
X04539*
Y04064*
X04606*
X04608Y04059*
X04527Y03978*
X04462*
X04458Y03985*
X0445Y03993*
X04441Y03998*
X0443Y04001*
X0443*
Y0396*
X04425*
Y03955*
X04383*
Y03954*
X04386Y03943*
X04391Y03934*
X04399Y03926*
X04406Y03922*
Y03643*
X04408Y03636*
X04412Y0363*
X04412Y03629*
X0441Y03627*
X04408Y03617*
X04445*
X04481*
X04479Y03627*
X04474Y03635*
X04467Y03642*
X04459Y03647*
X04449Y03649*
X04444*
X04443Y0365*
Y03922*
X0445Y03926*
X04458Y03934*
X04462Y03941*
X04535*
X04541Y03943*
X04547Y03947*
X04666Y04066*
X04674Y04064*
X04675*
Y04105*
X04685*
Y04064*
X04685*
X04695Y04066*
X04705Y04072*
X04708Y04075*
X04713Y04073*
Y03823*
X04714Y03816*
X04718Y03811*
X04936Y03592*
X04939Y0359*
X0494Y03584*
X04936Y0358*
X04932Y03573*
X0451*
X0448Y03603*
X04481Y03607*
X0445*
Y03576*
X04454Y03577*
X0449Y03542*
X04495Y03538*
X04502Y03536*
X04932*
X04936Y03529*
X04939Y03527*
X04937Y03522*
X04931*
X04924Y03521*
X04918Y03517*
X04664Y03263*
X0466Y03257*
X04659Y0325*
Y03011*
X04612*
Y02928*
X04695*
Y02991*
X04695Y02993*
Y03243*
X04923Y03471*
X04928Y03469*
Y03413*
X04985*
X05006Y03393*
Y02999*
X05001Y02997*
X05Y02998*
X04991Y03003*
X0498Y03006*
X04969*
X04958Y03003*
X04949Y02998*
X04941Y0299*
X04936Y02981*
X04933Y0297*
Y02959*
X04936Y02948*
X04941Y02939*
X04949Y02931*
X04958Y02926*
X04969Y02923*
X0498*
X04991Y02926*
X05Y02931*
X05001Y02932*
X05006Y0293*
Y02899*
X05001Y02897*
X05Y02898*
X04991Y02903*
X0498Y02906*
X04969*
X04958Y02903*
X04949Y02898*
X04941Y0289*
X04937Y02883*
X04509*
X04503Y02881*
X04497Y02877*
X04355Y02735*
X03963*
X03961Y0274*
X03961Y0274*
X03966Y02749*
X03969Y02759*
Y0277*
X03967Y02776*
X04016Y02825*
X04019Y02831*
X04021Y02838*
Y03276*
X04019Y03283*
X04016Y03289*
X03693Y03612*
Y03922*
X037Y03926*
X03708Y03934*
X03713Y03943*
X03716Y03954*
Y03965*
X03713Y03976*
X03708Y03985*
X03707Y03986*
X03709Y03991*
X03718*
X03735Y03973*
X03733Y03965*
Y03965*
X0377*
Y04001*
X03769*
X03761Y03999*
X03738Y04022*
X03732Y04026*
X03725Y04027*
X0358*
X03573Y04026*
X03567Y04022*
X03434Y03889*
X0343Y03892*
X03434Y03898*
X03436Y03908*
Y03917*
X03434Y03927*
X03429Y03935*
X03422Y03942*
X03414Y03947*
X03404Y03949*
X03395*
X0339Y03948*
X03316Y04022*
X0331Y04026*
X03303Y04027*
X03074*
X03067Y04026*
X03061Y04022*
X03038Y03999*
X0303Y04001*
X03019*
X03008Y03998*
X02999Y03993*
X02991Y03985*
X02986Y03976*
X02983Y03965*
Y03954*
X02986Y03943*
X02991Y03934*
X02999Y03926*
X03008Y03921*
X03019Y03918*
X0303*
X03041Y03921*
X0305Y03926*
X03058Y03934*
X03063Y03943*
X03066Y03954*
Y03965*
X03064Y03973*
X03081Y03991*
X0309*
X03092Y03986*
X03091Y03985*
X03086Y03976*
X03083Y03965*
Y03965*
X03125*
Y03955*
X03083*
Y03954*
X03086Y03943*
X03091Y03934*
X03099Y03926*
X03106Y03922*
Y03734*
X02964Y03591*
X02959Y03593*
Y03617*
X02958Y03624*
X02954Y0363*
X0286Y03723*
X02854Y03727*
X02847Y03729*
X02649*
X02514Y03864*
Y03878*
X02468*
X02423*
Y03838*
X0245*
Y03829*
X02402Y03781*
X02398Y03775*
X02397Y03768*
Y03137*
X02398Y0313*
X02402Y03124*
X02476Y0305*
X02482Y03046*
X02489Y03045*
X0257*
X02577Y03046*
X02583Y0305*
X02594Y03061*
X02598Y03067*
X02599Y03074*
Y03163*
X02598Y0317*
X02594Y03176*
X02578Y03192*
X0258Y03196*
X02586*
X02734Y03047*
X0274Y03043*
X02747Y03042*
X02828*
X02961Y02908*
Y02902*
X02946*
Y02874*
X0298*
X03013*
Y02902*
X02998*
Y02916*
X02996Y02923*
X02992Y02929*
X02848Y03073*
X02842Y03077*
X02835Y03079*
X02755*
X02715Y03119*
X02717Y03123*
X03158*
X0316Y03119*
X03167Y03112*
X03171Y0311*
Y02988*
X03018Y02834*
X03013Y02837*
Y02839*
Y02864*
X02985*
Y02835*
X03008*
X03011*
X03014Y0283*
X02987Y02803*
X02984Y02804*
X02975*
X02967Y02802*
X02959Y02797*
X02953Y02791*
X02951Y02789*
X02868*
X02861Y02787*
X02855Y02783*
X02532Y0246*
X02527Y02462*
Y02538*
X02446*
Y02458*
X02522*
X02524Y02453*
X02425Y02354*
X02422Y02348*
X0242Y02341*
Y02301*
X02422Y02294*
X02425Y02288*
X02454Y0226*
X0246Y02256*
X02467Y02255*
X02574*
X02581Y02256*
X02587Y0226*
X0263Y02303*
X02706*
X0271Y02296*
X02718Y02289*
X02727Y02283*
X02737Y02281*
X02748*
X02758Y02283*
X02767Y02289*
X02775Y02296*
X0278Y02305*
X02783Y02316*
Y02326*
X0278Y02336*
X02775Y02346*
X02767Y02353*
X02758Y02358*
X02748Y02361*
X02737*
X02727Y02358*
X02718Y02353*
X0271Y02346*
X02706Y02339*
X02623*
X02616Y02338*
X0261Y02334*
X02567Y02291*
X0252*
X02518Y02296*
X02519Y02296*
X02524Y02305*
X02527Y02316*
Y02326*
X02525Y02334*
X02698Y02507*
X02702Y02504*
X02702Y02503*
Y02503*
X02737*
Y02538*
X02737*
X02736Y02538*
X02734Y02543*
X02805Y02613*
X03358*
X0336Y02609*
X03367Y02602*
X03375Y02598*
X03385Y02595*
X03394*
X03404Y02598*
X03412Y02602*
X03419Y02609*
X03424Y02617*
X03426Y02625*
X03431Y02628*
X03447Y02612*
Y02562*
X03448Y02555*
X03452Y02549*
X03597Y02404*
X03603Y024*
X03603Y024*
X03604Y02395*
X03598Y02389*
X03593Y0238*
X0359Y0237*
Y02359*
X03592Y02353*
X03493Y02254*
X03363*
Y02269*
X03296*
Y02254*
X03206*
X03199Y02252*
X03193Y02248*
X03193*
X02918Y01973*
X02912Y01975*
X02911Y01981*
X02906Y01989*
X029Y01995*
X02898Y01996*
Y02361*
X02896Y02368*
X02892Y02374*
X02781Y02485*
X02783Y02493*
Y02493*
X02747*
Y02458*
X02748*
X02755Y0246*
X02861Y02353*
Y01996*
X02859Y01995*
X02853Y01989*
X02848Y01981*
X02846Y01972*
Y0197*
X0253*
X02525Y01975*
X02517Y01979*
X0251Y01981*
Y01948*
Y01914*
X02517Y01917*
X02525Y01921*
X02531Y01927*
X02535Y01934*
X02655*
X02657Y01929*
X02512Y01785*
X02471*
Y01717*
X02538*
Y01759*
X02687Y01908*
X02897*
X02904Y0191*
X0291Y01914*
X03213Y02217*
X03296*
Y02202*
X03363*
Y02217*
X03501*
X03508Y02219*
X03513Y02223*
X03618Y02327*
X03624Y02325*
X03635*
X03645Y02328*
X03654Y02333*
X03661Y0234*
X03666Y02349*
X03669Y02359*
Y0237*
X03666Y0238*
X03661Y02389*
X03655Y02395*
X03656Y024*
X03656Y024*
X03662Y02404*
X0369Y02432*
X03694Y02438*
X03695Y02445*
Y02467*
X037Y02468*
X03717Y02452*
X03723Y02448*
X0373Y02446*
X03894*
X03898Y0244*
X03905Y02433*
X03911Y02429*
Y024*
X03905Y02396*
X03898Y02389*
X03893Y0238*
X0389Y0237*
Y02359*
X03893Y02349*
X03898Y0234*
X03903Y02335*
X03902Y02329*
X039Y02327*
X03869Y02297*
X03865Y02291*
X03864Y02284*
Y01912*
X03865Y01905*
X03869Y01899*
X03892Y01876*
X0389Y0187*
Y01859*
X03893Y01849*
X03898Y0184*
X03905Y01833*
X03914Y01828*
X03924Y01825*
X03935*
X03945Y01828*
X03954Y01833*
X03961Y0184*
X03966Y01849*
X03969Y01859*
Y0187*
X03966Y0188*
X03961Y01889*
X03954Y01896*
X03945Y01901*
X03935Y01904*
X03924*
X03918Y01902*
X039Y01919*
Y01931*
X03905Y01933*
X03905Y01933*
X03914Y01928*
X03924Y01925*
X03935*
X03945Y01928*
X03954Y01933*
X03961Y0194*
X03966Y01949*
X03969Y01959*
Y0197*
X03966Y0198*
X03961Y01989*
X03954Y01996*
X03945Y02001*
X03935Y02004*
X03924*
X03914Y02001*
X03905Y01996*
X03905Y01996*
X039Y01998*
Y02031*
X03905Y02033*
X03905Y02033*
X03914Y02028*
X03924Y02025*
X03935*
X03945Y02028*
X03954Y02033*
X03961Y0204*
X03966Y02049*
X03969Y02059*
Y0207*
X03966Y0208*
X03961Y02089*
X03954Y02096*
X03945Y02101*
X03935Y02104*
X03924*
X03914Y02101*
X03905Y02096*
X03905Y02096*
X039Y02098*
Y02131*
X03905Y02133*
X03905Y02133*
X03914Y02128*
X03924Y02125*
X03935*
X03945Y02128*
X03954Y02133*
X03961Y0214*
X03966Y02149*
X03969Y02159*
Y0217*
X03966Y0218*
X03961Y02189*
X03954Y02196*
X03945Y02201*
X03935Y02204*
X03924*
X03914Y02201*
X03905Y02196*
X03905Y02196*
X039Y02198*
Y02231*
X03905Y02233*
X03905Y02233*
X03914Y02228*
X03924Y02225*
X03935*
X03945Y02228*
X03954Y02233*
X03961Y0224*
X03966Y02249*
X03969Y02259*
Y0227*
X03966Y0228*
X03961Y02289*
X03956Y02294*
X03957Y023*
X03959Y02302*
X0399Y02332*
X03994Y02338*
X03995Y02345*
Y0257*
X04Y02572*
X04Y02571*
X04006Y02567*
X04013Y02566*
X0438*
X04382Y02563*
X04388Y02556*
X04396Y02552*
X04405Y0255*
X04414*
X04423Y02552*
X04431Y02556*
X04437Y02563*
X04442Y02571*
X04444Y0258*
Y02589*
X04442Y02597*
X04437Y02605*
X04431Y02612*
X04423Y02616*
X04414Y02619*
X04405*
X04396Y02616*
X04388Y02612*
X04382Y02605*
X0438Y02602*
X04021*
X03968Y02655*
X03969Y02659*
Y0267*
X03966Y0268*
X03961Y02689*
X03956Y02694*
X03958Y02699*
X04362*
X04369Y027*
X04375Y02704*
X04517Y02846*
X04937*
X04941Y02839*
X04949Y02831*
X04958Y02826*
X04969Y02823*
X0498*
X04991Y02826*
X05Y02831*
X05001Y02832*
X05006Y0283*
Y02799*
X05001Y02797*
X05Y02798*
X04991Y02803*
X0498Y02806*
X0498*
Y02765*
Y02723*
X0498*
X04991Y02726*
X05Y02731*
X05001Y02732*
X05006Y0273*
Y02721*
X0499Y02706*
X04933*
Y02623*
X05016*
Y0268*
X05037Y02701*
X05041Y02707*
X05042Y02714*
Y034*
X05041Y03407*
X05037Y03413*
X05011Y03439*
Y03496*
X0501Y03499*
X05032Y03521*
X05036Y03527*
X05037Y03534*
Y03575*
X05036Y03582*
X05032Y03588*
X05002Y03618*
X05Y03619*
X04999Y03626*
X05003Y03629*
X05008Y03638*
X05011Y03649*
Y0366*
X05008Y03671*
X05003Y0368*
X04995Y03688*
X04986Y03693*
X04975Y03696*
X04964*
X04953Y03693*
X04944Y03688*
X04936Y0368*
X04931Y03671*
X04928Y0366*
Y03658*
X04923Y03657*
X04749Y03831*
Y04071*
X04754Y04073*
X04754Y04072*
X04764Y04066*
X04774Y04064*
X04785*
X04795Y04066*
X04805Y04072*
X04812Y04079*
X04818Y04089*
X0482Y04099*
Y0411*
X04818Y0412*
X04812Y0413*
X04805Y04137*
X04795Y04143*
X04785Y04145*
X04774*
X04764Y04143*
X04754Y04137*
X0475Y04133*
X04745Y04133*
X04744Y04135*
X04713Y04166*
X04707Y0417*
X047Y04172*
G37*
G36*
X02433Y04233D02*
X02416D01*
X02399Y0423*
X02382Y04223*
X02368Y04213*
X02356Y04201*
X02346Y04187*
X02339Y0417*
X02336Y04153*
Y04136*
X02339Y04119*
X02346Y04102*
X02356Y04088*
X02368Y04076*
X02382Y04066*
X02399Y04059*
X02416Y04056*
X02433*
X0245Y04059*
X02467Y04066*
X02481Y04076*
X02493Y04088*
X02503Y04102*
X0251Y04119*
X02513Y04136*
Y04153*
X0251Y0417*
X02503Y04187*
X02493Y04201*
X02481Y04213*
X02467Y04223*
X0245Y0423*
X02433Y04233*
G37*
G36*
X05063Y04213D02*
X05046D01*
X05029Y0421*
X05012Y04203*
X04998Y04193*
X04986Y04181*
X04976Y04167*
X04969Y0415*
X04966Y04133*
Y04116*
X04969Y04099*
X04976Y04082*
X04986Y04068*
X04998Y04056*
X05012Y04046*
X05029Y04039*
X05046Y04036*
X05063*
X0508Y04039*
X05097Y04046*
X05111Y04056*
X05123Y04068*
X05133Y04082*
X0514Y04099*
X05143Y04116*
Y04133*
X0514Y0415*
X05133Y04167*
X05123Y04181*
X05111Y04193*
X05097Y04203*
X0508Y0421*
X05063Y04213*
G37*
G36*
X04375Y04027D02*
D01*
X04091*
X04084Y04026*
X04078Y04022*
X04078*
X04034Y03978*
X03812*
X03808Y03985*
X038Y03993*
X03791Y03998*
X0378Y04001*
X0378*
Y0396*
Y03918*
X0378*
X03791Y03921*
X038Y03926*
X03808Y03934*
X03812Y03941*
X04041*
X04048Y03943*
X04054Y03947*
X04098Y03991*
X0429*
X04292Y03986*
X04291Y03985*
X04286Y03976*
X04283Y03965*
Y03954*
X04285Y03946*
X0401Y0367*
X04006Y03664*
X04004Y03657*
Y03601*
X04Y03599*
X03993Y03592*
X03988Y03584*
X03986Y03574*
Y03565*
X03988Y03555*
X03993Y03547*
X04Y0354*
X04008Y03535*
X04018Y03533*
X04027*
X04037Y03535*
X04045Y0354*
X04052Y03547*
X04057Y03555*
X04059Y03565*
Y03574*
X04057Y03584*
X04052Y03592*
X04045Y03599*
X04041Y03601*
Y0365*
X04311Y0392*
X04319Y03918*
X0433*
X04341Y03921*
X0435Y03926*
X04358Y03934*
X04363Y03943*
X04366Y03954*
Y03965*
X04363Y03976*
X04358Y03985*
X04357Y03986*
X04359Y03991*
X04368*
X04385Y03973*
X04383Y03965*
Y03965*
X0442*
Y04001*
X04419*
X04411Y03999*
X04388Y04022*
X04382Y04026*
X04375Y04027*
G37*
G36*
X0377Y03955D02*
X03733D01*
Y03954*
X03736Y03943*
X03741Y03934*
X03749Y03926*
X03758Y03921*
X03769Y03918*
X0377*
Y03955*
G37*
G36*
X02514Y03929D02*
X02473D01*
Y03888*
X02514*
Y03929*
G37*
G36*
X02463D02*
X02423D01*
Y03888*
X02463*
Y03929*
G37*
G36*
X04975Y03796D02*
X04964D01*
X04953Y03793*
X04944Y03788*
X04936Y0378*
X04931Y03771*
X04928Y0376*
Y03749*
X04931Y03738*
X04936Y03729*
X04944Y03721*
X04953Y03716*
X04964Y03713*
X04975*
X04986Y03716*
X04995Y03721*
X05003Y03729*
X05008Y03738*
X05011Y03749*
Y0376*
X05008Y03771*
X05003Y0378*
X04995Y03788*
X04986Y03793*
X04975Y03796*
G37*
G36*
X0444Y03607D02*
X04408D01*
X0441Y03598*
X04415Y0359*
X04422Y03583*
X0443Y03578*
X0444Y03576*
Y03607*
G37*
G36*
X04449Y03263D02*
X0444D01*
X0443Y03261*
X04422Y03256*
X04415Y03249*
X0441Y03241*
X04408Y03231*
Y03222*
X0441Y03212*
X04415Y03204*
X04422Y03197*
X0443Y03193*
X0444Y0319*
X04449*
X04459Y03193*
X04467Y03197*
X04474Y03204*
X04479Y03212*
X04481Y03222*
Y03231*
X04479Y03241*
X04474Y03249*
X04467Y03256*
X04459Y03261*
X04449Y03263*
G37*
G36*
X04231Y03011D02*
X0422D01*
X04209Y03008*
X042Y03003*
X04192Y02995*
X04187Y02986*
X04184Y02975*
Y02964*
X04187Y02953*
X04192Y02944*
X042Y02936*
X04209Y02931*
X0422Y02928*
X04231*
X04241Y02931*
X04251Y02936*
X04259Y02944*
X04264Y02953*
X04267Y02964*
Y02975*
X04264Y02986*
X04259Y02995*
X04251Y03003*
X04241Y03008*
X04231Y03011*
G37*
G36*
X02975Y02864D02*
X02946D01*
Y02835*
X02975*
Y02864*
G37*
G36*
X0497Y02806D02*
X04969D01*
X04958Y02803*
X04949Y02798*
X04941Y0279*
X04937Y02783*
X04889*
X04882Y02781*
X04876Y02777*
X04418Y0232*
X04415*
Y0229*
X04444*
Y02294*
X04897Y02746*
X04937*
X04941Y02739*
X04949Y02731*
X04958Y02726*
X04969Y02723*
X0497*
Y02765*
Y02806*
G37*
G36*
X02748Y02538D02*
X02747D01*
Y02503*
X02783*
Y02503*
X0278Y02514*
X02775Y02523*
X02767Y0253*
X02758Y02536*
X02748Y02538*
G37*
G36*
X02737Y02493D02*
X02702D01*
Y02493*
X02705Y02483*
X0271Y02473*
X02718Y02466*
X02727Y02461*
X02737Y02458*
X02737*
Y02493*
G37*
G36*
X04405Y0232D02*
X04375D01*
Y0229*
X04405*
Y0232*
G37*
G36*
X03635Y02304D02*
X03624D01*
X03614Y02301*
X03605Y02296*
X03598Y02289*
X03593Y0228*
X0359Y0227*
Y02259*
X03592Y02253*
X03401Y02062*
X03358*
X03356Y02064*
X0335Y0207*
X03342Y02075*
X03334Y02077*
X03325*
X03317Y02075*
X03309Y0207*
X03303Y02064*
X03301Y02062*
X03152*
X03145Y0206*
X03139Y02056*
X02887Y01805*
X02846*
Y01737*
X02913*
Y01779*
X03159Y02025*
X03301*
X03303Y02023*
X03309Y02017*
X03317Y02012*
X03325Y0201*
X03334*
X03342Y02012*
X0335Y02017*
X03356Y02023*
X03358Y02025*
X03408*
X03415Y02027*
X03421Y02031*
X03618Y02227*
X03624Y02225*
X03635*
X03645Y02228*
X03654Y02233*
X03661Y0224*
X03666Y02249*
X03669Y02259*
Y0227*
X03666Y0228*
X03661Y02289*
X03654Y02296*
X03645Y02301*
X03635Y02304*
G37*
G36*
Y02204D02*
X03624D01*
X03614Y02201*
X03605Y02196*
X03598Y02189*
X03593Y0218*
X0359Y0217*
Y02159*
X03592Y02153*
X03128Y01688*
X03124Y01683*
X03122Y01676*
Y01386*
X03112Y0138*
X03103Y01371*
X03097Y01361*
X03094Y01349*
Y01337*
X03097Y01325*
X03103Y01314*
X03112Y01306*
X03123Y013*
X03134Y01297*
X03147*
X03158Y013*
X03169Y01306*
X03178Y01314*
X03184Y01325*
X03187Y01337*
Y01349*
X03184Y01361*
X03178Y01371*
X03169Y0138*
X03159Y01386*
Y01668*
X03618Y02127*
X03624Y02125*
X03635*
X03645Y02128*
X03654Y02133*
X03661Y0214*
X03666Y02149*
X03669Y02159*
Y0217*
X03666Y0218*
X03661Y02189*
X03654Y02196*
X03645Y02201*
X03635Y02204*
G37*
G36*
X04455Y02144D02*
Y02112D01*
X04486*
X04484Y02122*
X04479Y0213*
X04472Y02137*
X04464Y02142*
X04455Y02144*
G37*
G36*
X04444Y0228D02*
X0441D01*
X04375*
Y0225*
X04391*
Y02147*
X04393Y0214*
X04397Y02135*
X04414Y02117*
X04413Y02112*
X04445*
Y02144*
X0444Y02143*
X04428Y02155*
Y0225*
X04444*
Y0228*
G37*
G36*
X04209Y02144D02*
X042D01*
X0419Y02142*
X04182Y02137*
X04175Y0213*
X0417Y02122*
X04168Y02112*
Y02103*
X0417Y02093*
X04175Y02085*
X04182Y02078*
X0419Y02073*
X042Y02071*
X04209*
X04219Y02073*
X04227Y02078*
X04234Y02085*
X04239Y02093*
X04241Y02103*
Y02112*
X04239Y02122*
X04234Y0213*
X04227Y02137*
X04219Y02142*
X04209Y02144*
G37*
G36*
X025Y01981D02*
X02492Y01979D01*
X02484Y01975*
X02478Y01969*
X02473Y01961*
X02471Y01953*
X025*
Y01981*
G37*
G36*
X03635Y02004D02*
X03624D01*
X03614Y02001*
X03605Y01996*
X03598Y01989*
X03593Y0198*
X0359Y0197*
Y01959*
X03593Y01949*
X03598Y0194*
X03605Y01933*
X03614Y01928*
X03624Y01925*
X03635*
X03645Y01928*
X03654Y01933*
X03661Y0194*
X03666Y01949*
X03669Y01959*
Y0197*
X03666Y0198*
X03661Y01989*
X03654Y01996*
X03645Y02001*
X03635Y02004*
G37*
G36*
X025Y01943D02*
X02471D01*
X02473Y01935*
X02478Y01927*
X02484Y01921*
X02492Y01917*
X025Y01914*
Y01943*
G37*
G36*
X03635Y01904D02*
X03624D01*
X03614Y01901*
X03605Y01896*
X03598Y01889*
X03593Y0188*
X0359Y0187*
Y01859*
X03593Y01849*
X03598Y0184*
X03605Y01833*
X03614Y01828*
X03624Y01825*
X03635*
X03645Y01828*
X03654Y01833*
X03661Y0184*
X03666Y01849*
X03669Y01859*
Y0187*
X03666Y0188*
X03661Y01889*
X03654Y01896*
X03645Y01901*
X03635Y01904*
G37*
G36*
X04699Y02144D02*
X0469D01*
X0468Y02142*
X04672Y02137*
X04665Y0213*
X0466Y02122*
X04658Y02112*
Y02103*
X0466Y02093*
X04665Y02085*
X04672Y02078*
X04676Y02076*
Y01784*
X04678Y01777*
X04682Y01772*
X04689Y01764*
X04687Y01759*
X04684Y01758*
X04663Y01779*
X04468Y01974*
Y02076*
X04472Y02078*
X04479Y02085*
X04484Y02093*
X04486Y02102*
X0445*
X04413*
X04415Y02093*
X0442Y02085*
X04427Y02078*
X04431Y02076*
Y01967*
X04433Y0196*
X04437Y01954*
X04601Y01789*
X046Y01784*
X04363*
X04357Y01783*
X04351Y01779*
X04311Y0174*
X04236*
X04234Y01744*
X04227Y01751*
X04219Y01756*
X0421Y01758*
Y01722*
X04205*
Y01717*
X04168*
X0417Y01707*
X04175Y017*
X04173Y01695*
X04024*
X03983Y01736*
X03667Y02053*
X03669Y02059*
Y0207*
X03666Y0208*
X03661Y02089*
X03654Y02096*
X03645Y02101*
X03635Y02104*
X03624*
X03614Y02101*
X03605Y02096*
X03598Y02089*
X03593Y0208*
X0359Y0207*
Y02059*
X03593Y02049*
X03598Y0204*
X03605Y02033*
X03614Y02028*
X03624Y02025*
X03635*
X03641Y02027*
X03952Y01716*
Y01386*
X03942Y0138*
X03933Y01371*
X03927Y01361*
X03924Y01349*
Y01337*
X03927Y01325*
X03933Y01314*
X03942Y01306*
X03953Y013*
X03964Y01297*
X03977*
X03988Y013*
X03999Y01306*
X04008Y01314*
X04014Y01325*
X04017Y01337*
Y01349*
X04014Y01361*
X04008Y01371*
X03999Y0138*
X03989Y01386*
Y01673*
X03993Y01675*
X04004Y01664*
X0401Y0166*
X04017Y01659*
X04405*
X04412Y0166*
X04418Y01664*
X0444Y01686*
X04445Y01685*
X04454*
X04464Y01688*
X04472Y01692*
X04479Y01699*
X04484Y01707*
X04486Y01717*
Y01726*
X04484Y01736*
X04479Y01743*
X04481Y01748*
X04643*
X04659Y01731*
X04658Y01727*
X04695*
Y01722*
X047*
Y01685*
X04709Y01688*
X04717Y01692*
X04724Y01699*
X04729Y01707*
X04731Y01715*
X04736Y01718*
X04787Y01666*
Y01386*
X04777Y0138*
X04768Y01371*
X04762Y01361*
X04759Y01349*
Y01337*
X04762Y01325*
X04768Y01314*
X04777Y01306*
X04788Y013*
X04799Y01297*
X04812*
X04823Y013*
X04834Y01306*
X04843Y01314*
X04849Y01325*
X04852Y01337*
Y01349*
X04849Y01361*
X04843Y01371*
X04834Y0138*
X04824Y01386*
Y01673*
X04822Y0168*
X04818Y01686*
X04713Y01792*
Y02076*
X04717Y02078*
X04724Y02085*
X04729Y02093*
X04731Y02103*
Y02112*
X04729Y02122*
X04724Y0213*
X04717Y02137*
X04709Y02142*
X04699Y02144*
G37*
G36*
X042Y01758D02*
X0419Y01756D01*
X04182Y01751*
X04175Y01744*
X0417Y01736*
X04168Y01727*
X042*
Y01758*
G37*
G36*
X0469Y01717D02*
X04658D01*
X0466Y01707*
X04665Y01699*
X04672Y01692*
X0468Y01688*
X0469Y01685*
Y01717*
G37*
G36*
X0436Y01389D02*
X04267D01*
Y01297*
X0436*
Y01389*
G37*
G36*
X03525D02*
X03432D01*
Y01297*
X03525*
Y01389*
G37*
G36*
X02695D02*
X02602D01*
Y01297*
X02695*
Y01389*
G37*
G36*
X04513Y01219D02*
D01*
X04025*
X04018Y01217*
X04012Y01213*
X03988Y01189*
X03977Y01192*
X03964*
X03953Y01189*
X03942Y01183*
X03933Y01175*
X03927Y01164*
X0374*
X03691Y01213*
X03685Y01217*
X03678Y01219*
X03195*
X03188Y01217*
X03182Y01213*
X03158Y01189*
X03147Y01192*
X03134*
X03123Y01189*
X03112Y01183*
X03103Y01175*
X03097Y01164*
X03094Y01152*
Y0114*
X03097Y01128*
X03103Y01118*
X03112Y01109*
X03123Y01103*
X03134Y011*
X03147*
X03158Y01103*
X03169Y01109*
X03178Y01118*
X03184Y01128*
X03187Y0114*
Y01152*
X03184Y01164*
X03202Y01182*
X03442*
X03444Y01178*
X03441Y01175*
X03435Y01164*
X03432Y01152*
Y0114*
X03435Y01128*
X03441Y01118*
X0345Y01109*
X03461Y01103*
X03472Y011*
X03485*
X03496Y01103*
X03507Y01109*
X03516Y01118*
X03522Y01128*
X03525Y0114*
Y01152*
X03522Y01164*
X03516Y01175*
X03513Y01178*
X03515Y01182*
X03671*
X0372Y01133*
X03726Y01129*
X03733Y01128*
X03927*
X03933Y01118*
X03942Y01109*
X03953Y01103*
X03964Y011*
X03977*
X03988Y01103*
X03999Y01109*
X04008Y01118*
X04014Y01128*
X04017Y0114*
Y01152*
X04014Y01164*
X04032Y01182*
X04277*
X04279Y01178*
X04276Y01175*
X0427Y01164*
X04267Y01152*
Y0114*
X0427Y01128*
X04276Y01118*
X04285Y01109*
X04296Y01103*
X04307Y011*
X0432*
X04331Y01103*
X04342Y01109*
X04351Y01118*
X04357Y01128*
X0436Y0114*
Y01152*
X04357Y01164*
X04351Y01175*
X04348Y01178*
X0435Y01182*
X04506*
X04555Y01133*
X04561Y01129*
X04568Y01128*
X04762*
X04768Y01118*
X04777Y01109*
X04788Y01103*
X04799Y011*
X04812*
X04823Y01103*
X04834Y01109*
X04843Y01118*
X04849Y01128*
X04852Y0114*
Y01152*
X04849Y01164*
X04843Y01175*
X04834Y01183*
X04823Y01189*
X04812Y01192*
X04799*
X04788Y01189*
X04777Y01183*
X04768Y01175*
X04762Y01164*
X04575*
X04526Y01213*
X0452Y01217*
X04513Y01219*
G37*
G36*
X02655Y01192D02*
X02642D01*
X02631Y01189*
X0262Y01183*
X02611Y01175*
X02605Y01164*
X02602Y01152*
Y0114*
X02605Y01128*
X02611Y01118*
X0262Y01109*
X02631Y01103*
X02642Y011*
X02655*
X02666Y01103*
X02677Y01109*
X02686Y01118*
X02692Y01128*
X02695Y0114*
Y01152*
X02692Y01164*
X02686Y01175*
X02677Y01183*
X02666Y01189*
X02655Y01192*
G37*
G36*
X05063Y01198D02*
X05046D01*
X05029Y01195*
X05012Y01188*
X04998Y01178*
X04986Y01166*
X04976Y01152*
X04969Y01135*
X04966Y01118*
Y01101*
X04969Y01084*
X04976Y01067*
X04986Y01053*
X04998Y01041*
X05012Y01031*
X05029Y01024*
X05046Y01021*
X05063*
X0508Y01024*
X05097Y01031*
X05111Y01041*
X05123Y01053*
X05133Y01067*
X0514Y01084*
X05143Y01101*
Y01118*
X0514Y01135*
X05133Y01152*
X05123Y01166*
X05111Y01178*
X05097Y01188*
X0508Y01195*
X05063Y01198*
G37*
G36*
X02438D02*
X02421D01*
X02404Y01195*
X02387Y01188*
X02373Y01178*
X02361Y01166*
X02351Y01152*
X02344Y01135*
X02341Y01118*
Y01101*
X02344Y01084*
X02351Y01067*
X02361Y01053*
X02373Y01041*
X02387Y01031*
X02404Y01024*
X02421Y01021*
X02438*
X02455Y01024*
X02472Y01031*
X02486Y01041*
X02498Y01053*
X02508Y01067*
X02515Y01084*
X02518Y01101*
Y01118*
X02515Y01135*
X02508Y01152*
X02498Y01166*
X02486Y01178*
X02472Y01188*
X02455Y01195*
X02438Y01198*
G37*
%LNclicguard-3*%
%LPD*%
G36*
X03364Y03922D02*
X03363Y03917D01*
Y03908*
X03365Y03898*
X0337Y03891*
X03368Y03886*
X03331*
X03245Y03972*
X03239Y03976*
X03232Y03978*
X03162*
X03158Y03985*
X03157Y03986*
X03159Y03991*
X03295*
X03364Y03922*
G37*
G36*
X03642Y03986D02*
X03641Y03985D01*
X03636Y03976*
X03633Y03965*
Y03954*
X03636Y03943*
X03641Y03934*
X03649Y03926*
X03656Y03922*
Y03606*
X03652Y03603*
X03652Y03603*
X03651Y03604*
X03641Y03606*
X03632*
X03622Y03604*
X03614Y03599*
X03607Y03592*
X03603Y03584*
X036Y03574*
Y03565*
X03603Y03555*
X03607Y03547*
X03614Y0354*
X03622Y03535*
X03632Y03533*
X03641*
X03646Y03534*
X03759Y03422*
Y03164*
X03754Y03162*
X03688Y03229*
Y03319*
X03686Y03326*
X03682Y03332*
X03431Y03584*
X03425Y03588*
X03418Y03589*
X03331*
X03324Y03588*
X03318Y03584*
X03279Y03546*
X03221*
X03219Y0355*
X03212Y03557*
X03204Y03562*
X03194Y03564*
X03185*
X03175Y03562*
X03167Y03557*
X0316Y0355*
X03155Y03542*
X03153Y03532*
Y03523*
X03155Y03513*
X0316Y03505*
X03167Y03498*
X03175Y03493*
X03185Y03491*
X03194*
X03204Y03493*
X03212Y03498*
X03219Y03505*
X03221Y03509*
X03273*
X03275Y03505*
X03103Y03333*
X02569*
X02564Y03341*
X02556Y03349*
X02546Y03355*
X02535Y03358*
X02524*
X02513Y03355*
X02503Y03349*
X02495Y03341*
X02492Y03336*
X02487Y03337*
Y03695*
X02491Y03697*
X02602Y03587*
X02608Y03583*
X02615Y03581*
X02871*
X02873Y03579*
X02879Y03573*
X02887Y03568*
X02895Y03566*
X02904*
X02912Y03568*
X02918Y03571*
X02923Y03568*
Y0355*
X02907Y03535*
X02905*
Y03506*
X02933*
Y03509*
X02954Y0353*
X03137Y03713*
X03141Y03719*
X03143Y03726*
Y03922*
X0315Y03926*
X03158Y03934*
X03162Y03941*
X03224*
X0331Y03855*
X03316Y03851*
X03323Y0385*
X03323*
X03439*
X03446Y03851*
X03452Y03855*
X03587Y03991*
X0364*
X03642Y03986*
G37*
G36*
X02628Y03698D02*
X02634Y03694D01*
X02641Y03692*
X0284*
X02894Y03638*
X02892Y03632*
X02887Y03631*
X02879Y03626*
X02873Y0362*
X02871Y03618*
X02622*
X02511Y03729*
X02514Y0374*
Y03752*
X02511Y03763*
X02505Y03774*
X02496Y03782*
X02486Y03788*
X02474Y03791*
X02471*
X02469Y03796*
X02481Y03808*
X02485Y03814*
X02487Y03821*
Y03832*
X02492Y03834*
X02628Y03698*
G37*
G36*
X03651Y03312D02*
Y03221D01*
X03653Y03214*
X03656Y03209*
X03654Y03204*
X0359*
Y03151*
X03475Y03036*
X03421*
X03419Y0304*
X03412Y03047*
X03404Y03052*
X03394Y03054*
X03385*
X03375Y03052*
X03367Y03047*
X0336Y0304*
X03355Y03032*
X03353Y03022*
Y03013*
X03355Y03003*
X0336Y02995*
X03367Y02988*
X03375Y02983*
X03385Y02981*
X03394*
X03404Y02983*
X03412Y02988*
X03419Y02995*
X03421Y02999*
X03482*
X03489Y03001*
X03495Y03005*
X03616Y03125*
X03669*
Y03189*
X03674Y03191*
X03891Y02974*
X0389Y0297*
Y02959*
X03893Y02949*
X03898Y0294*
X03903Y02935*
X03902Y02929*
X039Y02927*
X03808Y02835*
X03663*
X03661Y0284*
X03661Y0284*
X03666Y02849*
X03669Y02859*
Y0287*
X03666Y0288*
X03661Y02889*
X03654Y02896*
X03645Y02901*
X03635Y02904*
X03624*
X03614Y02901*
X03605Y02896*
X03598Y02889*
X03593Y0288*
X0359Y0287*
Y02859*
X03593Y02849*
X03598Y0284*
X03602Y02836*
X03602Y02831*
X03602Y02829*
X03569Y02797*
X03565Y02791*
X03564Y02784*
Y02745*
X03565Y02738*
X03569Y02732*
X03602Y027*
X03602Y02698*
X03602Y02693*
X03598Y02689*
X03593Y0268*
X0359Y0267*
Y02659*
X03593Y02649*
X03598Y0264*
X03604Y02634*
X03603Y02629*
X03603Y02629*
X03597Y02625*
X03569Y02597*
X03565Y02591*
X03564Y02584*
Y02512*
X03565Y02505*
X03569Y02499*
X03592Y02476*
X0359Y0247*
Y02469*
X03585Y02467*
X03483Y0257*
Y02619*
X03482Y02626*
X03478Y02632*
X03327Y02783*
X03321Y02787*
X03314Y02789*
X0303*
X03028Y02793*
X03202Y02967*
X03206Y02973*
X03208Y0298*
Y0311*
X03212Y03112*
X03219Y03119*
X03224Y03127*
X03226Y03137*
Y03146*
X03224Y03156*
X03219Y03164*
X03212Y03171*
X03208Y03173*
Y03309*
X0339Y03491*
X03395Y0349*
X03404*
X03414Y03493*
X03422Y03497*
X03429Y03504*
X03434Y03512*
X03436Y0352*
X03441Y03523*
X03651Y03312*
G37*
G36*
X03351Y03504D02*
X03177Y03329D01*
X03173Y03324*
X03171Y03317*
Y03173*
X03167Y03171*
X0316Y03164*
X03158Y0316*
X0271*
X02578Y03292*
X0258Y03296*
X0311*
X03117Y03298*
X03123Y03302*
X0333Y03508*
X03349*
X03351Y03504*
G37*
G36*
X02441Y03709D02*
X0245Y03704D01*
Y03176*
X02452Y03169*
X02456Y03163*
X02486Y03132*
Y03098*
X02481Y03096*
X02433Y03144*
Y0371*
X02438Y03712*
X02441Y03709*
G37*
G36*
X03984Y03269D02*
Y03009D01*
X0398Y03007*
X03957Y0303*
X03957Y03036*
X03961Y0304*
X03966Y03049*
X03969Y03059*
Y0307*
X03966Y0308*
X03961Y03089*
X03954Y03096*
X03945Y03101*
X03935Y03104*
X03924*
X03914Y03101*
X03905Y03096*
X03898Y03089*
X03893Y0308*
X0389Y0307*
Y03069*
X03885Y03067*
X03795Y03158*
Y03429*
X03794Y03436*
X0379Y03442*
X03672Y0356*
X03673Y03565*
Y03573*
X03678Y03576*
X03984Y03269*
G37*
G36*
Y0292D02*
Y02845D01*
X03941Y02802*
X03935Y02804*
X03924*
X03914Y02801*
X03905Y02796*
X03898Y02789*
X03893Y0278*
X0389Y0277*
Y02769*
X03885Y02767*
X03875Y02777*
X03869Y02781*
X03862Y02783*
X03665*
X03661Y02789*
X03656Y02794*
X03658Y02799*
X03815*
X03822Y028*
X03828Y02804*
X03885Y02862*
X0389Y0286*
Y02859*
X03893Y02849*
X03898Y0284*
X03905Y02833*
X03914Y02828*
X03924Y02825*
X03935*
X03945Y02828*
X03954Y02833*
X03961Y0284*
X03966Y02849*
X03969Y02859*
Y0287*
X03966Y0288*
X03961Y02889*
X03956Y02894*
X03957Y029*
X03959Y02902*
X0398Y02922*
X03984Y0292*
G37*
G36*
X03385Y02673D02*
X03383Y02668D01*
X03375Y02666*
X03367Y02661*
X0336Y02654*
X03358Y0265*
X02797*
X0279Y02648*
X02784Y02644*
X02499Y02359*
X02492Y02361*
X02491*
X02489Y02366*
X02875Y02752*
X02951*
X02953Y0275*
X02959Y02743*
X02967Y02739*
X02975Y02737*
X02984*
X02992Y02739*
X03Y02743*
X03006Y0275*
X03008Y02752*
X03306*
X03385Y02673*
G37*
G36*
X03897Y02704D02*
D01*
X03903Y027*
X03903Y027*
X03904Y02695*
X03898Y02689*
X03893Y0268*
X0389Y0267*
Y02669*
X03885Y02667*
X03828Y02725*
X03822Y02729*
X03815Y0273*
X03658*
X03656Y02735*
X03661Y0274*
X03665Y02746*
X03855*
X03897Y02704*
G37*
G36*
X03866Y02635D02*
X03865Y0263D01*
X03658*
X03656Y02635*
X03661Y0264*
X03666Y02649*
X03669Y02659*
Y0267*
X03666Y0268*
X03661Y02689*
X03661Y02689*
X03663Y02694*
X03808*
X03866Y02635*
G37*
G36*
X03891Y02574D02*
X0389Y0257D01*
Y0257*
X0393*
Y02565*
X03935*
Y02525*
X03935*
X03945Y02528*
X03954Y02533*
X03954Y02533*
X03959Y02531*
Y02498*
X03954Y02496*
X03954Y02496*
X03945Y02501*
X03935Y02504*
X03924*
X03914Y02501*
X03905Y02496*
X03898Y02489*
X03894Y02483*
X03737*
X0369Y0253*
X03667Y02553*
X03669Y02559*
Y0257*
X03666Y0258*
X03661Y02589*
X03661Y02589*
X03663Y02594*
X03871*
X03891Y02574*
G37*
G36*
X0442Y01743D02*
X04415Y01736D01*
X04413Y01726*
Y01717*
X04414Y01712*
X04398Y01695*
X04238*
X04236Y017*
X04238Y01703*
X04319*
X04326Y01705*
X04332Y01709*
X04371Y01748*
X04418*
X0442Y01743*
G37*
%LNclicguard-4*%
%LPC*%
G36*
X02895Y03535D02*
X02866D01*
Y03506*
X02895*
Y03535*
G37*
G36*
X02933Y03496D02*
X02905D01*
Y03467*
X02933*
Y03496*
G37*
G36*
X02895D02*
X02866D01*
Y03467*
X02895*
Y03496*
G37*
G36*
X03635Y03104D02*
X03624D01*
X03614Y03101*
X03605Y03096*
X03598Y03089*
X03593Y0308*
X0359Y0307*
Y03059*
X03593Y03049*
X03598Y0304*
X03605Y03033*
X03614Y03028*
X03624Y03025*
X03635*
X03645Y03028*
X03654Y03033*
X03661Y0304*
X03666Y03049*
X03669Y03059*
Y0307*
X03666Y0308*
X03661Y03089*
X03654Y03096*
X03645Y03101*
X03635Y03104*
G37*
G36*
Y03004D02*
X03624D01*
X03614Y03001*
X03605Y02996*
X03598Y02989*
X03593Y0298*
X0359Y0297*
Y02959*
X03593Y02949*
X03598Y0294*
X03605Y02933*
X03614Y02928*
X03624Y02925*
X03635*
X03645Y02928*
X03654Y02933*
X03661Y0294*
X03666Y02949*
X03669Y02959*
Y0297*
X03666Y0298*
X03661Y02989*
X03654Y02996*
X03645Y03001*
X03635Y03004*
G37*
G36*
X03935Y03204D02*
X03924D01*
X03914Y03201*
X03905Y03196*
X03898Y03189*
X03893Y0318*
X0389Y0317*
Y03159*
X03893Y03149*
X03898Y0314*
X03905Y03133*
X03914Y03128*
X03924Y03125*
X03935*
X03945Y03128*
X03954Y03133*
X03961Y0314*
X03966Y03149*
X03969Y03159*
Y0317*
X03966Y0318*
X03961Y03189*
X03954Y03196*
X03945Y03201*
X03935Y03204*
G37*
G36*
X03925Y0256D02*
X0389D01*
Y02559*
X03893Y02549*
X03898Y0254*
X03905Y02533*
X03914Y02528*
X03924Y02525*
X03925*
Y0256*
G37*
%LNclicguard-5*%
%LPD*%
G54D16*
X0478Y0419D03*
X0441Y02584D03*
G54D17*
X0488Y04105D03*
X0478D03*
X0468D03*
G54D18*
X0458Y04105D03*
G54D19*
X02648Y01343D03*
X03478D03*
X04313D03*
G54D21*
X03141Y01343D03*
X04806D03*
X03971D03*
X04806Y01146D03*
X03971D03*
X03141D03*
X02648D03*
X03478D03*
X04313D03*
G54D24*
X0333Y02236D03*
X02505Y01751D03*
X0288Y01771D03*
X029Y03501D03*
X0298Y02869D03*
G54D29*
X03675Y0396D03*
X04975Y02865D03*
Y02965D03*
X0497Y03655D03*
Y03755D03*
X04225Y0297D03*
X0497Y03555D03*
X04975Y02765D03*
X04425Y0396D03*
X04325D03*
X03125D03*
X03025D03*
X03775D03*
G54D31*
X0333Y02043D03*
X0298Y0277D03*
X029Y036D03*
X02505Y01948D03*
X0288Y01968D03*
G54D32*
X02742Y02321D03*
X02487D03*
X02742Y02498D03*
G54D33*
X0441Y02285D03*
G54D34*
X04654Y0297D03*
G54D38*
X02487Y02498D03*
G54D40*
X04731Y03823D02*
Y04122D01*
X04425Y03643D02*
X04445Y03623D01*
Y03612D02*
Y03623D01*
X03675Y03605D02*
X04003Y03276D01*
Y02838D02*
Y03276D01*
X04425Y03643D02*
Y0396D01*
X047Y04153D02*
X04731Y04122D01*
Y03823D02*
X04949Y03605D01*
X04989D02*
X05019Y03575D01*
X04931Y03504D02*
X04989D01*
X04949Y03605D02*
X04989D01*
X05019Y03534D02*
Y03575D01*
X0458Y04105D02*
X04628Y04153D01*
X04535Y0396D02*
X0468Y04105D01*
X04502Y03555D02*
X0497D01*
X04628Y04153D02*
X047D01*
X04445Y03612D02*
X04502Y03555D01*
X04425Y0396D02*
X04535D01*
X04677Y0325D02*
X04931Y03504D01*
X04989D02*
X05019Y03534D01*
X03882Y02284D02*
X03912Y02315D01*
X03882Y01912D02*
X0393Y01865D01*
X0363Y02065D02*
X03971Y01723D01*
X03882Y01912D02*
Y02284D01*
X04677Y02993D02*
Y0325D01*
X04654Y0297D02*
X04677Y02993D01*
X03323Y03527D02*
X034D01*
X0253Y03315D02*
X0311D01*
X03323Y03527*
X02438Y02341D02*
X02868Y0277D01*
X02797Y02632D02*
X0339D01*
X02868Y0277D02*
X0298D01*
X02438Y02301D02*
Y02341D01*
X02487Y02321D02*
X02797Y02632D01*
X05024Y02714D02*
Y034D01*
X04975Y02665D02*
X05024Y02714D01*
X0497Y03455D02*
X05024Y034D01*
X03977Y02345D02*
Y02584D01*
X03947Y02615D02*
X03977Y02584D01*
X03912Y02315D02*
X03947D01*
X03912Y02615D02*
X03947D01*
X0441Y02285D02*
X04889Y02765D01*
X04362Y02717D02*
X04509Y02865D01*
X0391Y02717D02*
X04362D01*
X04509Y02865D02*
X04975D01*
X03862Y02765D02*
X0391Y02717D01*
X04889Y02765D02*
X04975D01*
X0393D02*
X04003Y02838D01*
X0367Y03221D02*
X03926Y02965D01*
X03777Y0315D02*
X0391Y03017D01*
X03944*
X03926Y02965D02*
X0393D01*
X03777Y0315D02*
Y03429D01*
X03637Y0357D02*
X03777Y03429D01*
X0367Y03221D02*
Y03319D01*
X03947Y02915D02*
X03977Y02945D01*
X0363Y02765D02*
X03862D01*
X03815Y02817D02*
X03912Y02915D01*
X03815Y02712D02*
X03912Y02615D01*
X03615Y02817D02*
X03815D01*
X03615Y02712D02*
X03815D01*
X03582Y02784D02*
X03615Y02817D01*
X03582Y02745D02*
X03615Y02712D01*
X03582Y02745D02*
Y02784D01*
X03933Y02665D02*
X04013Y02584D01*
X0441*
X0393Y02665D02*
X03933D01*
X0441Y02147D02*
Y02285D01*
Y02147D02*
X0445Y02107D01*
X03141Y01343D02*
Y01676D01*
X0363Y02165*
X03947Y02315D02*
X03977Y02345D01*
X0333Y02236D02*
X03501D01*
X0363Y02365*
X0268Y01926D02*
X02897D01*
X02509Y01952D02*
X02855D01*
X02505Y01948D02*
X02509Y01952D01*
X02871Y01968D02*
X0288D01*
X02505Y01751D02*
X0268Y01926D01*
X02897D02*
X03206Y02236D01*
X02855Y01952D02*
X02871Y01968D01*
X0288D02*
Y02361D01*
X02742Y02498D02*
X0288Y02361D01*
X03206Y02236D02*
X0333D01*
X03678Y012D02*
X03733Y01146D01*
X03195Y012D02*
X03678D01*
X03733Y01146D02*
X03971D01*
X03141D02*
X03195Y012D01*
X03971Y01146D02*
X04025Y012D01*
X04568Y01146D02*
X04806D01*
X04513Y012D02*
X04568Y01146D01*
X04025Y012D02*
X04513D01*
X04695Y01784D02*
X04806Y01673D01*
Y01343D02*
Y01673D01*
X04695Y01784D02*
Y02107D01*
X0465Y01766D02*
X04695Y01722D01*
X0445Y01967D02*
X0465Y01766D01*
X0445Y01967D02*
Y02107D01*
X04363Y01766D02*
X0465D01*
X04205Y01722D02*
X04319D01*
X04363Y01766*
X03971Y01723D02*
X04017Y01677D01*
X04405*
X0445Y01722*
X03971Y01343D02*
Y01723D01*
X03465Y02562D02*
Y02619D01*
X03649Y02417D02*
X03677Y02445D01*
X03465Y02562D02*
X0361Y02417D01*
X03677Y02445D02*
Y02517D01*
X0361Y02417D02*
X03649D01*
X03582Y02512D02*
X0363Y02465D01*
X03582Y02584D02*
X0361Y02612D01*
X03582Y02512D02*
Y02584D01*
X02438Y02301D02*
X02467Y02273D01*
X02574*
X02623Y02321*
X02742*
X02489Y03063D02*
X0257D01*
X02581Y03074*
X0253Y03215D02*
X02581Y03163D01*
Y03074D02*
Y03163D01*
X03677Y02517D02*
X0373Y02465D01*
X0363Y02565D02*
X03677Y02517D01*
X03314Y0277D02*
X03465Y02619D01*
X0298Y0277D02*
X03314D01*
X0288Y01771D02*
X03152Y02043D01*
X0333*
X03408*
X0363Y02265*
X0393Y02365D02*
Y02465D01*
X03926Y02565D02*
X0393D01*
X03879Y02612D02*
X03926Y02565D01*
X0361Y02612D02*
X03879D01*
X03912Y02915D02*
X03947D01*
X0373Y02465D02*
X0393D01*
X03675Y03605D02*
Y0396D01*
X03944Y03017D02*
X03977Y02984D01*
X04022Y0357D02*
Y03657D01*
X04325Y0396*
X04041D02*
X04091Y04009D01*
X03775Y0396D02*
X04041D01*
X04091Y04009D02*
X04375D01*
X04425Y0396*
X03977Y02945D02*
Y02984D01*
X0319Y03527D02*
X03287D01*
X03331Y03571*
X03418D02*
X0367Y03319D01*
X03331Y03571D02*
X03418D01*
X03482Y03017D02*
X0363Y03165D01*
X0339Y03017D02*
X03482D01*
X0319Y03317D02*
X034Y03527D01*
X0319Y03142D02*
Y03317D01*
X0298Y0277D02*
X0319Y0298D01*
Y03142*
X02593Y03215D02*
X02747Y0306D01*
X0253Y03215D02*
X02593D01*
X02747Y0306D02*
X02835D01*
X0298Y02916*
Y02869D02*
Y02916D01*
X0358Y04009D02*
X03725D01*
X03439Y03868D02*
X0358Y04009D01*
X03725D02*
X03775Y0396D01*
X03323Y03868D02*
X03439D01*
X03232Y0396D02*
X03323Y03868D01*
X03125Y0396D02*
X03232D01*
X03025D02*
X03074Y04009D01*
X03303*
X034Y03912*
X02415Y03137D02*
X02489Y03063D01*
X02415Y03137D02*
Y03768D01*
X02468Y03821*
Y03883*
Y03176D02*
X0253Y03115D01*
X02468Y03176D02*
Y03746D01*
X02941Y03543D02*
Y03617D01*
X029Y03501D02*
X02941Y03543D01*
X02847Y03711D02*
X02941Y03617D01*
X02641Y03711D02*
X02847D01*
X02468Y03883D02*
X02641Y03711D01*
X02468Y03746D02*
X02615Y036D01*
X029*
X0253Y03315D02*
X02702Y03142D01*
X0319*
X02941Y03543D02*
X03125Y03726D01*
Y0396*
G54D41*
X04205Y01722D03*
X04695Y02107D03*
X0339Y03017D03*
X03637Y0357D03*
X0445Y01722D03*
X0319Y03527D03*
X04445Y03227D03*
X0339Y02632D03*
X034Y03527D03*
X0319Y03142D03*
X04205Y02107D03*
X04445Y03612D03*
X04022Y0357D03*
X0445Y02107D03*
X034Y03912D03*
X04695Y01722D03*
G54D42*
X0363Y02165D03*
Y02865D03*
X0393Y02665D03*
X0363Y02365D03*
Y02265D03*
X0393Y02765D03*
X0363Y02965D03*
Y03065D03*
Y02765D03*
Y02665D03*
X0393Y03065D03*
Y03165D03*
Y01865D03*
X0363Y02065D03*
X0393Y02965D03*
Y02465D03*
X0363Y02565D03*
X0393Y02365D03*
Y01965D03*
Y02065D03*
Y02165D03*
Y02265D03*
Y02565D03*
Y02865D03*
X0363Y01865D03*
Y01965D03*
Y02465D03*
G54D43*
X0363Y03165D03*
G54D44*
X0497Y03455D03*
X04975Y02665D03*
G54D45*
X0253Y03315D03*
Y03215D03*
G54D46*
X02468Y03746D03*
G54D47*
X02468Y03883D03*
G54D48*
X0253Y03115D03*
G54D49*
X05055Y04125D03*
X0243Y0111D03*
X05055D03*
X02425Y04145D03*
M02*