%FSTAX23Y23*%
%MOIN*%
%SFA1B1*%

%IPPOS*%
%ADD12C,0.007870*%
%LNclicguard-1*%
%LPD*%
G54D12*
X0441Y02675D02*
X04399Y02674D01*
X04389Y02674*
X04379Y02673*
X04369Y02671*
X0436Y02669*
X0435Y02667*
X0434Y02664*
X04331Y02661*
X04321Y02658*
X04312Y02654*
X04303Y0265*
X04294Y02645*
X04285Y0264*
X04277Y02635*
X04268Y02629*
X0426Y02623*
X04253Y02616*
X04245Y0261*
X04238Y02603*
X04231Y02595*
X04224Y02588*
X04218Y0258*
X04212Y02572*
X04207Y02563*
X04202Y02555*
X04197Y02546*
X04192Y02537*
X04188Y02528*
X04184Y02518*
X04181Y02509*
X04178Y02499*
X04176Y02489*
X04174Y0248*
X04172Y0247*
X04171Y0246*
X0417Y0245*
X04169Y0244*
Y02429*
X0417Y02419*
X04171Y02409*
X04172Y02399*
X04174Y0239*
X04176Y0238*
X04178Y0237*
X04181Y0236*
X04184Y02351*
X04188Y02341*
X04192Y02332*
X04197Y02323*
X04202Y02314*
X04207Y02306*
X04212Y02297*
X04218Y02289*
X04224Y02281*
X04231Y02274*
X04238Y02266*
X04245Y02259*
X04253Y02253*
X0426Y02246*
X04268Y0224*
X04277Y02234*
X04285Y02229*
X04294Y02224*
X04303Y02219*
X04312Y02215*
X04321Y02211*
X04331Y02208*
X0434Y02205*
X0435Y02202*
X0436Y022*
X04369Y02198*
X04379Y02196*
X04389Y02195*
X04399Y02195*
X0441Y02194*
X0442Y02195D01*
X0443Y02195*
X0444Y02196*
X0445Y02198*
X04459Y022*
X04469Y02202*
X04479Y02205*
X04488Y02208*
X04498Y02211*
X04507Y02215*
X04516Y02219*
X04525Y02224*
X04534Y02229*
X04542Y02234*
X04551Y0224*
X04559Y02246*
X04566Y02253*
X04574Y02259*
X04581Y02266*
X04588Y02274*
X04595Y02281*
X04601Y02289*
X04607Y02297*
X04612Y02306*
X04617Y02314*
X04622Y02323*
X04627Y02332*
X04631Y02341*
X04635Y02351*
X04638Y0236*
X04641Y0237*
X04643Y0238*
X04645Y0239*
X04647Y02399*
X04648Y02409*
X04649Y02419*
X0465Y02429*
Y0244*
X04649Y0245*
X04648Y0246*
X04647Y0247*
X04645Y0248*
X04643Y02489*
X04641Y02499*
X04638Y02509*
X04635Y02518*
X04631Y02528*
X04627Y02537*
X04622Y02546*
X04617Y02555*
X04612Y02563*
X04607Y02572*
X04601Y0258*
X04595Y02588*
X04588Y02595*
X04581Y02603*
X04574Y0261*
X04566Y02616*
X04559Y02623*
X04551Y02629*
X04542Y02635*
X04534Y0264*
X04525Y02645*
X04516Y0265*
X04507Y02654*
X04498Y02658*
X04488Y02661*
X04479Y02664*
X04469Y02667*
X04459Y02669*
X0445Y02671*
X0444Y02673*
X0443Y02674*
X0442Y02674*
X0441Y02675*
X029Y03412D02*
X0291Y03413D01*
X0292Y03414*
X02929Y03416*
X02939Y03418*
X02949Y03422*
X02958Y03426*
X02967Y0343*
X02976Y03435*
X02984Y03441*
X02991Y03448*
X02999Y03455*
X03005Y03462*
X03012Y0347*
X03017Y03479*
X03022Y03487*
X03026Y03496*
X0303Y03506*
X03033Y03515*
X03035Y03525*
X03036Y03535*
X03037Y03545*
Y03555*
X03036Y03565*
X03035Y03575*
X03033Y03585*
X0303Y03595*
X03026Y03604*
X03022Y03613*
X03017Y03622*
X03012Y0363*
X03005Y03638*
X02999Y03646*
X02991Y03653*
X02984Y03659*
X02976Y03665*
X02967Y0367*
X02958Y03675*
X02949Y03679*
X02939Y03682*
X02929Y03685*
X0292Y03687*
X0291Y03688*
X029Y03688*
X02889Y03688D01*
X02879Y03687*
X0287Y03685*
X0286Y03682*
X0285Y03679*
X02841Y03675*
X02832Y0367*
X02823Y03665*
X02815Y03659*
X02808Y03653*
X028Y03646*
X02794Y03638*
X02787Y0363*
X02782Y03622*
X02777Y03613*
X02773Y03604*
X02769Y03595*
X02766Y03585*
X02764Y03575*
X02763Y03565*
X02762Y03555*
Y03545*
X02763Y03535*
X02764Y03525*
X02766Y03515*
X02769Y03506*
X02773Y03496*
X02777Y03487*
X02782Y03479*
X02787Y0347*
X02794Y03462*
X028Y03455*
X02808Y03448*
X02815Y03441*
X02823Y03435*
X02832Y0343*
X02841Y03426*
X0285Y03422*
X0286Y03418*
X0287Y03416*
X02879Y03414*
X02889Y03413*
X029Y03412*
X0298Y02957D02*
X02969Y02957D01*
X02959Y02956*
X0295Y02954*
X0294Y02951*
X0293Y02948*
X02921Y02944*
X02912Y0294*
X02903Y02934*
X02895Y02929*
X02888Y02922*
X0288Y02915*
X02874Y02908*
X02867Y029*
X02862Y02891*
X02857Y02883*
X02853Y02873*
X02849Y02864*
X02846Y02854*
X02844Y02845*
X02843Y02835*
X02842Y02825*
Y02814*
X02843Y02804*
X02844Y02794*
X02846Y02785*
X02849Y02775*
X02853Y02766*
X02857Y02756*
X02862Y02748*
X02867Y02739*
X02874Y02731*
X0288Y02724*
X02888Y02717*
X02895Y0271*
X02903Y02705*
X02912Y02699*
X02921Y02695*
X0293Y02691*
X0294Y02688*
X0295Y02685*
X02959Y02683*
X02969Y02682*
X0298Y02682*
X0299Y02682*
X03Y02683*
X03009Y02685*
X03019Y02688*
X03029Y02691*
X03038Y02695*
X03047Y02699*
X03056Y02705*
X03064Y0271*
X03071Y02717*
X03079Y02724*
X03085Y02731*
X03092Y02739*
X03097Y02748*
X03102Y02756*
X03106Y02766*
X0311Y02775*
X03113Y02785*
X03115Y02794*
X03116Y02804*
X03117Y02814*
Y02825*
X03116Y02835*
X03115Y02845*
X03113Y02854*
X0311Y02864*
X03106Y02873*
X03102Y02883*
X03097Y02891*
X03092Y029*
X03085Y02908*
X03079Y02915*
X03071Y02922*
X03064Y02929*
X03056Y02934*
X03047Y0294*
X03038Y02944*
X03029Y02948*
X03019Y02951*
X03009Y02954*
X03Y02956*
X0299Y02957*
X0298Y02957*
X04938Y03967D02*
Y04218D01*
X04521D02*
X04938D01*
X04521Y03967D02*
Y04218D01*
Y03967D02*
X04938D01*
X02608Y01489D02*
X03181D01*
Y01D02*
Y01489D01*
X02608Y01D02*
X03181D01*
X02608D02*
Y01489D01*
X03438D02*
X04011D01*
Y01D02*
Y01489D01*
X03438Y01D02*
X04011D01*
X03438D02*
Y01489D01*
X0419Y02912D02*
X04689D01*
X0419D02*
Y03027D01*
X04689*
Y02912D02*
Y03027D01*
X04273Y01D02*
Y01489D01*
Y01D02*
X04846D01*
Y01489*
X04273D02*
X04846D01*
X02777Y02282D02*
Y02537D01*
X02452D02*
X02777D01*
X02452Y02282D02*
Y02537D01*
Y02282D02*
X02777D01*
X02451Y01724D02*
X02558D01*
Y01975*
X02451D02*
X02558D01*
X02451Y01724D02*
Y01975D01*
X02826Y01744D02*
X02933D01*
Y01995*
X02826D02*
X02933D01*
X02826Y01744D02*
Y01995D01*
M02*