%FSTAX23Y23*%
%MOIN*%
%SFA1B1*%

%IPPOS*%
%ADD16C,0.049210*%
%ADD17C,0.061810*%
%ADD18R,0.061810X0.061810*%
%ADD19R,0.072840X0.072840*%
%ADD21C,0.072840*%
%ADD24R,0.047240X0.047240*%
%ADD29C,0.062990*%
%ADD31C,0.047240*%
%ADD32C,0.060630*%
%ADD33R,0.049210X0.049210*%
%ADD34R,0.062990X0.062990*%
%ADD38R,0.060630X0.060630*%
%ADD40C,0.015750*%
%ADD41C,0.053150*%
%ADD42C,0.059060*%
%ADD43R,0.059060X0.059060*%
%ADD44R,0.062990X0.062990*%
%ADD45C,0.066930*%
%ADD46C,0.070870*%
%ADD47R,0.070870X0.070870*%
%ADD48R,0.066930X0.066930*%
%ADD49C,0.157480*%
%LNclicguard-1*%
%LPD*%
G36*
X05165Y0101D02*
X0516Y01005D01*
X02315*
Y04255*
X05165*
Y0101*
G37*
%LNclicguard-2*%
%LPC*%
G36*
X04784Y04224D02*
X04775D01*
X04766Y04222*
X04758Y04217*
X04752Y04211*
X04747Y04203*
X04745Y04194*
Y04185*
X04747Y04176*
X04752Y04168*
X04758Y04162*
X04766Y04157*
X04775Y04155*
X04784*
X04793Y04157*
X04801Y04162*
X04807Y04168*
X04812Y04176*
X04814Y04185*
Y04194*
X04812Y04203*
X04807Y04211*
X04801Y04217*
X04793Y04222*
X04784Y04224*
G37*
G36*
X04685Y04145D02*
X04685D01*
Y0411*
X0472*
Y0411*
X04718Y0412*
X04712Y0413*
X04705Y04137*
X04695Y04143*
X04685Y04145*
G37*
G36*
X04675D02*
X04674D01*
X04664Y04143*
X04654Y04137*
X04647Y0413*
X04641Y0412*
X04639Y0411*
Y0411*
X04675*
Y04145*
G37*
G36*
X04885D02*
X04874D01*
X04864Y04143*
X04854Y04137*
X04847Y0413*
X04841Y0412*
X04839Y0411*
Y04101*
X04819Y04081*
X04815Y04084*
X04818Y04089*
X0482Y04099*
Y0411*
X04818Y0412*
X04812Y0413*
X04805Y04137*
X04795Y04143*
X04785Y04145*
X04774*
X04764Y04143*
X04754Y04137*
X04747Y0413*
X04741Y0412*
X04739Y0411*
Y04099*
X04741Y04091*
X04271Y03622*
X04265*
X04258Y0362*
X04252Y03616*
X03771Y03135*
X03669*
Y03204*
X0359*
Y03125*
X03591*
X03593Y0312*
X03569Y03097*
X03565Y03091*
X03564Y03084*
Y03012*
X03565Y03005*
X03569Y02999*
X03592Y02976*
X0359Y0297*
Y02959*
X03593Y02949*
X03598Y0294*
X03605Y02933*
X03614Y02928*
X03624Y02925*
X03635*
X03645Y02928*
X03654Y02933*
X03661Y0294*
X03666Y02949*
X03669Y02959*
Y0297*
X03666Y0298*
X03661Y02989*
X03654Y02996*
X03645Y03001*
X03635Y03004*
X03624*
X03618Y03002*
X036Y03019*
Y03031*
X03605Y03033*
X03605Y03033*
X03614Y03028*
X03624Y03025*
X03635*
X03645Y03028*
X03654Y03033*
X03661Y0304*
X03665Y03046*
X03762*
X03769Y03048*
X03775Y03052*
X03885Y03162*
X0389Y0316*
Y03159*
X03893Y03149*
X03898Y0314*
X03905Y03133*
X03914Y03128*
X03924Y03125*
X03935*
X03945Y03128*
X03954Y03133*
X03961Y0314*
X03966Y03149*
X03969Y03159*
Y0317*
X03967Y03176*
X04403Y03613*
X04408Y03611*
Y03608*
X0441Y03598*
X04415Y0359*
X04422Y03583*
X0443Y03578*
X0444Y03576*
Y03612*
X04445*
Y03617*
X04481*
X04479Y03627*
X04474Y03635*
X0447Y03638*
X0447Y03644*
X04562Y03736*
X04932*
X04936Y03729*
X04944Y03721*
X04953Y03716*
X04964Y03713*
X04975*
X04986Y03716*
X04995Y03721*
X05003Y03729*
X05008Y03738*
X05011Y03749*
Y0376*
X05008Y03771*
X05003Y0378*
X04995Y03788*
X04986Y03793*
X04975Y03796*
X04964*
X04953Y03793*
X04944Y03788*
X04936Y0378*
X04932Y03773*
X04569*
X04567Y03777*
X04859Y04069*
X04864Y04066*
X04874Y04064*
X04885*
X04895Y04066*
X04905Y04072*
X04912Y04079*
X04918Y04089*
X0492Y04099*
Y0411*
X04918Y0412*
X04912Y0413*
X04905Y04137*
X04895Y04143*
X04885Y04145*
G37*
G36*
X0472Y041D02*
X04685D01*
Y04064*
X04685*
X04695Y04066*
X04705Y04072*
X04712Y04079*
X04718Y04089*
X0472Y04099*
Y041*
G37*
G36*
X04675D02*
X04639D01*
Y04099*
X04641Y04089*
X04647Y04079*
X04654Y04072*
X04664Y04066*
X04674Y04064*
X04675*
Y041*
G37*
G36*
X0462Y04145D02*
X04539D01*
Y04064*
X0462*
Y04145*
G37*
G36*
X02433Y04233D02*
X02416D01*
X02399Y0423*
X02382Y04223*
X02368Y04213*
X02356Y04201*
X02346Y04187*
X02339Y0417*
X02336Y04153*
Y04136*
X02339Y04119*
X02346Y04102*
X02356Y04088*
X02368Y04076*
X02382Y04066*
X02399Y04059*
X02416Y04056*
X02433*
X0245Y04059*
X02467Y04066*
X02481Y04076*
X02493Y04088*
X02503Y04102*
X0251Y04119*
X02513Y04136*
Y04153*
X0251Y0417*
X02503Y04187*
X02493Y04201*
X02481Y04213*
X02467Y04223*
X0245Y0423*
X02433Y04233*
G37*
G36*
X05063Y04213D02*
X05046D01*
X05029Y0421*
X05012Y04203*
X04998Y04193*
X04986Y04181*
X04976Y04167*
X04969Y0415*
X04966Y04133*
Y04116*
X04969Y04099*
X04976Y04082*
X04986Y04068*
X04998Y04056*
X05012Y04046*
X05029Y04039*
X05046Y04036*
X05063*
X0508Y04039*
X05097Y04046*
X05111Y04056*
X05123Y04068*
X05133Y04082*
X0514Y04099*
X05143Y04116*
Y04133*
X0514Y0415*
X05133Y04167*
X05123Y04181*
X05111Y04193*
X05097Y04203*
X0508Y0421*
X05063Y04213*
G37*
G36*
X0443Y04001D02*
X0443D01*
Y03965*
X04466*
Y03965*
X04463Y03976*
X04458Y03985*
X0445Y03993*
X04441Y03998*
X0443Y04001*
G37*
G36*
X0442D02*
X04419D01*
X04408Y03998*
X04399Y03993*
X04391Y03985*
X04386Y03976*
X04383Y03965*
Y03965*
X0442*
Y04001*
G37*
G36*
X0378D02*
X0378D01*
Y03965*
X03816*
Y03965*
X03813Y03976*
X03808Y03985*
X038Y03993*
X03791Y03998*
X0378Y04001*
G37*
G36*
X0377D02*
X03769D01*
X03758Y03998*
X03749Y03993*
X03741Y03985*
X03736Y03976*
X03733Y03965*
Y03965*
X0377*
Y04001*
G37*
G36*
X0313D02*
X0313D01*
Y03965*
X03166*
Y03965*
X03163Y03976*
X03158Y03985*
X0315Y03993*
X03141Y03998*
X0313Y04001*
G37*
G36*
X0312D02*
X03119D01*
X03108Y03998*
X03099Y03993*
X03091Y03985*
X03086Y03976*
X03083Y03965*
Y03965*
X0312*
Y04001*
G37*
G36*
X04466Y03955D02*
X0443D01*
Y03918*
X0443*
X04441Y03921*
X0445Y03926*
X04458Y03934*
X04463Y03943*
X04466Y03954*
Y03955*
G37*
G36*
X0442D02*
X04383D01*
Y03954*
X04386Y03943*
X04391Y03934*
X04399Y03926*
X04408Y03921*
X04419Y03918*
X0442*
Y03955*
G37*
G36*
X0433Y04001D02*
X04319D01*
X04308Y03998*
X04299Y03993*
X04291Y03985*
X04286Y03976*
X04283Y03965*
Y03954*
X04286Y03943*
X04291Y03934*
X04299Y03926*
X04308Y03921*
X04319Y03918*
X0433*
X04341Y03921*
X0435Y03926*
X04358Y03934*
X04363Y03943*
X04366Y03954*
Y03965*
X04363Y03976*
X04358Y03985*
X0435Y03993*
X04341Y03998*
X0433Y04001*
G37*
G36*
X03816Y03955D02*
X0378D01*
Y03918*
X0378*
X03791Y03921*
X038Y03926*
X03808Y03934*
X03813Y03943*
X03816Y03954*
Y03955*
G37*
G36*
X0377D02*
X03733D01*
Y03954*
X03736Y03943*
X03741Y03934*
X03749Y03926*
X03758Y03921*
X03769Y03918*
X0377*
Y03955*
G37*
G36*
X0368Y04001D02*
X03669D01*
X03658Y03998*
X03649Y03993*
X03641Y03985*
X03636Y03976*
X03633Y03965*
Y03954*
X03636Y03943*
X03641Y03934*
X03649Y03926*
X03658Y03921*
X03669Y03918*
X0368*
X03691Y03921*
X037Y03926*
X03708Y03934*
X03713Y03943*
X03716Y03954*
Y03965*
X03713Y03976*
X03708Y03985*
X037Y03993*
X03691Y03998*
X0368Y04001*
G37*
G36*
X03166Y03955D02*
X0313D01*
Y03918*
X0313*
X03141Y03921*
X0315Y03926*
X03158Y03934*
X03163Y03943*
X03166Y03954*
Y03955*
G37*
G36*
X0312D02*
X03083D01*
Y03954*
X03086Y03943*
X03091Y03934*
X03099Y03926*
X03108Y03921*
X03119Y03918*
X0312*
Y03955*
G37*
G36*
X0303Y04001D02*
X03019D01*
X03008Y03998*
X02999Y03993*
X02991Y03985*
X02986Y03976*
X02983Y03965*
Y03954*
X02986Y03943*
X02991Y03934*
X02999Y03926*
X03008Y03921*
X03019Y03918*
X0303*
X03041Y03921*
X0305Y03926*
X03058Y03934*
X03063Y03943*
X03066Y03954*
Y03965*
X03063Y03976*
X03058Y03985*
X0305Y03993*
X03041Y03998*
X0303Y04001*
G37*
G36*
X02514Y03929D02*
X02473D01*
Y03888*
X02514*
Y03929*
G37*
G36*
X02463D02*
X02423D01*
Y03888*
X02463*
Y03929*
G37*
G36*
X03404Y03949D02*
X03395D01*
X03385Y03947*
X03377Y03942*
X0337Y03935*
X03365Y03927*
X03363Y03917*
Y03908*
X03365Y03898*
X0337Y0389*
X03377Y03883*
X03385Y03878*
X03395Y03876*
X03404*
X03414Y03878*
X03422Y03883*
X03429Y0389*
X03434Y03898*
X03436Y03908*
Y03917*
X03434Y03927*
X03429Y03935*
X03422Y03942*
X03414Y03947*
X03404Y03949*
G37*
G36*
X02514Y03878D02*
X02473D01*
Y03838*
X02514*
Y03878*
G37*
G36*
X02463D02*
X02423D01*
Y03838*
X02463*
Y03878*
G37*
G36*
X02474Y03791D02*
X02462D01*
X02451Y03788*
X02441Y03782*
X02432Y03774*
X02426Y03763*
X02423Y03752*
Y0374*
X02426Y03728*
X02432Y03718*
X02441Y03709*
X02451Y03703*
X02462Y037*
X02474*
X02486Y03703*
X02496Y03709*
X02505Y03718*
X02511Y03728*
X02514Y0374*
Y03752*
X02511Y03763*
X02505Y03774*
X02496Y03782*
X02486Y03788*
X02474Y03791*
G37*
G36*
X04975Y03696D02*
X04964D01*
X04953Y03693*
X04944Y03688*
X04936Y0368*
X04932Y03673*
X04744*
X04737Y03671*
X04731Y03667*
X04146Y03083*
X03965*
X03961Y03089*
X03954Y03096*
X03945Y03101*
X03935Y03104*
X03924*
X03914Y03101*
X03905Y03096*
X03898Y03089*
X03893Y0308*
X0389Y0307*
Y03059*
X03893Y03049*
X03898Y0304*
X03905Y03033*
X03914Y03028*
X03924Y03025*
X03935*
X03945Y03028*
X03954Y03033*
X03961Y0304*
X03965Y03046*
X0414*
X04142Y03042*
X04083Y02983*
X03965*
X03961Y02989*
X03954Y02996*
X03945Y03001*
X03935Y03004*
X03924*
X03914Y03001*
X03905Y02996*
X03898Y02989*
X03893Y0298*
X0389Y0297*
Y02959*
X03893Y02949*
X03898Y0294*
X03905Y02933*
X03914Y02928*
X03924Y02925*
X03935*
X03945Y02928*
X03954Y02933*
X03961Y0294*
X03965Y02946*
X0409*
X04097Y02948*
X04103Y02952*
X0436Y03208*
X04413*
X04415Y03204*
X04422Y03197*
X0443Y03193*
X0444Y0319*
X04449*
X04459Y03193*
X04467Y03197*
X04474Y03204*
X04479Y03212*
X04481Y03222*
Y03231*
X04479Y03241*
X04474Y03249*
X04467Y03256*
X04459Y03261*
X04449Y03263*
X0444*
X0443Y03261*
X04422Y03256*
X04415Y03249*
X04413Y03245*
X04367*
X04365Y03249*
X04752Y03636*
X04932*
X04936Y03629*
X04944Y03621*
X04953Y03616*
X04964Y03613*
X04975*
X04986Y03616*
X04995Y03621*
X05003Y03629*
X05008Y03638*
X05011Y03649*
Y0366*
X05008Y03671*
X05003Y0368*
X04995Y03688*
X04986Y03693*
X04975Y03696*
G37*
G36*
X04481Y03607D02*
X0445D01*
Y03576*
X04459Y03578*
X04467Y03583*
X04474Y0359*
X04479Y03598*
X04481Y03607*
G37*
G36*
X02904Y03633D02*
X02895D01*
X02887Y03631*
X02879Y03626*
X02873Y0362*
X02868Y03612*
X02866Y03604*
Y03595*
X02868Y03587*
X02873Y03579*
X02879Y03573*
X02887Y03568*
X02895Y03566*
X02904*
X02912Y03568*
X0292Y03573*
X02926Y03579*
X02931Y03587*
X02933Y03595*
Y03604*
X02931Y03612*
X02926Y0362*
X0292Y03626*
X02912Y03631*
X02904Y03633*
G37*
G36*
X04975Y03596D02*
X04975D01*
Y0356*
X05011*
Y0356*
X05008Y03571*
X05003Y0358*
X04995Y03588*
X04986Y03593*
X04975Y03596*
G37*
G36*
X04965D02*
X04964D01*
X04953Y03593*
X04944Y03588*
X04936Y0358*
X04931Y03571*
X04928Y0356*
Y0356*
X04965*
Y03596*
G37*
G36*
X04027Y03606D02*
X04018D01*
X04008Y03604*
X04Y03599*
X03993Y03592*
X03988Y03584*
X03986Y03574*
Y03565*
X03988Y03555*
X03993Y03547*
X04Y0354*
X04008Y03535*
X04018Y03533*
X04027*
X04037Y03535*
X04045Y0354*
X04052Y03547*
X04057Y03555*
X04059Y03565*
Y03574*
X04057Y03584*
X04052Y03592*
X04045Y03599*
X04037Y03604*
X04027Y03606*
G37*
G36*
X03641D02*
X03632D01*
X03622Y03604*
X03614Y03599*
X03607Y03592*
X03603Y03584*
X036Y03574*
Y03565*
X03603Y03555*
X03607Y03547*
X03614Y0354*
X03622Y03535*
X03632Y03533*
X03641*
X03651Y03535*
X03659Y0354*
X03666Y03547*
X03671Y03555*
X03673Y03565*
Y03574*
X03671Y03584*
X03666Y03592*
X03659Y03599*
X03651Y03604*
X03641Y03606*
G37*
G36*
X04965Y0355D02*
X04928D01*
Y03549*
X04931Y03538*
X04936Y03529*
X04944Y03521*
X04953Y03516*
X04964Y03513*
X04965*
Y0355*
G37*
G36*
X02933Y03535D02*
X02905D01*
Y03506*
X02933*
Y03535*
G37*
G36*
X02895D02*
X02866D01*
Y03506*
X02895*
Y03535*
G37*
G36*
X03194Y03564D02*
X03185D01*
X03175Y03562*
X03167Y03557*
X0316Y0355*
X03155Y03542*
X03153Y03532*
Y03523*
X03155Y03513*
X0316Y03505*
X03167Y03498*
X03175Y03493*
X03185Y03491*
X03194*
X03204Y03493*
X03212Y03498*
X03219Y03505*
X03224Y03513*
X03226Y03523*
Y03532*
X03224Y03542*
X03219Y0355*
X03212Y03557*
X03204Y03562*
X03194Y03564*
G37*
G36*
X03404Y03563D02*
X03395D01*
X03385Y03561*
X03377Y03556*
X0337Y03549*
X03365Y03541*
X03363Y03531*
Y03522*
X03365Y03512*
X0337Y03504*
X03377Y03497*
X03385Y03493*
X03395Y0349*
X03404*
X03414Y03493*
X03422Y03497*
X03429Y03504*
X03434Y03512*
X03436Y03522*
Y03531*
X03434Y03541*
X03429Y03549*
X03422Y03556*
X03414Y03561*
X03404Y03563*
G37*
G36*
X02933Y03496D02*
X02905D01*
Y03467*
X02933*
Y03496*
G37*
G36*
X02895D02*
X02866D01*
Y03467*
X02895*
Y03496*
G37*
G36*
X02535Y03358D02*
X02524D01*
X02513Y03355*
X02503Y03349*
X02495Y03341*
X02489Y03331*
X02486Y0332*
Y03309*
X02489Y03298*
X02495Y03288*
X02503Y0328*
X02513Y03274*
X02524Y03271*
X02535*
X02546Y03274*
X02556Y0328*
X02564Y03288*
X0257Y03298*
X02573Y03309*
Y0332*
X0257Y03331*
X02564Y03341*
X02556Y03349*
X02546Y03355*
X02535Y03358*
G37*
G36*
Y03258D02*
X02535D01*
Y0322*
X02573*
Y0322*
X0257Y03231*
X02564Y03241*
X02556Y03249*
X02546Y03255*
X02535Y03258*
G37*
G36*
X02525D02*
X02524D01*
X02513Y03255*
X02503Y03249*
X02495Y03241*
X02489Y03231*
X02486Y0322*
Y0322*
X02525*
Y03258*
G37*
G36*
X02573Y0321D02*
X02535D01*
Y03171*
X02535*
X02546Y03174*
X02556Y0318*
X02564Y03188*
X0257Y03198*
X02573Y03209*
Y0321*
G37*
G36*
X02525D02*
X02486D01*
Y03209*
X02489Y03198*
X02495Y03188*
X02503Y0318*
X02513Y03174*
X02524Y03171*
X02525*
Y0321*
G37*
G36*
X03194Y03178D02*
X03185D01*
X03175Y03176*
X03167Y03171*
X0316Y03164*
X03155Y03156*
X03153Y03146*
Y03137*
X03155Y03127*
X0316Y03119*
X03167Y03112*
X03175Y03108*
X03185Y03105*
X03194*
X03204Y03108*
X03212Y03112*
X03219Y03119*
X03224Y03127*
X03226Y03137*
Y03146*
X03224Y03156*
X03219Y03164*
X03212Y03171*
X03204Y03176*
X03194Y03178*
G37*
G36*
X02573Y03158D02*
X02486D01*
Y03071*
X02573*
Y03158*
G37*
G36*
X05011Y0355D02*
X04975D01*
Y03513*
X04975*
X04983Y03515*
X04998Y03501*
X04996Y03496*
X04928*
Y03413*
X05006*
Y02999*
X05001Y02997*
X05Y02998*
X04991Y03003*
X0498Y03006*
X04969*
X04958Y03003*
X04949Y02998*
X04941Y0299*
X04936Y02981*
X04933Y0297*
Y02959*
X04935Y02951*
X04923Y02938*
X04695*
Y03011*
X04612*
Y02951*
X04607Y02949*
X04525Y03032*
X04519Y03036*
X04512Y03037*
X04205*
X04198Y03036*
X04192Y03032*
X04064Y02904*
X0406Y02898*
X04059Y02891*
Y02753*
X03974Y02667*
X03969Y02669*
Y0267*
X03966Y0268*
X03961Y02689*
X03954Y02696*
X03945Y02701*
X03935Y02704*
X03924*
X03914Y02701*
X03905Y02696*
X03898Y02689*
X03893Y0268*
X0389Y0267*
Y02659*
X03893Y02649*
X03898Y0264*
X03898Y0264*
X03896Y02635*
X03688*
X03668Y02655*
X03669Y02659*
Y0267*
X03666Y0268*
X03661Y02689*
X03656Y02694*
X03657Y027*
X03659Y02702*
X0369Y02732*
X03694Y02738*
X03695Y02745*
Y02817*
X03694Y02824*
X0369Y0283*
X03667Y02853*
X03669Y02859*
Y0287*
X03666Y0288*
X03661Y02889*
X03654Y02896*
X03645Y02901*
X03635Y02904*
X03624*
X03614Y02901*
X03605Y02896*
X03598Y02889*
X03593Y0288*
X0359Y0287*
Y02859*
X03593Y02849*
X03598Y0284*
X03605Y02833*
X03614Y02828*
X03624Y02825*
X03635*
X03641Y02827*
X03659Y0281*
Y02798*
X03654Y02796*
X03654Y02796*
X03645Y02801*
X03635Y02804*
X03624*
X03614Y02801*
X03605Y02796*
X03598Y02789*
X03593Y0278*
X0359Y0277*
Y02759*
X03593Y02749*
X03598Y0274*
X03603Y02735*
X03603Y02732*
X03602Y02729*
X036Y02727*
X03569Y02697*
X03565Y02691*
X03564Y02684*
Y02645*
X03565Y02638*
X03569Y02632*
X03602Y026*
X03602Y02598*
X03602Y02593*
X03598Y02589*
X03593Y0258*
X0359Y0257*
Y02559*
X03593Y02549*
X03598Y0254*
X03605Y02533*
X03614Y02528*
X03624Y02525*
X03635*
X03645Y02528*
X03654Y02533*
X03661Y0254*
X03666Y02549*
X03669Y02559*
Y0256*
X03674Y02562*
X03761Y02474*
Y02347*
Y02347*
X03763Y0234*
X03767Y02335*
X03897Y02204*
X03903Y022*
X03903Y022*
X03904Y02195*
X03898Y02189*
X03893Y0218*
X0389Y0217*
Y02159*
X03893Y02149*
X03898Y0214*
X03903Y02135*
X03901Y0213*
X0369*
X03667Y02153*
X03669Y02159*
Y0217*
X03666Y0218*
X03661Y02189*
X03654Y02196*
X03645Y02201*
X03635Y02204*
X03624*
X03614Y02201*
X03605Y02196*
X03598Y02189*
X03593Y0218*
X0359Y0217*
Y02159*
X03593Y02149*
X03598Y0214*
X03605Y02133*
X03614Y02128*
X03624Y02125*
X03635*
X03641Y02127*
X03669Y02099*
X03675Y02095*
X03682Y02094*
X03896*
X03898Y02089*
X03898Y02089*
X03893Y0208*
X0389Y0207*
Y02059*
X03893Y02049*
X03898Y0204*
X03905Y02033*
X03914Y02028*
X03924Y02025*
X03935*
X03945Y02028*
X03954Y02033*
X03961Y0204*
X03966Y02049*
X03969Y02059*
Y0207*
X03966Y0208*
X03961Y02089*
X03961Y02089*
X03963Y02094*
X0417*
X0417Y02093*
X04175Y02085*
X04182Y02078*
X0419Y02073*
X042Y02071*
X04209*
X04219Y02073*
X04227Y02078*
X04234Y02085*
X04239Y02093*
X04241Y02103*
Y02112*
X04239Y02122*
X04234Y0213*
X04227Y02137*
X04219Y02142*
X04209Y02144*
X042*
X0419Y02142*
X04182Y02137*
X04175Y0213*
X03958*
X03956Y02135*
X03961Y0214*
X03966Y02149*
X03969Y02159*
Y0217*
X03966Y0218*
X03961Y02189*
X03956Y02194*
X03958Y02199*
X03993*
X04Y022*
X04006Y02204*
X04026Y02224*
X04552*
X04659Y02117*
X04658Y02112*
Y02103*
X0466Y02093*
X04665Y02085*
X04672Y02078*
X0468Y02073*
X0469Y02071*
X04699*
X04709Y02073*
X04717Y02078*
X04724Y02085*
X04729Y02093*
X04731Y02101*
X04736Y02103*
X04842Y01997*
Y01379*
X04837Y01377*
X04834Y0138*
X04823Y01386*
X04812Y01389*
X04799*
X04788Y01386*
X04777Y0138*
X04768Y01371*
X04762Y01361*
X04759Y01349*
Y01337*
X04762Y01325*
X04768Y01314*
X04777Y01306*
X04788Y013*
X04799Y01297*
X04812*
X04823Y013*
X04834Y01306*
X04837Y01309*
X04842Y01307*
Y01298*
X04793Y01249*
X04789Y01243*
X04787Y01236*
Y01189*
X04777Y01183*
X04768Y01175*
X04762Y01164*
X04759Y01152*
Y0114*
X04762Y01128*
X04768Y01118*
X04777Y01109*
X04788Y01103*
X04799Y011*
X04812*
X04823Y01103*
X04834Y01109*
X04843Y01118*
X04849Y01128*
X04852Y0114*
Y01152*
X04849Y01164*
X04843Y01175*
X04834Y01183*
X04824Y01189*
Y01229*
X04873Y01278*
X04877Y01284*
X04878Y01291*
Y02005*
X04877Y02012*
X04873Y02018*
X04513Y02377*
X04507Y02381*
X045Y02383*
X03965*
X03961Y02389*
X03954Y02396*
X03945Y02401*
X03935Y02404*
X03924*
X03914Y02401*
X03905Y02396*
X03905Y02396*
X039Y02398*
Y02431*
X03905Y02433*
X03905Y02433*
X03914Y02428*
X03924Y02425*
X03935*
X03945Y02428*
X03954Y02433*
X03961Y0244*
X03966Y02449*
X03969Y02459*
Y0247*
X03967Y02476*
X04137Y02646*
X04933*
Y02623*
X05016*
Y02706*
X04933*
Y02683*
X0418*
X04178Y02687*
X04238Y02748*
X04242Y02753*
X04244Y0276*
Y02932*
X04251Y02936*
X04259Y02944*
X04264Y02953*
X04267Y02964*
Y02975*
X04264Y02986*
X04259Y02995*
X04258Y02996*
X04259Y03001*
X04504*
X04598Y02907*
X04604Y02903*
X04611Y02902*
X0493*
X04937Y02903*
X04943Y02907*
X04961Y02925*
X04969Y02923*
X0498*
X04991Y02926*
X05Y02931*
X05001Y02932*
X05006Y0293*
Y02899*
X05001Y02897*
X05Y02898*
X04991Y02903*
X0498Y02906*
X04969*
X04958Y02903*
X04949Y02898*
X04941Y0289*
X04936Y02881*
X04933Y0287*
Y02859*
X04936Y02848*
X04941Y02839*
X04949Y02831*
X04958Y02826*
X04969Y02823*
X0498*
X04991Y02826*
X05Y02831*
X05001Y02832*
X05006Y0283*
Y02821*
X04988Y02804*
X0498Y02806*
X0498*
Y0277*
X05016*
Y0277*
X05014Y02778*
X05037Y02801*
X05041Y02807*
X05042Y02814*
Y035*
X05041Y03507*
X05037Y03513*
X05009Y03541*
X05011Y03549*
Y0355*
G37*
G36*
X03394Y03054D02*
X03385D01*
X03375Y03052*
X03367Y03047*
X0336Y0304*
X03355Y03032*
X03353Y03022*
Y03013*
X03355Y03003*
X0336Y02995*
X03367Y02988*
X03375Y02983*
X03385Y02981*
X03394*
X03404Y02983*
X03412Y02988*
X03419Y02995*
X03424Y03003*
X03426Y03013*
Y03022*
X03424Y03032*
X03419Y0304*
X03412Y03047*
X03404Y03052*
X03394Y03054*
G37*
G36*
X03013Y02902D02*
X02985D01*
Y02874*
X03013*
Y02902*
G37*
G36*
X02975D02*
X02946D01*
Y02874*
X02975*
Y02902*
G37*
G36*
X03013Y02864D02*
X02985D01*
Y02835*
X03013*
Y02864*
G37*
G36*
X03935Y02904D02*
X03924D01*
X03914Y02901*
X03905Y02896*
X03898Y02889*
X03893Y0288*
X0389Y0287*
Y02859*
X03893Y02849*
X03898Y0284*
X03905Y02833*
X03914Y02828*
X03924Y02825*
X03935*
X03945Y02828*
X03954Y02833*
X03961Y0284*
X03966Y02849*
X03969Y02859*
Y0287*
X03966Y0288*
X03961Y02889*
X03954Y02896*
X03945Y02901*
X03935Y02904*
G37*
G36*
X0497Y02806D02*
X04969D01*
X04958Y02803*
X04949Y02798*
X04941Y0279*
X04936Y02781*
X04933Y0277*
Y0277*
X0497*
Y02806*
G37*
G36*
X02984Y02804D02*
X02975D01*
X02967Y02802*
X02959Y02797*
X02953Y02791*
X02948Y02783*
X02946Y02775*
Y02766*
X02948Y02757*
X02953Y0275*
X02959Y02743*
X02967Y02739*
X02975Y02737*
X02984*
X02992Y02739*
X03Y02743*
X03006Y0275*
X03011Y02757*
X03013Y02766*
Y02775*
X03011Y02783*
X03006Y02791*
X03Y02797*
X02992Y02802*
X02984Y02804*
G37*
G36*
X03935Y02804D02*
X03924D01*
X03914Y02801*
X03905Y02796*
X03898Y02789*
X03893Y0278*
X0389Y0277*
Y02759*
X03893Y02749*
X03898Y0274*
X03905Y02733*
X03914Y02728*
X03924Y02725*
X03935*
X03945Y02728*
X03954Y02733*
X03961Y0274*
X03966Y02749*
X03969Y02759*
Y0277*
X03966Y0278*
X03961Y02789*
X03954Y02796*
X03945Y02801*
X03935Y02804*
G37*
G36*
X05016Y0276D02*
X0498D01*
Y02723*
X0498*
X04991Y02726*
X05Y02731*
X05008Y02739*
X05013Y02748*
X05016Y02759*
Y0276*
G37*
G36*
X0497D02*
X04933D01*
Y02759*
X04936Y02748*
X04941Y02739*
X04949Y02731*
X04958Y02726*
X04969Y02723*
X0497*
Y0276*
G37*
G36*
X03394Y02668D02*
X03385D01*
X03375Y02666*
X03367Y02661*
X0336Y02654*
X03355Y02646*
X03353Y02636*
Y02627*
X03355Y02617*
X0336Y02609*
X03367Y02602*
X03375Y02598*
X03385Y02595*
X03394*
X03404Y02598*
X03412Y02602*
X03419Y02609*
X03424Y02617*
X03426Y02627*
Y02636*
X03424Y02646*
X03419Y02654*
X03412Y02661*
X03404Y02666*
X03394Y02668*
G37*
G36*
X04414Y02619D02*
X04405D01*
X04396Y02616*
X04388Y02612*
X04382Y02605*
X04377Y02597*
X04375Y02589*
Y0258*
X04377Y02571*
X04382Y02563*
X04388Y02556*
X04396Y02552*
X04405Y0255*
X04414*
X04423Y02552*
X04431Y02556*
X04437Y02563*
X04442Y02571*
X04444Y0258*
Y02589*
X04442Y02597*
X04437Y02605*
X04431Y02612*
X04423Y02616*
X04414Y02619*
G37*
G36*
X02975Y02864D02*
X02946D01*
Y02861*
X0273Y02645*
X02726Y02639*
X02724Y02632*
Y02534*
X02718Y0253*
X0271Y02523*
X02705Y02514*
X02702Y02503*
Y02503*
X02742*
X02783*
Y02503*
X0278Y02514*
X02775Y02523*
X02767Y0253*
X02761Y02534*
Y02624*
X02972Y02835*
X02975*
Y02864*
G37*
G36*
X03635Y02504D02*
X03635D01*
Y0247*
X03669*
Y0247*
X03666Y0248*
X03661Y02489*
X03654Y02496*
X03645Y02501*
X03635Y02504*
G37*
G36*
X03625D02*
X03624D01*
X03614Y02501*
X03605Y02496*
X03598Y02489*
X03593Y0248*
X0359Y0247*
Y0247*
X03625*
Y02504*
G37*
G36*
X02783Y02493D02*
X02747D01*
Y02458*
X02748*
X02758Y02461*
X02767Y02466*
X02775Y02473*
X0278Y02483*
X02783Y02493*
Y02493*
G37*
G36*
X02737D02*
X02702D01*
Y02493*
X02705Y02483*
X0271Y02473*
X02718Y02466*
X02727Y02461*
X02737Y02458*
X02737*
Y02493*
G37*
G36*
X02527Y02538D02*
X02446D01*
Y02458*
X02527*
Y02538*
G37*
G36*
X03669Y0246D02*
X03635D01*
Y02425*
X03635*
X03645Y02428*
X03654Y02433*
X03661Y0244*
X03666Y02449*
X03669Y02459*
Y0246*
G37*
G36*
X03625D02*
X0359D01*
Y02459*
X03593Y02449*
X03598Y0244*
X03605Y02433*
X03614Y02428*
X03624Y02425*
X03625*
Y0246*
G37*
G36*
X03635Y02404D02*
X03624D01*
X03614Y02401*
X03605Y02396*
X03598Y02389*
X03593Y0238*
X0359Y0237*
Y02359*
X03593Y02349*
X03598Y0234*
X03605Y02333*
X03614Y02328*
X03624Y02325*
X03635*
X03645Y02328*
X03654Y02333*
X03661Y0234*
X03666Y02349*
X03669Y02359*
Y0237*
X03666Y0238*
X03661Y02389*
X03654Y02396*
X03645Y02401*
X03635Y02404*
G37*
G36*
X02492Y02361D02*
X02481D01*
X02471Y02358*
X02462Y02353*
X02454Y02346*
X02449Y02336*
X02446Y02326*
Y02316*
X02449Y02305*
X02454Y02296*
X02462Y02289*
X02471Y02283*
X02481Y02281*
X02492*
X02502Y02283*
X02511Y02289*
X02519Y02296*
X02524Y02305*
X02527Y02316*
Y02326*
X02524Y02336*
X02519Y02346*
X02511Y02353*
X02502Y02358*
X02492Y02361*
G37*
G36*
X03635Y02304D02*
X03624D01*
X03614Y02301*
X03605Y02296*
X03598Y02289*
X03593Y0228*
X0359Y0227*
Y02259*
X03593Y02249*
X03598Y0224*
X03605Y02233*
X03614Y02228*
X03624Y02225*
X03635*
X03645Y02228*
X03654Y02233*
X03661Y0224*
X03666Y02249*
X03669Y02259*
Y0227*
X03666Y0228*
X03661Y02289*
X03654Y02296*
X03645Y02301*
X03635Y02304*
G37*
G36*
X03363Y02269D02*
X03296D01*
Y02202*
X03363*
Y02269*
G37*
G36*
X04455Y02144D02*
Y02112D01*
X04486*
X04484Y02122*
X04479Y0213*
X04472Y02137*
X04464Y02142*
X04455Y02144*
G37*
G36*
X04445D02*
X04435Y02142D01*
X04427Y02137*
X0442Y0213*
X04415Y02122*
X04413Y02112*
X04445*
Y02144*
G37*
G36*
X04486Y02102D02*
X04455D01*
Y02071*
X04464Y02073*
X04472Y02078*
X04479Y02085*
X04484Y02093*
X04486Y02102*
G37*
G36*
X04445D02*
X04413D01*
X04415Y02093*
X0442Y02085*
X04427Y02078*
X04435Y02073*
X04445Y02071*
Y02102*
G37*
G36*
X03635Y02104D02*
X03624D01*
X03614Y02101*
X03605Y02096*
X03598Y02089*
X03593Y0208*
X0359Y0207*
Y02059*
X03593Y02049*
X03598Y0204*
X03605Y02033*
X03614Y02028*
X03624Y02025*
X03635*
X03645Y02028*
X03654Y02033*
X03661Y0204*
X03666Y02049*
X03669Y02059*
Y0207*
X03666Y0208*
X03661Y02089*
X03654Y02096*
X03645Y02101*
X03635Y02104*
G37*
G36*
X03334Y02077D02*
X03325D01*
X03317Y02075*
X03309Y0207*
X03303Y02064*
X03298Y02056*
X03296Y02048*
Y02039*
X03298Y0203*
X03303Y02023*
X03309Y02017*
X03317Y02012*
X03325Y0201*
X03334*
X03342Y02012*
X0335Y02017*
X03356Y02023*
X03361Y0203*
X03363Y02039*
Y02048*
X03361Y02056*
X03356Y02064*
X0335Y0207*
X03342Y02075*
X03334Y02077*
G37*
G36*
X02885Y02001D02*
Y01973D01*
X02913*
X02911Y01981*
X02906Y01989*
X029Y01995*
X02892Y01999*
X02885Y02001*
G37*
G36*
X02875D02*
X02867Y01999D01*
X02859Y01995*
X02853Y01989*
X02848Y01981*
X02846Y01973*
X02875*
Y02001*
G37*
G36*
X0251Y01981D02*
Y01953D01*
X02538*
X02536Y01961*
X02531Y01969*
X02525Y01975*
X02517Y01979*
X0251Y01981*
G37*
G36*
X025D02*
X02492Y01979D01*
X02484Y01975*
X02478Y01969*
X02473Y01961*
X02471Y01953*
X025*
Y01981*
G37*
G36*
X02913Y01963D02*
X02885D01*
Y01934*
X02892Y01937*
X029Y01941*
X02906Y01947*
X02911Y01955*
X02913Y01963*
G37*
G36*
X02875D02*
X02846D01*
X02848Y01955*
X02853Y01947*
X02859Y01941*
X02867Y01937*
X02875Y01934*
Y01963*
G37*
G36*
X03935Y02004D02*
X03924D01*
X03914Y02001*
X03905Y01996*
X03898Y01989*
X03893Y0198*
X0389Y0197*
Y01959*
X03893Y01949*
X03898Y0194*
X03905Y01933*
X03914Y01928*
X03924Y01925*
X03935*
X03945Y01928*
X03954Y01933*
X03961Y0194*
X03966Y01949*
X03969Y01959*
Y0197*
X03966Y0198*
X03961Y01989*
X03954Y01996*
X03945Y02001*
X03935Y02004*
G37*
G36*
X03635D02*
X03624D01*
X03614Y02001*
X03605Y01996*
X03598Y01989*
X03593Y0198*
X0359Y0197*
Y01959*
X03593Y01949*
X03598Y0194*
X03605Y01933*
X03614Y01928*
X03624Y01925*
X03635*
X03645Y01928*
X03654Y01933*
X03661Y0194*
X03666Y01949*
X03669Y01959*
Y0197*
X03666Y0198*
X03661Y01989*
X03654Y01996*
X03645Y02001*
X03635Y02004*
G37*
G36*
X02538Y01943D02*
X0251D01*
Y01914*
X02517Y01917*
X02525Y01921*
X02531Y01927*
X02536Y01935*
X02538Y01943*
G37*
G36*
X025D02*
X02471D01*
X02473Y01935*
X02478Y01927*
X02484Y01921*
X02492Y01917*
X025Y01914*
Y01943*
G37*
G36*
X03935Y01904D02*
X03924D01*
X03914Y01901*
X03905Y01896*
X03898Y01889*
X03893Y0188*
X0389Y0187*
Y01859*
X03893Y01849*
X03898Y0184*
X03905Y01833*
X03914Y01828*
X03924Y01825*
X03935*
X03945Y01828*
X03954Y01833*
X03961Y0184*
X03966Y01849*
X03969Y01859*
Y0187*
X03966Y0188*
X03961Y01889*
X03954Y01896*
X03945Y01901*
X03935Y01904*
G37*
G36*
X03635D02*
X03624D01*
X03614Y01901*
X03605Y01896*
X03598Y01889*
X03593Y0188*
X0359Y0187*
Y01859*
X03593Y01849*
X03598Y0184*
X03605Y01833*
X03614Y01828*
X03624Y01825*
X03635*
X03645Y01828*
X03654Y01833*
X03661Y0184*
X03666Y01849*
X03669Y01859*
Y0187*
X03666Y0188*
X03661Y01889*
X03654Y01896*
X03645Y01901*
X03635Y01904*
G37*
G36*
X02913Y01805D02*
X02846D01*
Y01737*
X02913*
Y01805*
G37*
G36*
X047Y01758D02*
Y01727D01*
X04731*
X04729Y01736*
X04724Y01744*
X04717Y01751*
X04709Y01756*
X047Y01758*
G37*
G36*
X0421D02*
Y01727D01*
X04241*
X04239Y01736*
X04234Y01744*
X04227Y01751*
X04219Y01756*
X0421Y01758*
G37*
G36*
X0469D02*
X0468Y01756D01*
X04672Y01751*
X04665Y01744*
X0466Y01736*
X04658Y01727*
X0469*
Y01758*
G37*
G36*
X042D02*
X0419Y01756D01*
X04182Y01751*
X04175Y01744*
X0417Y01736*
X04168Y01727*
X042*
Y01758*
G37*
G36*
X02538Y01785D02*
X02471D01*
Y01717*
X02538*
Y01785*
G37*
G36*
X04731Y01717D02*
X047D01*
Y01685*
X04709Y01688*
X04717Y01692*
X04724Y01699*
X04729Y01707*
X04731Y01717*
G37*
G36*
X04241D02*
X0421D01*
Y01685*
X04219Y01688*
X04227Y01692*
X04234Y01699*
X04239Y01707*
X04241Y01717*
G37*
G36*
X0469D02*
X04658D01*
X0466Y01707*
X04665Y01699*
X04672Y01692*
X0468Y01688*
X0469Y01685*
Y01717*
G37*
G36*
X042D02*
X04168D01*
X0417Y01707*
X04175Y01699*
X04182Y01692*
X0419Y01688*
X042Y01685*
Y01717*
G37*
G36*
X04454Y01758D02*
X04445D01*
X04435Y01756*
X04427Y01751*
X0442Y01744*
X04415Y01736*
X04413Y01726*
Y01717*
X04415Y01707*
X0442Y01699*
X04427Y01692*
X04435Y01688*
X04445Y01685*
X04454*
X04464Y01688*
X04472Y01692*
X04479Y01699*
X04484Y01707*
X04486Y01717*
Y01726*
X04484Y01736*
X04479Y01744*
X04472Y01751*
X04464Y01756*
X04454Y01758*
G37*
G36*
X0436Y01389D02*
X04267D01*
Y01297*
X0436*
Y01389*
G37*
G36*
X03977D02*
X03964D01*
X03953Y01386*
X03942Y0138*
X03933Y01371*
X03927Y01361*
X03924Y01349*
Y01337*
X03927Y01325*
X03933Y01314*
X03942Y01306*
X03953Y013*
X03964Y01297*
X03977*
X03988Y013*
X03999Y01306*
X04008Y01314*
X04014Y01325*
X04017Y01337*
Y01349*
X04014Y01361*
X04008Y01371*
X03999Y0138*
X03988Y01386*
X03977Y01389*
G37*
G36*
X03525D02*
X03432D01*
Y01297*
X03525*
Y01389*
G37*
G36*
X03147D02*
X03134D01*
X03123Y01386*
X03112Y0138*
X03103Y01371*
X03097Y01361*
X03094Y01349*
Y01337*
X03097Y01325*
X03103Y01314*
X03112Y01306*
X03123Y013*
X03134Y01297*
X03147*
X03158Y013*
X03169Y01306*
X03178Y01314*
X03184Y01325*
X03187Y01337*
Y01349*
X03184Y01361*
X03178Y01371*
X03169Y0138*
X03158Y01386*
X03147Y01389*
G37*
G36*
X02695D02*
X02602D01*
Y01297*
X02695*
Y01389*
G37*
G36*
X0432Y01192D02*
X04307D01*
X04296Y01189*
X04285Y01183*
X04276Y01175*
X0427Y01164*
X04267Y01152*
Y0114*
X0427Y01128*
X04276Y01118*
X04285Y01109*
X04296Y01103*
X04307Y011*
X0432*
X04331Y01103*
X04342Y01109*
X04351Y01118*
X04357Y01128*
X0436Y0114*
Y01152*
X04357Y01164*
X04351Y01175*
X04342Y01183*
X04331Y01189*
X0432Y01192*
G37*
G36*
X02748Y02361D02*
X02737D01*
X02727Y02358*
X02718Y02353*
X0271Y02346*
X02705Y02336*
X02702Y02326*
Y02316*
X02705Y02305*
X0271Y02296*
X02718Y02289*
X02724Y02285*
Y01544*
X02726Y01537*
X0273Y01531*
X03097Y01164*
X03094Y01152*
Y0114*
X03097Y01128*
X03103Y01118*
X03112Y01109*
X03123Y01103*
X03134Y011*
X03147*
X03158Y01103*
X03169Y01109*
X03178Y01118*
X03184Y01128*
X03187Y0114*
Y01152*
X03184Y01164*
X03178Y01175*
X03169Y01183*
X03158Y01189*
X03147Y01192*
X03134*
X03123Y01189*
X02761Y01552*
Y02285*
X02767Y02289*
X02775Y02296*
X02778Y02302*
X02789*
X03927Y01164*
X03924Y01152*
Y0114*
X03927Y01128*
X03933Y01118*
X03942Y01109*
X03953Y01103*
X03964Y011*
X03977*
X03988Y01103*
X03999Y01109*
X04008Y01118*
X04014Y01128*
X04017Y0114*
Y01152*
X04014Y01164*
X04008Y01175*
X03999Y01183*
X03988Y01189*
X03977Y01192*
X03964*
X03953Y01189*
X02809Y02333*
X02803Y02337*
X02796Y02338*
X02779*
X02775Y02346*
X02767Y02353*
X02758Y02358*
X02748Y02361*
G37*
G36*
X03485Y01192D02*
X03472D01*
X03461Y01189*
X0345Y01183*
X03441Y01175*
X03435Y01164*
X03432Y01152*
Y0114*
X03435Y01128*
X03441Y01118*
X0345Y01109*
X03461Y01103*
X03472Y011*
X03485*
X03496Y01103*
X03507Y01109*
X03516Y01118*
X03522Y01128*
X03525Y0114*
Y01152*
X03522Y01164*
X03516Y01175*
X03507Y01183*
X03496Y01189*
X03485Y01192*
G37*
G36*
X02655D02*
X02642D01*
X02631Y01189*
X0262Y01183*
X02611Y01175*
X02605Y01164*
X02602Y01152*
Y0114*
X02605Y01128*
X02611Y01118*
X0262Y01109*
X02631Y01103*
X02642Y011*
X02655*
X02666Y01103*
X02677Y01109*
X02686Y01118*
X02692Y01128*
X02695Y0114*
Y01152*
X02692Y01164*
X02686Y01175*
X02677Y01183*
X02666Y01189*
X02655Y01192*
G37*
G36*
X05063Y01198D02*
X05046D01*
X05029Y01195*
X05012Y01188*
X04998Y01178*
X04986Y01166*
X04976Y01152*
X04969Y01135*
X04966Y01118*
Y01101*
X04969Y01084*
X04976Y01067*
X04986Y01053*
X04998Y01041*
X05012Y01031*
X05029Y01024*
X05046Y01021*
X05063*
X0508Y01024*
X05097Y01031*
X05111Y01041*
X05123Y01053*
X05133Y01067*
X0514Y01084*
X05143Y01101*
Y01118*
X0514Y01135*
X05133Y01152*
X05123Y01166*
X05111Y01178*
X05097Y01188*
X0508Y01195*
X05063Y01198*
G37*
G36*
X02438D02*
X02421D01*
X02404Y01195*
X02387Y01188*
X02373Y01178*
X02361Y01166*
X02351Y01152*
X02344Y01135*
X02341Y01118*
Y01101*
X02344Y01084*
X02351Y01067*
X02361Y01053*
X02373Y01041*
X02387Y01031*
X02404Y01024*
X02421Y01021*
X02438*
X02455Y01024*
X02472Y01031*
X02486Y01041*
X02498Y01053*
X02508Y01067*
X02515Y01084*
X02518Y01101*
Y01118*
X02515Y01135*
X02508Y01152*
X02498Y01166*
X02486Y01178*
X02472Y01188*
X02455Y01195*
X02438Y01198*
G37*
%LNclicguard-3*%
%LPD*%
G36*
X04803Y04065D02*
X04439Y03701D01*
X04408*
X04406Y03705*
X04766Y04066*
X04774Y04064*
X04785*
X04795Y04066*
X048Y04069*
X04803Y04065*
G37*
G36*
X04295Y03555D02*
X03941Y03202D01*
X03935Y03204*
X03934*
X03932Y03209*
X04283Y03559*
X04289*
X04292Y0356*
X04295Y03555*
G37*
G36*
X04184Y02966D02*
Y02964D01*
X04187Y02953*
X04192Y02944*
X042Y02936*
X04207Y02932*
Y02768*
X04117Y02677*
X03941Y02502*
X03935Y02504*
X03924*
X03914Y02501*
X03905Y02496*
X03905Y02496*
X039Y02498*
Y0251*
X03918Y02527*
X03924Y02525*
X03925*
Y0256*
X0389*
Y02559*
X03892Y02553*
X03869Y0253*
X03865Y02524*
X03864Y02517*
Y02345*
X03865Y02338*
X03869Y02332*
X03899Y02302*
X03902Y023*
X03903Y02294*
X03898Y02289*
X03893Y0228*
X0389Y0227*
Y02269*
X03885Y02267*
X03798Y02355*
Y02482*
X03796Y02489*
X03792Y02494*
X03693Y02594*
X03694Y02599*
X03901*
X03903Y02594*
X03898Y02589*
X03893Y0258*
X0389Y0257*
Y0257*
X03969*
Y0257*
X03966Y0258*
X03961Y02589*
X03955Y02595*
X03956Y026*
X03956Y026*
X03962Y02604*
X0409Y02732*
X04094Y02738*
X04095Y02745*
Y02883*
X04179Y02967*
X04184Y02966*
G37*
G36*
X04063Y02272D02*
D01*
X04069Y02268*
X04076Y02267*
X04375*
Y02261*
X04019*
X04012Y02259*
X04006Y02255*
X03986Y02235*
X03963*
X03961Y0224*
X03961Y0224*
X03966Y02249*
X03969Y02259*
Y0227*
X03966Y0228*
X03961Y02289*
X03958Y02292*
X0396Y02297*
X04039*
X04063Y02272*
G37*
G36*
X04689Y0215D02*
X04687Y02145D01*
X04684Y02144*
X04572Y02255*
X04566Y02259*
X0456Y02261*
X04444*
Y0228*
X0441*
Y02285*
X04405*
Y0232*
X04375*
Y02303*
X04084*
X04059Y02328*
X04053Y02332*
X04046Y02333*
X03961*
X03959Y02338*
X03961Y0234*
X03965Y02346*
X04493*
X04689Y0215*
G37*
%LNclicguard-4*%
%LPC*%
G36*
X03969Y0256D02*
X03935D01*
Y02525*
X03935*
X03945Y02528*
X03954Y02533*
X03961Y0254*
X03966Y02549*
X03969Y02559*
Y0256*
G37*
G36*
X04444Y0232D02*
X04415D01*
Y0229*
X04444*
Y0232*
G37*
%LNclicguard-5*%
%LPD*%
G54D16*
X0478Y0419D03*
X0441Y02584D03*
G54D17*
X0488Y04105D03*
X0478D03*
X0468D03*
G54D18*
X0458Y04105D03*
G54D19*
X02648Y01343D03*
X03478D03*
X04313D03*
G54D21*
X03141Y01343D03*
X04806D03*
X03971D03*
X04806Y01146D03*
X03971D03*
X03141D03*
X02648D03*
X03478D03*
X04313D03*
G54D24*
X0333Y02236D03*
X02505Y01751D03*
X0288Y01771D03*
X029Y03501D03*
X0298Y02869D03*
G54D29*
X03675Y0396D03*
X04975Y02865D03*
Y02965D03*
X0497Y03655D03*
Y03755D03*
X04225Y0297D03*
X0497Y03555D03*
X04975Y02765D03*
X04425Y0396D03*
X04325D03*
X03125D03*
X03025D03*
X03775D03*
G54D31*
X0333Y02043D03*
X0298Y0277D03*
X029Y036D03*
X02505Y01948D03*
X0288Y01968D03*
G54D32*
X02742Y02321D03*
X02487D03*
X02742Y02498D03*
G54D33*
X0441Y02285D03*
G54D34*
X04654Y0297D03*
G54D38*
X02487Y02498D03*
G54D40*
X03882Y02345D02*
Y02517D01*
X0486Y01291D02*
Y02005D01*
X03993Y02217D02*
X04019Y02242D01*
X04806Y01146D02*
Y01236D01*
X03912Y02315D02*
X04046D01*
X0391Y02217D02*
X03993D01*
X0378Y02347D02*
Y02482D01*
Y02347D02*
X0391Y02217D01*
X03882Y02345D02*
X03912Y02315D01*
X04046D02*
X04076Y02285D01*
X045Y02365D02*
X0486Y02005D01*
X03649Y02612D02*
X0378Y02482D01*
X04806Y01236D02*
X0486Y01291D01*
X0393Y02365D02*
X045D01*
X04076Y02285D02*
X0441D01*
X04611Y0292D02*
X0493D01*
X05024Y02814D02*
Y035D01*
X04975Y02765D02*
X05024Y02814D01*
X0493Y0292D02*
X04975Y02965D01*
X0497Y03555D02*
X05024Y035D01*
X02742Y01544D02*
Y02321D01*
Y01544D02*
X03141Y01146D01*
X02743Y0232D02*
X02796D01*
X03971Y01146*
X02742Y02321D02*
X02743Y0232D01*
X0363Y02165D02*
X03682Y02112D01*
X042*
X0393Y02965D02*
X0409D01*
X04352Y03227D02*
X04445D01*
X0409Y02965D02*
X04352Y03227D01*
X0393Y03065D02*
X04154D01*
X04744Y03655*
X0413Y02665D02*
X04225Y0276D01*
X0413Y02665D02*
X04975D01*
X0393Y02465D02*
X0413Y02665D01*
X03633D02*
X0368Y02617D01*
X03949*
X04077Y02745*
X04205Y03019D02*
X04512D01*
X04611Y0292*
X0363Y02865D02*
X03677Y02817D01*
X03647Y02715D02*
X03677Y02745D01*
X03612Y02715D02*
X03647D01*
X03582Y02645D02*
X03615Y02612D01*
X0363Y02665D02*
X03633D01*
X03582Y02645D02*
Y02684D01*
X03615Y02612D02*
X03649D01*
X04077Y02891D02*
X04205Y03019D01*
X03677Y02745D02*
Y02817D01*
X03582Y02684D02*
X03612Y02715D01*
X04077Y02745D02*
Y02891D01*
X04225Y0276D02*
Y0297D01*
X042Y02112D02*
X04205Y02107D01*
X04019Y02242D02*
X0456D01*
X04695Y02107*
X03882Y02517D02*
X0393Y02565D01*
X04744Y03655D02*
X0497D01*
X0393Y03165D02*
X04422Y03657D01*
X04457*
X04555Y03755*
X03615Y03117D02*
X03779D01*
X04394Y03683D02*
X04446D01*
X04868Y04105D02*
X0488D01*
X04275Y03578D02*
X04289D01*
X04394Y03683*
X0363Y03065D02*
X03762D01*
X04278Y03603D02*
X0478Y04105D01*
X03779Y03117D02*
X04265Y03603D01*
X03762Y03065D02*
X04275Y03578D01*
X04555Y03755D02*
X0497D01*
X04446Y03683D02*
X04868Y04105D01*
X04265Y03603D02*
X04278D01*
X03582Y03012D02*
X0363Y02965D01*
X03582Y03012D02*
Y03084D01*
X03615Y03117*
X02742Y02498D02*
Y02632D01*
X0298Y02869*
G54D41*
X04205Y01722D03*
X04695Y02107D03*
X0339Y03017D03*
X03637Y0357D03*
X0445Y01722D03*
X0319Y03527D03*
X04445Y03227D03*
X0339Y02632D03*
X034Y03527D03*
X0319Y03142D03*
X04205Y02107D03*
X04445Y03612D03*
X04022Y0357D03*
X0445Y02107D03*
X034Y03912D03*
X04695Y01722D03*
G54D42*
X0363Y02165D03*
Y02865D03*
X0393Y02665D03*
X0363Y02365D03*
Y02265D03*
X0393Y02765D03*
X0363Y02965D03*
Y03065D03*
Y02765D03*
Y02665D03*
X0393Y03065D03*
Y03165D03*
Y01865D03*
X0363Y02065D03*
X0393Y02965D03*
Y02465D03*
X0363Y02565D03*
X0393Y02365D03*
Y01965D03*
Y02065D03*
Y02165D03*
Y02265D03*
Y02565D03*
Y02865D03*
X0363Y01865D03*
Y01965D03*
Y02465D03*
G54D43*
X0363Y03165D03*
G54D44*
X0497Y03455D03*
X04975Y02665D03*
G54D45*
X0253Y03315D03*
Y03215D03*
G54D46*
X02468Y03746D03*
G54D47*
X02468Y03883D03*
G54D48*
X0253Y03115D03*
G54D49*
X05055Y04125D03*
X0243Y0111D03*
X05055D03*
X02425Y04145D03*
M02*