%FSTAX23Y23*%
%MOIN*%
%SFA1B1*%

%IPPOS*%
%ADD12C,0.007870*%
%ADD13C,0.005910*%
%LNclicguard-1*%
%LPD*%
G54D12*
X04934Y03971D02*
Y04208D01*
X04525D02*
X04934D01*
X04525Y03971D02*
Y04208D01*
Y03971D02*
X04934D01*
X02654Y01485D02*
X03135D01*
Y01004D02*
Y01485D01*
X02654Y01004D02*
X03135D01*
X02654D02*
Y01485D01*
X03484D02*
X03965D01*
Y01004D02*
Y01485D01*
X03484Y01004D02*
X03965D01*
X03484D02*
Y01485D01*
X04337Y02916D02*
X04542D01*
X04337D02*
Y03023D01*
X04542*
Y02916D02*
Y03023D01*
X04319Y01004D02*
Y01485D01*
Y01004D02*
X048D01*
Y01485*
X04319D02*
X048D01*
X02738Y02286D02*
Y02533D01*
X02491D02*
X02738D01*
X02491Y02286D02*
Y02533D01*
Y02286D02*
X02738D01*
X02455Y01771D02*
X02554D01*
Y01928*
X02455D02*
X02554D01*
X02455Y01771D02*
Y01928D01*
X0283Y01791D02*
X02929D01*
Y01948*
X0283D02*
X02929D01*
X0283Y01791D02*
Y01948D01*
G54D13*
X04646Y02435D02*
X04646Y02445D01*
X04645Y02455*
X04644Y02465*
X04642Y02474*
X0464Y02484*
X04638Y02494*
X04635Y02504*
X04632Y02513*
X04629Y02523*
X04625Y02532*
X0462Y02541*
X04616Y0255*
X04611Y02558*
X04605Y02567*
X04599Y02575*
X04593Y02583*
X04587Y02591*
X0458Y02598*
X04573Y02605*
X04566Y02612*
X04558Y02618*
X0455Y02624*
X04542Y0263*
X04533Y02636*
X04525Y02641*
X04516Y02645*
X04507Y0265*
X04498Y02654*
X04488Y02657*
X04479Y0266*
X04469Y02663*
X04459Y02665*
X04449Y02667*
X0444Y02669*
X0443Y0267*
X0442Y02671*
X0441Y02671*
X04399Y02671*
X04389Y0267*
X0438Y02669*
X0437Y02667*
X0436Y02665*
X0435Y02663*
X0434Y0266*
X04331Y02657*
X04321Y02654*
X04312Y0265*
X04303Y02645*
X04294Y02641*
X04286Y02636*
X04277Y0263*
X04269Y02624*
X04261Y02618*
X04253Y02612*
X04246Y02605*
X04239Y02598*
X04232Y02591*
X04226Y02583*
X0422Y02575*
X04214Y02567*
X04208Y02558*
X04203Y0255*
X04199Y02541*
X04194Y02532*
X0419Y02523*
X04187Y02513*
X04184Y02504*
X04181Y02494*
X04179Y02484*
X04177Y02474*
X04175Y02465*
X04174Y02455*
X04173Y02445*
X04173Y02435*
X04173Y02424*
X04174Y02414*
X04175Y02404*
X04177Y02395*
X04179Y02385*
X04181Y02375*
X04184Y02365*
X04187Y02356*
X0419Y02346*
X04194Y02337*
X04199Y02328*
X04203Y02319*
X04208Y02311*
X04214Y02302*
X0422Y02294*
X04226Y02286*
X04232Y02278*
X04239Y02271*
X04246Y02264*
X04253Y02257*
X04261Y02251*
X04269Y02245*
X04277Y02239*
X04286Y02233*
X04294Y02228*
X04303Y02224*
X04312Y02219*
X04321Y02215*
X04331Y02212*
X0434Y02209*
X0435Y02206*
X0436Y02204*
X0437Y02202*
X0438Y022*
X04389Y02199*
X04399Y02198*
X0441Y02198*
X0442Y02198*
X0443Y02199*
X0444Y022*
X04449Y02202*
X04459Y02204*
X04469Y02206*
X04479Y02209*
X04488Y02212*
X04498Y02215*
X04507Y02219*
X04516Y02224*
X04525Y02228*
X04533Y02233*
X04542Y02239*
X0455Y02245*
X04558Y02251*
X04566Y02257*
X04573Y02264*
X0458Y02271*
X04587Y02278*
X04593Y02286*
X04599Y02294*
X04605Y02302*
X04611Y02311*
X04616Y02319*
X0462Y02328*
X04625Y02337*
X04629Y02346*
X04632Y02356*
X04635Y02365*
X04638Y02375*
X0464Y02385*
X04642Y02395*
X04644Y02405*
X04645Y02414*
X04646Y02424*
X04646Y02435*
X03033Y0355D02*
X03033Y0356D01*
X03032Y0357*
X0303Y0358*
X03027Y0359*
X03024Y03599*
X0302Y03608*
X03015Y03617*
X0301Y03626*
X03004Y03634*
X02998Y03641*
X02991Y03648*
X02983Y03655*
X02975Y03661*
X02966Y03666*
X02958Y03671*
X02948Y03675*
X02939Y03678*
X02929Y03681*
X02919Y03683*
X0291Y03684*
X029Y03684*
X0289Y03684*
X0288Y03683*
X0287Y03681*
X0286Y03678*
X02851Y03675*
X02841Y03671*
X02833Y03666*
X02824Y03661*
X02816Y03655*
X02808Y03648*
X02801Y03641*
X02795Y03634*
X02789Y03626*
X02784Y03617*
X02779Y03608*
X02775Y03599*
X02772Y0359*
X02769Y0358*
X02767Y0357*
X02766Y0356*
X02766Y0355*
X02766Y0354*
X02767Y0353*
X02769Y03521*
X02772Y03511*
X02775Y03501*
X02779Y03492*
X02784Y03483*
X02789Y03475*
X02795Y03467*
X02801Y03459*
X02808Y03452*
X02816Y03446*
X02824Y0344*
X02833Y03434*
X02841Y0343*
X02851Y03426*
X0286Y03422*
X0287Y0342*
X0288Y03418*
X0289Y03417*
X029Y03416*
X0291Y03417*
X02919Y03418*
X02929Y0342*
X02939Y03422*
X02948Y03426*
X02958Y0343*
X02966Y03434*
X02975Y0344*
X02983Y03446*
X02991Y03452*
X02998Y03459*
X03004Y03467*
X0301Y03475*
X03015Y03483*
X0302Y03492*
X03024Y03501*
X03027Y03511*
X0303Y03521*
X03032Y0353*
X03033Y0354*
X03033Y0355*
X03113Y0282D02*
X03113Y0283D01*
X03112Y02839*
X0311Y02849*
X03107Y02859*
X03104Y02868*
X031Y02878*
X03095Y02886*
X0309Y02895*
X03084Y02903*
X03078Y02911*
X03071Y02918*
X03063Y02924*
X03055Y0293*
X03046Y02935*
X03038Y0294*
X03028Y02944*
X03019Y02947*
X03009Y0295*
X02999Y02952*
X0299Y02953*
X0298Y02953*
X0297Y02953*
X0296Y02952*
X0295Y0295*
X0294Y02947*
X02931Y02944*
X02921Y0294*
X02913Y02935*
X02904Y0293*
X02896Y02924*
X02888Y02918*
X02881Y02911*
X02875Y02903*
X02869Y02895*
X02864Y02886*
X02859Y02878*
X02855Y02868*
X02852Y02859*
X02849Y02849*
X02847Y02839*
X02846Y0283*
X02846Y0282*
X02846Y0281*
X02847Y028*
X02849Y0279*
X02852Y0278*
X02855Y02771*
X02859Y02761*
X02864Y02753*
X02869Y02744*
X02875Y02736*
X02881Y02728*
X02888Y02721*
X02896Y02715*
X02904Y02709*
X02913Y02704*
X02921Y02699*
X02931Y02695*
X0294Y02692*
X0295Y02689*
X0296Y02687*
X0297Y02686*
X0298Y02686*
X0299Y02686*
X02999Y02687*
X03009Y02689*
X03019Y02692*
X03028Y02695*
X03038Y02699*
X03046Y02704*
X03055Y02709*
X03063Y02715*
X03071Y02721*
X03078Y02728*
X03084Y02736*
X0309Y02744*
X03095Y02753*
X031Y02761*
X03104Y02771*
X03107Y0278*
X0311Y0279*
X03112Y028*
X03113Y0281*
X03113Y0282*
M02*