%FSTAX23Y23*%
%MOIN*%
%SFA1B1*%

%IPPOS*%
%ADD52C,0.002000*%
%LNclicguard-1*%
%LPD*%
G54D52*
X04755Y0419D02*
X04804D01*
X0478Y04165D02*
Y04214D01*
X04859Y04105D02*
X049D01*
X0488Y04084D02*
Y04125D01*
X04759Y04105D02*
X048D01*
X0478Y04084D02*
Y04125D01*
X04659Y04105D02*
X047D01*
X0468Y04084D02*
Y04125D01*
X04559Y04105D02*
X046D01*
X0458Y04084D02*
Y04125D01*
X02625Y01343D02*
X02672D01*
X02648Y01319D02*
Y01367D01*
X04188Y01722D02*
X04221D01*
X04205Y01705D02*
Y01738D01*
X03117Y01343D02*
X03164D01*
X03141Y01319D02*
Y01367D01*
X03612Y02165D02*
X03647D01*
X0363Y02147D02*
Y02182D01*
X04678Y02107D02*
X04711D01*
X04695Y02091D02*
Y02124D01*
X04782Y01343D02*
X04829D01*
X04806Y01319D02*
Y01367D01*
X03612Y02865D02*
X03647D01*
X0363Y02847D02*
Y02882D01*
X04395Y02584D02*
X04424D01*
X0441Y02569D02*
Y02599D01*
X03912Y02665D02*
X03947D01*
X0393Y02647D02*
Y02682D01*
X03316Y02236D02*
X03343D01*
X0333Y02222D02*
Y02249D01*
X02491Y01751D02*
X02518D01*
X02505Y01737D02*
Y01765D01*
X03612Y02365D02*
X03647D01*
X0363Y02347D02*
Y02382D01*
X02866Y01771D02*
X02893D01*
X0288Y01757D02*
Y01785D01*
X03316Y02043D02*
X03343D01*
X0333Y0203D02*
Y02057D01*
X03612Y02265D02*
X03647D01*
X0363Y02247D02*
Y02282D01*
X03655Y0396D02*
X03694D01*
X03675Y0394D02*
Y03979D01*
X03912Y02765D02*
X03947D01*
X0393Y02747D02*
Y02782D01*
X03612Y02965D02*
X03647D01*
X0363Y02947D02*
Y02982D01*
X03612Y03065D02*
X03647D01*
X0363Y03047D02*
Y03082D01*
X04953Y02865D02*
X04996D01*
X04975Y02843D02*
Y02886D01*
X03612Y02765D02*
X03647D01*
X0363Y02747D02*
Y02782D01*
X04953Y02965D02*
X04996D01*
X04975Y02943D02*
Y02986D01*
X03612Y02665D02*
X03647D01*
X0363Y02647D02*
Y02682D01*
X04948Y03655D02*
X04991D01*
X0497Y03633D02*
Y03676D01*
X03912Y03065D02*
X03947D01*
X0393Y03047D02*
Y03082D01*
X04948Y03755D02*
X04991D01*
X0497Y03733D02*
Y03776D01*
X03912Y03165D02*
X03947D01*
X0393Y03147D02*
Y03182D01*
X03373Y03017D02*
X03406D01*
X0339Y03001D02*
Y03034D01*
X03612Y03165D02*
X03647D01*
X0363Y03147D02*
Y03182D01*
X0362Y0357D02*
X03653D01*
X03637Y03553D02*
Y03586D01*
X03912Y01865D02*
X03947D01*
X0393Y01847D02*
Y01882D01*
X04433Y01722D02*
X04466D01*
X0445Y01705D02*
Y01738D01*
X03612Y02065D02*
X03647D01*
X0363Y02047D02*
Y02082D01*
X03947Y01343D02*
X03994D01*
X03971Y01319D02*
Y01367D01*
X03173Y03527D02*
X03206D01*
X0319Y03511D02*
Y03544D01*
X04428Y03227D02*
X04461D01*
X04445Y0321D02*
Y03243D01*
X03912Y02965D02*
X03947D01*
X0393Y02947D02*
Y02982D01*
X03373Y02632D02*
X03406D01*
X0339Y02615D02*
Y02648D01*
X04948Y03455D02*
X04991D01*
X0497Y03433D02*
Y03476D01*
X04205Y0297D02*
X04246D01*
X04225Y02949D02*
Y0299D01*
X04953Y02665D02*
X04996D01*
X04975Y02643D02*
Y02686D01*
X04782Y01146D02*
X04829D01*
X04806Y01122D02*
Y0117D01*
X03947Y01146D02*
X03994D01*
X03971Y01122D02*
Y0117D01*
X03383Y03527D02*
X03416D01*
X034Y0351D02*
Y03543D01*
X03173Y03142D02*
X03206D01*
X0319Y03125D02*
Y03158D01*
X02508Y03315D02*
X02551D01*
X0253Y03293D02*
Y03336D01*
X02966Y0277D02*
X02993D01*
X0298Y02757D02*
Y02784D01*
X03912Y02465D02*
X03947D01*
X0393Y02447D02*
Y02482D01*
X03612Y02565D02*
X03647D01*
X0363Y02547D02*
Y02582D01*
X03912Y02365D02*
X03947D01*
X0393Y02347D02*
Y02382D01*
X02723Y02321D02*
X02762D01*
X02742Y02301D02*
Y0234D01*
X03117Y01146D02*
X03164D01*
X03141Y01122D02*
Y0117D01*
X02467Y02321D02*
X02506D01*
X02487Y02301D02*
Y0234D01*
X04188Y02107D02*
X04221D01*
X04205Y02091D02*
Y02124D01*
X02625Y01146D02*
X02672D01*
X02648Y01122D02*
Y0117D01*
X03455Y01343D02*
X03502D01*
X03478Y01319D02*
Y01367D01*
X03455Y01146D02*
X03502D01*
X03478Y01122D02*
Y0117D01*
X03912Y01965D02*
X03947D01*
X0393Y01947D02*
Y01982D01*
X03912Y02065D02*
X03947D01*
X0393Y02047D02*
Y02082D01*
X03912Y02165D02*
X03947D01*
X0393Y02147D02*
Y02182D01*
X03912Y02265D02*
X03947D01*
X0393Y02247D02*
Y02282D01*
X03912Y02565D02*
X03947D01*
X0393Y02547D02*
Y02582D01*
X03912Y02865D02*
X03947D01*
X0393Y02847D02*
Y02882D01*
X03612Y01865D02*
X03647D01*
X0363Y01847D02*
Y01882D01*
X03612Y01965D02*
X03647D01*
X0363Y01947D02*
Y01982D01*
X03612Y02465D02*
X03647D01*
X0363Y02447D02*
Y02482D01*
X04395Y02285D02*
X04424D01*
X0441Y0227D02*
Y023D01*
X04633Y0297D02*
X04674D01*
X04654Y02949D02*
Y0299D01*
X04428Y03612D02*
X04461D01*
X04445Y03596D02*
Y03629D01*
X04006Y0357D02*
X04039D01*
X04022Y03553D02*
Y03586D01*
X04433Y02107D02*
X04466D01*
X0445Y02091D02*
Y02124D01*
X04948Y03555D02*
X04991D01*
X0497Y03533D02*
Y03576D01*
X04953Y02765D02*
X04996D01*
X04975Y02743D02*
Y02786D01*
X02445Y03746D02*
X02492D01*
X02468Y03722D02*
Y03769D01*
X02445Y03883D02*
X02492D01*
X02468Y0386D02*
Y03907D01*
X02886Y036D02*
X02913D01*
X029Y03586D02*
Y03613D01*
X02886Y03501D02*
X02913D01*
X029Y03487D02*
Y03515D01*
X02508Y03215D02*
X02551D01*
X0253Y03193D02*
Y03236D01*
X02508Y03115D02*
X02551D01*
X0253Y03093D02*
Y03136D01*
X0429Y01146D02*
X04337D01*
X04313Y01122D02*
Y0117D01*
X0429Y01343D02*
X04337D01*
X04313Y01319D02*
Y01367D01*
X02467Y02498D02*
X02506D01*
X02487Y02479D02*
Y02518D01*
X02723Y02498D02*
X02762D01*
X02742Y02479D02*
Y02518D01*
X04405Y0396D02*
X04444D01*
X04425Y0394D02*
Y03979D01*
X04305Y0396D02*
X04344D01*
X04325Y0394D02*
Y03979D01*
X03105Y0396D02*
X03144D01*
X03125Y0394D02*
Y03979D01*
X03005Y0396D02*
X03044D01*
X03025Y0394D02*
Y03979D01*
X03383Y03912D02*
X03416D01*
X034Y03896D02*
Y03929D01*
X02966Y02869D02*
X02993D01*
X0298Y02855D02*
Y02882D01*
X03755Y0396D02*
X03794D01*
X03775Y0394D02*
Y03979D01*
X04678Y01722D02*
X04711D01*
X04695Y01705D02*
Y01738D01*
X02491Y01948D02*
X02518D01*
X02505Y01934D02*
Y01962D01*
X02866Y01968D02*
X02893D01*
X0288Y01954D02*
Y01982D01*
X04992Y04125D02*
X05117D01*
X05055Y04062D02*
Y04187D01*
X02367Y0111D02*
X02492D01*
X0243Y01047D02*
Y01172D01*
X04992Y0111D02*
X05117D01*
X05055Y01047D02*
Y01172D01*
X02362Y04145D02*
X02487D01*
X02425Y04082D02*
Y04207D01*
M02*