%FSTAX23Y23*%
%MOIN*%
%SFA1B1*%

%IPPOS*%
%ADD12C,0.007870*%
%ADD50C,0.003940*%
%LNclicguard-1*%
%LPD*%
G54D12*
X0425Y04085D02*
X04485D01*
Y03835D02*
Y04085D01*
X0425Y03835D02*
X04485D01*
X0425D02*
Y04085D01*
X0295D02*
X03185D01*
Y03835D02*
Y04085D01*
X0295Y03835D02*
X03185D01*
X0295D02*
Y04085D01*
X036D02*
X03835D01*
Y03835D02*
Y04085D01*
X036Y03835D02*
X03835D01*
X036D02*
Y04085D01*
G54D50*
X03693Y03174D02*
X0369Y03184D01*
X03683Y03191*
X03673Y03194*
X03663Y03191*
X03656Y03184*
X03654Y03174*
X03656Y03164*
X03663Y03157*
X03673Y03154*
X03683Y03157*
X0369Y03164*
X03693Y03174*
X02468Y03866D02*
X02477Y03868D01*
X02484Y03875*
X02486Y03883*
X02484Y03892*
X02477Y03899*
X02468Y03901*
Y03728D02*
X02477Y0373D01*
X02484Y03737*
X02486Y03746*
X02484Y03754*
X02477Y03761*
X02468Y03763*
X03421Y0233D02*
X03419Y0234D01*
X03415Y0235*
X03408Y02357*
X03399Y02361*
X03389Y02363*
X0327D02*
X0326Y02361D01*
X03251Y02357*
X03244Y0235*
X0324Y0234*
X03238Y0233*
Y01949D02*
X0324Y01939D01*
X03244Y01929*
X03251Y01922*
X0326Y01918*
X0327Y01916*
X03389D02*
X03399Y01918D01*
X03408Y01922*
X03415Y01929*
X03419Y01939*
X03421Y01949*
X03402Y0232D02*
X034Y02328D01*
X03393Y02335*
X03385Y02337*
X03274D02*
X03266Y02335D01*
X03259Y02328*
X03257Y0232*
Y01959D02*
X03259Y01951D01*
X03266Y01944*
X03274Y01942*
X03385D02*
X03393Y01944D01*
X034Y01951*
X03402Y01959*
X03638Y0182D02*
X03921D01*
X03638Y03209D02*
X03921D01*
Y0182D02*
Y03209D01*
X03638Y0182D02*
Y03209D01*
X04494Y03282D02*
Y03557D01*
X04395D02*
X04494D01*
X04395Y03282D02*
Y03557D01*
Y03282D02*
X04494D01*
X03692Y0352D02*
X03967D01*
Y03619*
X03692D02*
X03967D01*
X03692Y0352D02*
Y03619D01*
X03239Y03197D02*
Y03472D01*
X0314D02*
X03239D01*
X0314Y03197D02*
Y03472D01*
Y03197D02*
X03239D01*
X04155Y02052D02*
X04254D01*
Y01777D02*
Y02052D01*
X04155Y01777D02*
X04254D01*
X04155D02*
Y02052D01*
X044Y01777D02*
X04499D01*
X044D02*
Y02052D01*
X04499*
Y01777D02*
Y02052D01*
X0492Y03405D02*
Y03805D01*
X0502Y03405D02*
Y03805D01*
X0492Y03405D02*
X0502D01*
X0492Y03805D02*
X0502D01*
X04925Y02615D02*
Y03015D01*
X05025Y02615D02*
Y03015D01*
X04925Y02615D02*
X05025D01*
X04925Y03015D02*
X05025D01*
X02327Y03909D02*
X02468Y03901D01*
X02327Y03858D02*
X02468Y03865D01*
X02327Y0372D02*
X02468Y03728D01*
X02327Y03771D02*
X02468Y03764D01*
X02403Y03952D02*
X02406Y03972D01*
X02403Y03952D02*
X02602D01*
X02375Y03972D02*
X02378Y03952D01*
X02375Y03972D02*
X02406D01*
X02327Y03677D02*
X02559D01*
X02577D02*
X02602D01*
X02327D02*
Y03952D01*
X02378*
X02602Y03677D02*
Y03952D01*
X02557Y03657D02*
X02579D01*
X02577Y03677D02*
X02579Y03657D01*
X02557D02*
X02559Y03677D01*
X02598Y0301D02*
Y03419D01*
X02417Y0301D02*
X02598D01*
X02417D02*
Y03419D01*
X02598*
X02468Y0301D02*
Y03419D01*
X0334Y02687D02*
X03439D01*
X0334D02*
Y02962D01*
X03439*
Y02687D02*
Y02962D01*
X0335Y03582D02*
X03449D01*
X0335D02*
Y03857D01*
X03449*
Y03582D02*
Y03857D01*
X04645Y02052D02*
X04744D01*
Y01777D02*
Y02052D01*
X04645Y01777D02*
X04744D01*
X04645D02*
Y02052D01*
X03238Y01949D02*
Y0233D01*
X03421Y01949D02*
Y0233D01*
X03257Y01959D02*
Y0232D01*
X03402Y01959D02*
Y0232D01*
X03274Y01942D02*
X03385D01*
X0327Y01916D02*
X03389D01*
X03274Y02337D02*
X03385D01*
X0327Y02363D02*
X03389D01*
X0327D02*
D01*
M02*